<?xml version="1.0" encoding="UTF-8" standalone="no"?>
<!-- Created with Inkscape (http://www.inkscape.org/) -->
<svg id="arrow" xmlns:rdf="http://www.w3.org/1999/02/22-rdf-syntax-ns#" xmlns="http://www.w3.org/2000/svg" height="297mm" width="210mm" version="1.1" xmlns:cc="http://creativecommons.org/ns#" xmlns:dc="http://purl.org/dc/elements/1.1/" viewBox="0 0 744.09448819 1052.3622047">
	<metadata id="metadata5798">
		<rdf:RDF>
			<cc:Work rdf:about="">
				<dc:format>image/svg+xml</dc:format>
				<dc:type rdf:resource="http://purl.org/dc/dcmitype/StillImage"/>
				<dc:title/>
			</cc:Work>
		</rdf:RDF>
	</metadata>
	<g id="layer1" fill="none";>
		<path class='path' id="path6378" fill='transparent' stroke="#000000" stroke-width='20' d="m82.857 26.648c242.4 173.99 271.06 449.01 340 800"/>
		<path class='path' id="path6388" fill='transparent' stroke="#000000" stroke-width='20' d="m282.86 869.51c93.586-5.0138 204.12-73.652 277.14-100-31.32 120.55-58.06 204.27-77.14 271.39-80.63-78.55-156.12-148.88-185.72-177.11"/>
		<path class='path' id="path6398" fill='transparent' stroke="#000000" stroke-width='20' d="m371.43 918.08c0.95336-13.674 29.045-65.24 31.429-62.857 13.18 13.18-19.984 151.4 42.857 25.714 2.4645-4.9291 10.157-48.571 17.143-48.571 18.12 0 0.8561 36.276 2.8572 54.286-2.8726 176.3 13.634 47.018 51.429-28.571 9.6233-19.247 7.4871-27.091 8.5714-31.429"/>
	</g>
</svg>
