<?xml version="1.0" encoding="UTF-8" standalone="no"?>
<!-- Created with Inkscape (http://www.inkscape.org/) -->
<svg id="arrow" xmlns:rdf="http://www.w3.org/1999/02/22-rdf-syntax-ns#" xmlns="http://www.w3.org/2000/svg"  version="1.1" xmlns:cc="http://creativecommons.org/ns#" xmlns:dc="http://purl.org/dc/elements/1.1/" viewBox="0 0 272.7649 528.19892" >
	<metadata id="metadata7">
		<rdf:RDF>
			<cc:Work rdf:about="">
				<dc:format>image/svg+xml</dc:format>
				<dc:type rdf:resource="http://purl.org/dc/dcmitype/StillImage"/>
				<dc:title/>
			</cc:Work>
		</rdf:RDF>
	</metadata>
	<g id="layer1" transform="translate(-118.92 -95.449)">
		<path class='path' id="path3350" fill='#000000' stroke="" stroke-width='19' d="m135.93 95.449c8.7379 13.781 18.698 26.722 28.037 40.091 13.095 17.276 25.376 35.083 37.446 53.083 12.306 18.837 22.488 38.926 32.071 59.247 8.9997 20.047 16.173 40.849 22.955 61.73 6.4316 22.131 10.633 44.812 14.818 67.449 4.8716 26.992 8.9834 54.108 13.688 81.127 2.9582 12.11 3.4915 24.779 7.0196 36.75 0.93845 2.9784 0.50559 1.5196 1.3058 4.3741 0 0-17.415 9.4615-17.415 9.4615-0.73962-2.8328-0.33438-1.3667-1.226-4.3954-3.2758-12.188-3.6985-24.965-6.4836-37.268-4.5647-27.055-8.3819-54.229-13.5-81.193-4.3032-22.505-8.6965-45.029-14.99-67.082-6.7124-20.829-13.743-41.608-22.638-61.624-9.6412-20.189-19.887-40.128-32.088-58.915-12.041-17.997-24.305-35.804-37.395-53.062-9.4435-13.315-19.439-26.23-28.613-39.736l17.009-10.04z"/>
		<path id="path3358" d="m202.7 522.87c14.425-4.2032 27.826-10.914 41.136-17.748 11.844-5.9521 23.074-13.083 34.863-19.128 32.715-16.777-15.021 8.5208 16.497-8.2902 13.855-7.712 28.764-13.183 43.033-20.007 9.7346-4.2108 19.089-9.2108 28.563-13.967-2.1582 1.2847 8.1269-4.6783 6.0937-3.5112-4.7677 2.7368-19.125 10.849-14.293 8.228 4.9696-2.6956 15.013-9.4407 22.555-12.593l1.6116-0.37092-15.711 12.156c-0.48157 0.19345-0.96315 0.3869-1.4447 0.58035-1.0373 0.53829-4.1089 2.2267-3.1033 1.6313 4.8255-2.8568 19.411-11.24 14.521-8.4946-8.5543 4.8031-16.889 10.021-25.552 14.638-9.4098 4.7471-18.781 9.5859-28.444 13.804-14.301 6.5908-29.007 12.323-42.821 19.953-17.184 8.9784-34.367 17.923-51.317 27.356-13.504 6.9238-27.188 13.656-41.897 17.66l15.71-11.895z"/>
		<path id="path3360" d="m213.26 535.12c13.716-1.1679 25.769 4.085 38.015 9.5999 23.054 10.64 44.519 24.321 66.628 36.735 11.539 7.1595 23.31 13.969 34.686 21.357 4.2783 3.7674 9.6592 4.3006 14.926 5.9647 4.3645 1.5115 8.896 2.8053 13.507 3.2599 0.48514 0.0447 0.97483 0.21404 1.4554 0.13407 0.60886-0.10133 1.9795-1.4614 1.4356-1.1696-22.223 11.926-16.942 14.488-15.544 6.5124 0.27392-2.7934 0.0744-5.6034 0.0301-8.4031-0.0858-5.4995-0.0458-11.001 0.0172-16.5-0.54139-9.5752 1.0093-18.996 2.8573-28.35 1.5247-7.5181 2.2836-15.136 2.6498-22.787 0.0677-8.7894 0.66688-17.625-0.097-26.394-0.89937-5.455-1.3629-11.025-2.5545-16.427-1.7012-4.2954-2.9699-8.7381-4.53-13.097-0.58369-3.7814-2.3971-7.2132-3.3499-10.884-0.16658-0.31065-0.33317-0.6213-0.49975-0.93194 0 0 17.261-9.8813 17.261-9.8813 0.24019 0.45789 0.48038 0.91578 0.72056 1.3737 0.81621 3.6474 2.7109 7.0133 3.21 10.749 1.4706 4.4486 2.938 8.9214 4.6174 13.278 1.3538 5.4671 1.5726 11.192 2.5726 16.733 0.81102 8.8411 0.17158 17.761 0.18882 26.628-0.22265 7.7574-1.0128 15.449-2.5252 23.071-1.8494 9.2505-3.7058 18.524-3.056 28.017 0.0747 5.4472 0.0936 10.895 0.20089 16.342 0.0834 2.8902 0.19798 5.7802 0.12576 8.6721-0.92778 9.3338-12.402 16.073-21.385 14.768-4.637-0.73113-9.174-2.059-13.606-3.5893-5.4473-1.5693-10.848-2.568-15.219-6.4557-11.166-7.48-22.604-14.558-34.055-21.612-21.936-12.61-43.412-26.219-66.566-36.54-12.353-5.277-24.475-9.8956-38.135-8.537l16.016-11.637z"/>
		<path id="path3362" d="m254.53 535.97c0.0305 9.8671-0.53255 19.772 0.23026 29.618 1.7164 16.684 6.6998 8.9399-15.412 19.082 2.408-9.738 3.3898-19.744 5.4738-29.539 3.0934-10.916 5.6862-21.963 8.5031-32.952 1.5567-7.3039 4.4237-14.033 7.3566-20.834 1.9564-8.0304 17.645-20.876 22.013-9.6734 1.584 8.1431 3.252 16.253 4.6028 24.443 1.5006 4.5192 1.6258 13.742 4.3125 17.582 0.82382 0.49622 0.44383 0.51922 1.1144 0.24961-5.5102 2.4196-10.725 5.6722-16.53 7.2586-1.0249 0.28009 0.66026-2.02 1.02-3.0198 2.637-7.3284-0.3332 1.466 2.2674-6.3801 3.469-10.19 8.9044-19.459 14.142-28.796 6.3806-13.654 10.494-13.233 25.903-21.718 4.3223 5.3237 3.2353 16.345 3.3658 22.97 0.11038 9.097 0.22177 18.195 0.20842 27.293 0.0215 4.0483 0.002 8.0963 0.0597 12.144-5.8958 2.1275-11.516 5.2881-17.687 6.3824-1.0668 0.18915-0.0304-2.168 0.0217-3.2501 0.34585-7.1889 1.8954-14.302 3.0369-21.393 1.7508-7.2121 2.1756-16.476 5.3994-23.218 6.1698-2.5619 11.956-6.3883 18.509-7.6858 1.2899-0.25539 0.54607 2.5755 0.71473 3.8796 1.045 8.0797 0.90966 16.379 1.0781 24.507 0.19726 10.192 0.18563 20.385 0.29938 30.578 0.0962 9.6314 5.1927 4.4959-16.958 11.631-0.81394 0.2622 0.51971-1.6294 0.77414-2.4458 0.30454-0.9772 0.60183-1.9566 0.90274-2.935 3.4237-8.2934 8.0336-16.203 13.354-23.423 7.6634-11.073 13.482-12.544 26.824-20.113 4.7822 4.829 3.3537 17.289 3.4272 23.627 0.25082 16.823-0.21649 33.677-1.909 50.421-0.79763 7.2979-1.9323 14.55-2.9616 21.816-6.0166 2.1399-11.786 5.18-18.05 6.4198-1.4702 0.29097 4.1047-18.219 4.3081-18.922 1.9699-6.1304 4.299-12.15 7.2376-17.883 0.87611-1.4927 0.45764-0.82478 1.2364-2.0156l18.308-7.8541c-0.9296 1.0102-0.43729 0.42689-1.4381 1.782-3.3446 5.4564-5.4 11.592-7.6236 17.559-1.4732 5.1579-3.2728 10.322-4.1886 15.621-0.14627 0.8463 0.40384 2.0407-0.27921 2.5614-5.5185 4.2064-11.747 7.3884-17.621 11.083 2.3108-2.6088 2.4455-18.013 3.692-21.551 1.9901-16.642 2.4353-33.45 2.0174-50.198-0.0504-2.1042 0.4554-19.439-1.8182-20.187 29.799-17.652 12.432-8.7138 6.8796 0.0967-5.5758 6.8009-9.8049 14.78-13.555 22.71-0.16643 0.5839-1.4396 5.1567-1.5807 5.2528-13.912 9.4736-18.716 17.243-18.556 5.901 0.14429-10.224 0.11446-20.451-0.0133-30.675-0.13505-6.4382-0.23466-12.883-0.71768-19.308-0.12087-1.6077-0.27359-3.2135-0.46646-4.8142-0.12507-1.038-1.3049-2.4474-0.48697-3.0986 5.1477-4.0984 11.329-6.6958 16.994-10.044-0.3788 0.21014-0.9157 0.25769-1.1364 0.63044-0.69559 1.1748-1.6158 5.5869-1.8634 6.6741-1.14 5.0039-2.7009 9.9116-3.2032 15.039-1.1242 6.9495-2.7136 13.968-2.9911 21.019-0.0423 1.0745 0.84683 2.5334 0.0241 3.2258-5.3986 4.5434-11.789 7.7571-17.683 11.636 0.0783-4.0793 0.0798-8.1589 0.12653-12.239 0.0296-9.1121 0.17175-18.225-0.0157-27.336-0.16154-6.3363 0.28916-14.107-1.8168-19.784 27.24-16.076 12.97-10.299 7.8109 1.6305-5.1014 9.2805-10.888 18.245-14.218 28.395-2.4089 8.0373-11.625 31.264-22.817 20.316-3.3147-5.2645-2.5771-12.608-4.5234-18.424-1.2166-8.0745-3.0635-15.993-4.5993-24.005-2.6809-7.8771-1.0436-1.2722 16.012-12.105 0.23416-0.14872-0.5148 0.21334-0.75049 0.35964-1.2798 0.79443-1.2974 2.2611-1.9469 3.5364-1.1449 2.6667-2.7479 5.2171-3.8386 7.8701-1.68 4.0868-2.2649 8.6636-3.8519 12.786-2.8554 10.98-5.449 22.029-8.6061 32.927-2.2272 9.6392-2.8939 19.57-5.2324 29.197-21.236 13.589-17.597 16.454-19.8-1.2286-0.76337-9.8674-0.0941-19.786-0.45327-29.674l17.64-8.9878z"/>
	</g>
</svg>
