<?xml version="1.0" encoding="UTF-8" standalone="no"?>
<!-- Created with Inkscape (http://www.inkscape.org/) -->
<svg id="briefcase" xmlns:rdf="http://www.w3.org/1999/02/22-rdf-syntax-ns#" xmlns="http://www.w3.org/2000/svg" height="800" width="800" version="1.1" xmlns:cc="http://creativecommons.org/ns#" xmlns:dc="http://purl.org/dc/elements/1.1/" viewBox="0 0 799.99999 799.99999">
	<metadata id="metadata7">
		<rdf:RDF>
			<cc:Work rdf:about="">
				<dc:format>image/svg+xml</dc:format>
				<dc:type rdf:resource="http://purl.org/dc/dcmitype/StillImage"/>
				<dc:title/>
			</cc:Work>
		</rdf:RDF>
	</metadata>
	<g id="layer1" transform="translate(-63.819 -37.641)" display="none">
		<rect id="rect4361" fill-rule="evenodd" height="751.43" width="777.14" stroke="#000" y="163.36" x="26.676" stroke-width="1px" fill="#00f"/>
		<rect id="rect4363" height="911.43" width="917.14" y="6.2124" x="-1.8954" fill="#808080"/>
	</g>
	<g id="layer5" transform="translate(0 159.44)">
		<path class='shading' id="path8533" stroke-linejoin="round" d="m-25.714-19.443c27.075-10.61 51.762-18.318 71.428-31.429 26.038-17.358 55.816-27.242 74.286-45.714 13.153-13.153 33.787-21.179 42.857-25.714 2.3512-1.1756 16.297-17.143 17.143-17.143 16.648 0-53.075 111.04-68.571 134.29-6.3052 9.4579-2.0963 21.716-8.5714 31.429-25.095 37.643-85.714 133.61-85.714 160 0 6.5487 25.685-37.128 42.857-45.714 35.011-17.505 40.507-37.65 62.857-60 70.77-70.771 168.65-168.58 197.15-168.58 4.7837 0-23.527 32.767-40 65.714-18.177 36.355-47.198 60.109-65.714 97.143-43.777 87.554-82.205 174.74-137.14 257.14-10.615 15.923-36.792 65.714-40 65.714-9.4037 0 37.144-28.572 62.857-62.857 37.326-49.768 86.779-81.064 125.71-120 48.057-48.057 88.089-93.803 137.14-142.86 29.018-29.018 38.828-74.457 68.571-94.286 35.501-23.667 85.277-65.277 91.429-71.429 3.3672-3.3672-5.2042 8.0614-8.5714 11.429-2.075 2.075-11.307 28.45-20 37.143-20.281 20.281-55.248 84.301-77.143 117.14-20.053 30.079-54.132 62.588-77.143 102.86-16.953 29.668-38.725 64.439-60 85.714-14.454 14.454-174.29 324.28-174.29 331.43 0 13.311 34.594-30.154 65.714-45.714 40.361-20.181 92.143-81.607 122.86-120 65.819-82.274 115.2-166.86 182.86-251.43 43.683-54.604 108.8-109.03 134.29-160 11.05-22.101 59.696-60.304 62.857-57.143 6.5478 6.5478-33.315 71.374-40 91.429-28.077 84.231-82.979 176.39-131.43 257.14-22.732 37.887-38.286 88-57.143 125.71-24.6 49.2-30.731 108.59-62.857 151.43-15.022 20.029-17.143 61.794-17.143 57.143 0-32.026 72.855-51.423 85.714-77.143 6.5514-13.103 34.886-25.186 48.571-45.714 22.566-33.849 56.284-71.568 82.857-111.43 3.0736-4.6105 23.398-18.224 28.571-28.571 26.873-53.745 144.29-178.56 145.71-177.14 3.9766 3.9766-8.5151 42.688-11.429 51.429-13.01 39.031-34.627 103.88-54.286 162.86-7.1088 21.326-37.143 51.674-37.143 85.714 0 20.486-56.355 130.25-57.143 131.43" stroke="#ac8d4a" stroke-width="90" fill="none"/>
	</g>
	<g id="layer4" transform="translate(-63.819 -37.641)" display="none">
		<g id="g4442" transform="translate(62.857 -80)">
			<path id="path3519" d="m481.49 587.29c0.77083-4.0005 1.4236-8.0272 1.8872-12.075 0.42623-2.1746-0.0996-4.2821-0.82092-6.3259-0.41558-1.7425-0.82476-3.4777-0.98423-5.2632-0.16687-1.8214-0.20675-3.6535-0.22071-5.4817 0.0102-1.614-0.64441-3.1993-1.5826-4.4951-1.2562-1.3768-2.3476-2.833-2.9971-4.5837-0.99269-1.3384-1.929-2.8003-2.6587-4.3058-0.45394-0.96298-1.1162-2.6603-2.3799-2.5999-1.5057 0.0303-2.0412-1.9819-3.3512-2.3107-0.9161-1.1998-2.0346-0.84239-3.3663-0.84069-1.6734 0.0191-3.3468 0.0167-5.0202 0.0309-1.8629 0.004-3.7258 0.002-5.5886 0.0111-2.0235-0.18373-3.9541-1.2741-5.9122-1.9389-1.8259-0.44644-3.6879-0.60552-5.5558-0.74591-1.8865-0.0915-3.7748-0.12302-5.6632-0.14208-1.9014-0.0173-3.8029-0.0261-5.7044-0.0232-1.9116 0.003-3.8234-0.0171-5.735-0.006-1.9232 0.009-3.8465-0.0117-5.7697-0.00016-1.9091 0.009-3.8184-0.0114-5.7275 0.00007-1.7904-0.001-3.5809 0.001-5.3714 0.003-1.7434 0.003-3.4867-0.004-5.2301-0.003-1.8643 0.003-3.7286-0.003-5.5929-0.001-1.861-0.007-3.7222 0.0156-5.5832-0.005-1.9309 0.003-3.862 0.019-5.7929-0.00054-1.9167 0.004-3.8336 0.0199-5.7502 0.00029-1.18 0.28601-2.6839-0.39119-3.8223 0.006-0.24728 0.0862-0.38607 0.35398-0.5791 0.53097-0.37083 0.11104-0.74166 0.22207-1.1125 0.3331-1.6088 1.0563-3.4931 1.1478-5.2984 1.6477-1.6594 0.13337-3.3087 0.21085-4.971 0.28581-1.7613 0.0511-3.5246 0.0294-5.2869 0.05-1.8762 0.0162-3.7525-0.005-5.6287 0.008-1.762-0.007-3.5242 0.0192-5.2861-0.0009-1.7646 0.004-3.5294 0.0171-5.2939-0.002 0.85602-0.90165-4.8099 0.62073-3.7298 0.005 6.2694-3.5743 24.673-14.821 19.033-10.318-6.1697 4.9254-13.764 7.7368-20.646 11.605-1.5198 1.2499-4.0835 0.2893-5.1497 1.8766 48.027-27.822-2.0289 2.1548-3.4086 2.3579-0.62483 0.092-1.2678-0.0124-1.8932 0.0754-0.13232 0.21195-0.61577 0.75648-0.39697 0.63584 6.204-3.4208 12.239-7.142 18.433-10.581 0.37768-0.20966-0.58152 0.65813-0.95369 0.87743-2.6786 1.5783-13.866 9.349-21.348 12.052-0.2614 0.12542-1.0352 0.52133-0.7842 0.37625 6.2316-3.6015 12.449-7.2286 18.728-10.747 0.40309-0.22586-0.57874 0.74829-0.97591 0.98441-15.225 9.0517-37.848 22.003-2.0982 1.4313-0.95692-0.003-1.0572 1.432-1.659 1.7832-6.7381 3.9322-13.576 7.6908-20.402 11.469-0.20307 0.1124-0.86978 0.31005-0.66869 0.19415 6.2526-3.6036 12.56-7.1112 18.84-10.667-1.0032 1.3915-2.4574 2.2581-3.4583 3.6217-0.82238 1.2357-0.88365 2.8843-0.94197 4.3367-0.0808 1.8531-0.12042 3.7103-0.10356 5.5653 0.008 1.6913-0.0267 3.3828-0.0123 5.0742 0.0112 1.8382-0.0206 3.6767-0.004 5.515 0.0137 1.8918-0.0182 3.7838-0.00075 5.6756 0.0142 1.9026-0.0177 3.8054-0.00012 5.7079 0.0143 1.9044-0.0177 3.809-0.00002 5.7133-0.004 1.8718 0.0115 3.7436-0.007 5.6156-0.21658 1.779 0.20174 3.1688 0.78643 4.7988 0.76594 1.6184 1.1162 3.3739 1.5312 5.105 0.2998 1.7737 0.36718 3.5685 0.45845 5.361 0.15315 1.7318-0.27568 3.5824 0.44701 5.2059 0.77432 1.9241 1.3284 3.8881 1.8051 5.9029 0.40539 1.7305 0.47349 3.5192 0.56718 5.2875 0.0515 1.7167 0.11856 3.4354 0.10415 5.1534 0.38698 1.3095 0.36515 3.1735 1.4572 4.1107 0.46635 1.9399 1.06 2.5483 2.4942 3.539 0.75678 1.4345 1.8711 2.2341 3.1215 3.1587 1.8415-0.24951 2.903 0.28166 4.106 1.6719 1.145 0.87584 2.07 0.93555 3.402 1.2184 1.5982 0.0307 3.1963 0.1025 4.7974 0.12909 1.6653 0.0181 3.331 0.0368 4.9964 0.0323 1.801 0.007 3.6019-0.002 5.403 0.0112 1.9194-0.005 3.8388-0.01 5.7582 0.002 1.9148-0.007 3.8297-0.0114 5.7445-0.00013 1.7918 0.002 3.584-0.0241 5.3758-0.003 1.7436-0.004 3.4874-0.0166 5.2309 0.003 1.8643-0.003 3.7288-0.0183 5.593 0.001 1.74-0.0104 3.4797-0.002 5.2197-0.0162 1.7366 0.01 3.4734 0.0158 5.2101 0.004 1.8383 0.0148 3.6764-0.00023 5.5147 0.009 0.93285-0.32033 2.4862 0.46834 3.3319-0.008 0.40684-0.22905 0.56597-0.76939 0.95984-1.0201 1.5287-0.83396 3.0299-1.0497 4.697-1.4993 1.8103-0.10414 3.6172-0.18505 5.4318-0.27629 1.8848-0.0161 3.7696-0.0252 5.6546-0.0516 1.9014 0.004 3.8028 0.007 5.7043-0.008 1.9042 0.007 3.8085 0.0127 5.7128-0.001 1.9121-0.00014 3.8244 0.0206 5.7364 0.003 1.8-0.003 3.6001 0.0106 5.4-0.001 1.7753-0.008 3.5507 0.0131 5.326 0.003 1.8746-0.009 3.7493 0.0122 5.6239 0.00092 1.2139-1.0184 3.4336-0.28578 5.0042-0.21578 1.1225-0.1767 2.5639 0.4976 3.6471 0.13759 0.23938-0.0796 0.36828-0.3448 0.55242-0.51721l1.0905-0.32206c0.93203-0.89889 2.3327-0.78505 3.3588-1.2156 3.3323-1.3984-1.7368-0.16953 1.457-0.84811 1.6571-0.0333 3.3354 0.031 5.0029 0.0644 1.5678-0.30037 2.9208-1.6422 4.7457-1.8396 0.84486-1.2946 1.5415-0.59673 2.7587-0.90857 0.826-0.21162 1.9717-1.2713 2.818-1.5896-44.372 25.28-3.4268 2.0118 1.7912-1.2169 6.0678-3.7545-12.334 7.1797-18.55 10.683-0.47372 0.26696 0.61045-0.9468 1.0781-1.2242 6.7181-3.9854 13.544-7.7866 20.316-11.68-6.2796 3.6009-12.559 7.2018-18.839 10.803 0.53014-0.37041 0.53602-0.32263 0.94038-0.79173 0.49444-0.5736 0.52292-1.078 1.1476-1.5735 1.0115-1.0929 2.066-1.7732 2.4957-3.2464 0.35983-1.4869 0.36131-3.0286 0.4283-4.5487 0.0595-1.6959 0.0503-3.3932 0.0641-5.0899 0.0372-1.9518-0.0706-3.9055 0.123-5.8493 0.66258-2.1565 1.3909-4.2919 1.9109-6.4886 0.40018-1.8941 0.55244-3.8203 0.67815-5.748 0.0842-1.9016 0.10259-3.8043 0.13864-5.7072-0.008-1.8271 0.0192-3.6541 0.0128-5.4812 0.006-1.9298 0.0137-3.8596 0.003-5.7894 0.004-1.912 0.0109-3.8241 0.0002-5.7361 0.004-1.9061 0.0107-3.8123 0-5.7184-0.11136-1.8008 0.21156-3.6572-0.10027-5.4395l19.982-10.883c0.65198 1.9342 0.32324 3.9666 0.39489 5.9904-0.0106 1.9062-0.004 3.8124-0.00012 5.7186-0.0107 1.9122-0.004 3.8246-0.00064 5.7368-0.0112 1.9308-0.005 3.8616-0.003 5.7924-0.0118 1.8349 0.0117 3.67-0.0272 5.5046 0.007 1.9269-0.0115 3.856-0.10292 5.7806-0.0463 2.0154-0.14746 4.0546-0.54679 6.0325-0.31275 2.2898-1.0332 4.48-1.7965 6.658-0.92005 1.4958-0.16785 3.6026-0.38387 5.2998 0.003 1.7117-0.0182 3.4231-0.0258 5.1346-0.0218 1.6479-0.12492 3.2931-0.22947 4.9379-0.27618 1.6456-0.32889 3.4729-2.045 4.2652-1.3888 2.2903 0.45717-0.32554-1.0145 0.75823-0.48995 0.36081-0.37218 1.6166-0.94002 1.9488-6.699 3.9544-13.398 7.9089-20.097 11.863 47.489-27.853-0.59522 0.33765-2.7275 2.369-0.51238 0.48811 53.401-31.28-1.8511 1.0395-1.8698 0.99175-3.8887 1.435-5.8073 2.2745-1.6433 0.85834-3.2728 1.5869-5.1453 1.3164-1.5154 0.0135-3.1371-0.10761-4.5079 0.64354-1.4363 0.90711-3.3026 1.2607-4.8966 1.8834-1.8671 0.56081-3.8173 0.13121-5.7537 0.0994-1.7107-0.0772-3.3073 0.0923-4.9546 0.30567-1.8754-0.0114-3.751 0.01-5.6264 0.00092-1.7777-0.0107-3.5555 0.0105-5.3332 0.003-1.799-0.0119-3.5981 0.002-5.3971-0.00099-1.9146-0.0183-3.8296 0.004-5.7443 0.003-1.9038-0.0135-3.8077-0.007-5.7114 0.003-1.8985-0.0111-3.7972-0.002-5.6955 0.0211-1.8676 0.004-3.737 0.0273-5.6019 0.12895-1.7247 0.083-3.4829 0.1811-5.144 0.6764-1.5507 0.42527-2.9386 1.1859-4.4031 1.8524-1.4983 0.58669-3.3064-0.0372-4.9158 0.16711-1.8465 0.009-3.6928-0.006-5.5393 0.009-1.7401-0.0124-3.4802-0.006-5.2202 0.004-1.7251-0.014-3.4499-0.006-5.175-0.0162-1.8653 0.019-3.7309 0.005-5.5963 0.001-1.746 0.0188-3.4923 0.007-5.2384 0.003-1.7885 0.02-3.5776-0.005-5.3662-0.004-1.9146 0.0111-3.8293 0.007-5.7439-0.00041-1.9204 0.0109-3.8409 0.007-5.7612-0.0005-1.8087 0.011-3.6174 0.0003-5.426-0.004-1.6785-0.0177-3.3578-0.006-5.0354-0.0716-1.71-0.0675-3.4368-0.11347-5.1079-0.51826-1.5292-0.44207-2.8181-1.233-4.0329-2.2638-1.1523-0.76077-2.9603-0.22655-3.991-1.3987-1.1425-0.90661-2.1693-1.8808-3.0424-3.0547-1.4981-0.9966-2.4786-2.2616-2.7851-4.0604-1.2576-1.6424-1.6499-3.5894-2.2234-5.5226-0.0368-1.6927-0.01-3.3862-0.0768-5.0785-0.0482-1.6429-0.0985-3.3059-0.38865-4.9245-0.39099-1.8786-0.82794-3.7052-1.568-5.4847-0.91399-1.956-0.93106-3.8555-0.88243-5.986-0.0407-1.6656-0.10819-3.3283-0.27566-4.9868-0.34669-1.6641-0.61433-3.3473-1.353-4.8934-0.63738-1.8421-1.526-3.4427-1.1501-5.4795-0.019-1.8695-0.003-3.7387-0.007-5.6081 0.0175-1.9044-0.0141-3.809-0.00002-5.7133 0.0174-1.9025-0.0141-3.8053-0.00011-5.7078 0.0173-1.8916-0.0142-3.7834-0.00061-5.675 0.0167-1.8376-0.0147-3.6755-0.002-5.5131 0.016-1.6939-0.0176-3.3881 0.005-5.0818 0.0356-1.8836 0.007-3.7679 0.0525-5.6515 0.10401-1.806 0.17711-3.5919 0.42768-5.3829 0.94447-1.7388 1.8364-2.8278 3.3085-4.0654 6.7205-4.0138 13.42-8.0624 20.162-12.041 6.0342-3.5616-12.1 7.0692-18.117 10.661-0.12697 0.0758 2.7594-1.5306 1.6983-1.801 66.063-38.789-45.446 26.845 24.149-14.552 6.6155-3.5734 14.073-8.6771-17.731 10.259-0.35014 0.20847 0.81886-0.14896 1.1692-0.35714 21.165-12.578 12.353-11.902 21.126-12.444 0.59227-0.13995 3.6396-1.8894 2.0265-0.9556-46.138 26.711-0.84033 0.92237 2.8133-2.0704 1.8869-0.18435 3.5763-0.83559 5.2946-1.616-6.1373 3.5669-25.246 12.62-18.412 10.701 16.32-4.5829 13.919-11.947 24.292-11.304 1.7667-0.0189 3.5337-0.007 5.3005-0.003 1.7635-0.02 3.5274 0.004 5.2911-0.005 1.8745 0.009 3.7491-0.0148 5.6236-0.021 1.7489-0.004 3.4984-0.0416 5.245-0.13059 1.574-0.075 3.1752-0.27652 4.6996-0.66689 1.7921-0.42521 3.4461-1.1142 5.1858-1.704 1.9064-0.61456 3.9378-0.24923 5.9296-0.3251 1.9163-0.0191 3.833-0.004 5.7494 0.00029 1.9314-0.019 3.863-0.004 5.7944-0.00054 1.8656-0.0201 3.7314 0.001 5.5972-0.005 1.8654 0.001 3.7308-0.004 5.5962-0.001 1.7459 0.00085 3.4918-0.006 5.2377-0.003 1.7874 0.002 3.5747 0.005 5.362 0.003 1.909 0.0117 3.8182-0.009 5.7272 0.00028 1.923 0.0119 3.8461-0.009 5.7691 0.001 1.9154 0.0125 3.8309-0.007 5.7463 0.005 1.9081 0.0138 3.8162 0.0167 5.7241 0.0505 1.9233 0.0484 3.8486 0.0944 5.7645 0.28379 1.9876 0.2255 3.9728 0.53256 5.8667 1.2032 1.7992 0.65057 3.5079 1.541 5.4751 1.3038 1.863 0.003 3.7261-0.007 5.5891-0.0185 1.7073 0.00026 3.4171-0.0354 5.1219 0.0759 1.558 0.18205 2.8102 0.69205 3.989 1.7549 1.023 0.82571 1.8381 1.7436 3.1734 2.0466 1.4271 0.97342 2.6146 2.3898 3.238 4.0116 0.72078 1.6118 1.805 3.061 2.7658 4.5342 0.46405 1.5752 1.6818 2.7484 2.67 4.0204 1.1306 1.6258 2.132 3.722 2.2309 5.7011 0.0334 1.7825 0.0442 3.5668 0.16548 5.3462 0.10216 1.6033 0.40798 3.1619 0.72484 4.7365 0.79903 2.3233 1.6133 4.8343 1.2049 7.2971-0.5326 4.061-1.0793 8.1197-1.8187 12.15l-20.381 9.9643z"/>
			<g id="g4432">
				<path id="path3521" d="m330.23 592.84c1.3829-4.519 3.7179-8.6296 5.4045-13.03 0.67988-3.0409 2.5546-5.487 4.0428-8.1434 1.1463-1.5787 0.74111-3.696 2.1195-5.0656 0.72323-1.3802 1.5054-2.729 2.2139-4.1165 1.2703-1.4672 1.7795-3.2067 2.2159-5.0611 0.25566-2.1144 0.67647-4.0954 1.4147-6.0939 0.39218-1.0409 0.98963-1.9496 1.679-2.8126l20.969-8.8439c-0.69229 0.71254-1.4607 1.3413-1.9479 2.2267-1.0555 1.7913-1.6185 3.561-1.6007 5.6672-0.4638 1.9324-0.62233 4.2883-1.8658 5.8271-1.0448 1.1038-1.487 2.6531-2.331 3.9171-1.0674 3.4761 0.44705-0.0115-1.2628 1.2352-0.85766 0.62535 0.19639 3.1628-0.86695 3.7997-1.3614 2.6971-3.4259 4.9803-4.3157 7.8838-1.4218 4.5363-3.9669 8.4458-5.3402 12.969l-20.529 9.641z"/>
				<path id="path3523" d="m333.36 621.43c2.8454-3.071 5.6101-6.2163 8.4048-9.3337 7.2691-8.5702 12.717-9.7574 25.082-16.992-35.969 19.759-20.177 13.205-14.712 7.2828 6.5016-6.5245-3.0954 2.9681 21.102-12.616 5.9875-3.8562-12.288 7.2057-18.515 10.661-0.82891 0.46 1.2636-1.4136 1.8805-2.1335 47.256-27.517 7.5406-4.3715 1.4311-0.88728-0.26308 0.15003 0.49979-0.35036 0.70512-0.57298 0.48742-0.52845 0.90408-1.3361 1.2768-1.948 1.8233-0.78772 2.5137-2.674 4.0517-3.7328 0.85692-1.0545 2.2798-1.906 2.7508-3.1952 0.22284-1.6442 1.6798-2.5156 2.3487-3.9879 1.2389-1.2955 2.2684-2.9389 3.0408-4.5754 1.0275-1.5512 2.2253-3.0485 2.9251-4.7795 0.89388-1.4265 1.7102-2.8283 2.2981-4.4048 0.61295-1.546 1.7376-2.7988 2.5243-4.2539 0.33624-1.7402 1.4774-2.6513 2.522-3.9444 0.48969-1.6556 2.2105-2.0973 2.9778-3.5788 0.73113-1.4345 1.4112-2.7963 2.3413-4.1217 0.84762-1.2679 1.325-2.6388 2.2949-3.8348 1.0871-1.0361 1.6646-2.4092 2.3519-3.7268 0 0 20.997-8.8121 20.997-8.8121-1.3639 0.75708-1.5969 2.4662-2.3554 3.7123-1.1276 1.1276-2.0357 1.9034-2.4465 3.4994-0.84344 1.4328-2.131 2.3462-2.3363 4.0973-1.0319 1.3517-1.062 3.0945-3.1063 3.35-0.76839 2.7054-1.8284 1.8725-2.5302 3.8921-0.58431 1.5424-1.3007 3.0562-2.5365 4.1867-0.74967 1.612-1.074 3.3173-2.1856 4.7294-1.2208 1.3001-1.5918 3.5397-2.8489 4.9508-1.3246 1.1323-2.0275 3.4158-2.8629 4.9353-1.4196 0.3622-1.126 2.7543-2.8614 2.8432-0.34498 1.9076-0.80326 2.9985-2.3068 4.3399-1.9418 2.6546 0.21587 0.25833-1.432 1.0898-0.76124 0.38409-1.0736 1.7533-1.5298 2.3154-0.23264 0.28667-0.59557 0.43646-0.89336 0.65469-1.6473 0.18472-1.0042 1.6451-2.0799 2.3323-6.5282 4.1707-45.09 26.6-1.3596 1.0682-1.0989 0.39568-1.1734 1.0974-2.1014 1.6859-6.6584 4.223-14.636 6.7745-20.116 12.443-4.9736 5.1448 12.383-7.175 18.544-10.816 0.2994-0.17697-0.63678 0.27991-0.95517 0.41986-0.57001 0.53814-0.83883 1.3461-1.4128 1.8801-0.22424 0.20862-0.60896 0.12132-0.88022 0.26352-7.5469 3.9564-0.499 30.078-21.713 13.551 33.394-19.68 19.198-13.37 13.553-5.9702-3.0321 2.8665-5.6361 6.1929-8.3554 9.3461 0 0-20.971 8.6863-20.971 8.6863z"/>
				<path id="path3525" d="m353.23 638.58c2.1402-3.4429 4.5522-6.6964 6.8648-10.021 1.4988-1.9271 2.6365-4.0794 3.9478-6.1179 1.2164-1.3374 2.1076-3.112 3.4955-4.2888 1.9256-1.7515 3.6968-3.6621 5.44-5.6014 2.0259-1.8296 3.8623-3.8708 5.8934-5.688 1.7128-2.1347 3.4476-4.2494 5.3434-6.2282 1.5797-1.8806 3.3325-3.5953 4.9585-5.4507 1.6414-1.257 3.1239-2.7266 4.6112-4.1596 1.083-1.499 2.8327-2.1823 3.814-3.741 1.0572-1.0567 2.3588-1.8804 3.0528-3.2414 1.0324-0.96463 2.2057-1.754 2.994-2.9721 1.1012-1.4026 2.1451-2.669 3.1478-4.1324 1.4988-1.2418 1.9742-3.1644 3.1529-4.5986 1.4028-1.2974 2.3892-2.9831 3.5284-4.5109 1.2481-1.4278 2.6268-2.9245 3.6778-4.5377 0.78943-1.7405 2.3112-2.9678 3.2465-4.6121 1.3838-1.3495 2.6628-2.7737 3.855-4.301 1.4194-1.3435 2.2659-3.2138 3.8588-4.3869 1.0078-1.718 2.6422-2.7938 4.0302-4.1488 0.59944-0.62639 1.118-1.2648 1.8444-1.7427l21.095-8.5903c-0.61882 0.70582-1.3954 0.7986-1.9376 1.5913-1.3349 1.4631-2.7262 2.5272-4.1513 3.8652-0.59876 1.376-1.8402 1.5763-2.5978 2.893-0.19293 0.33529-0.16198 0.78609-0.40389 1.0879-0.19829 0.24742-0.55616 0.30464-0.83424 0.45696-1.2114 1.5884-2.3646 3.179-3.7197 4.566-1.5448 0.73001-1.988 3.0889-3.5432 3.9656-0.84403 2.0588-2.481 3.3202-3.3597 5.3055-1.6978 0.92317-2.5355 2.8702-3.5578 4.4496-2.1387 1.5269-1.5432 2.3688-3.2608 4.2955-1.2369 1.3463-1.6602 2.9643-3.1946 4.0043-0.9035 1.1941-1.4441 2.757-2.7895 3.4098-1.3547 0.39862-1.6265 2.7238-3.075 3.2177-1.4764 0.73235-1.9958 3.1792-3.9378 3.5825-1.4035 1.861-3.1709 2.6214-4.3796 4.7122-2.3426 0.69003-3.0031 3.6393-5.3112 4.6728-0.77663 1.4834-1.8122 1.8043-2.7272 3.0591-0.83761 1.1486-1.2661 2.3842-2.6167 3.1531-1.1086 2.4729-3.8324 4.0382-5.7376 6.0586-2.0607 1.8751-3.6308 3.7542-5.2943 5.7849-0.46523 0.37481-1.1226 0.46056-1.5818 0.84265-1.0004 0.83229-0.51588 2.5574-2.2682 2.705-1.1254 2.2142-2.475 4.2661-3.9379 6.3156-2.2515 3.3324-4.7309 6.4866-6.8877 9.8808 0 0-20.747 9.1954-20.747 9.1954z"/>
				<path id="path3527" d="m393.36 644.29c2.5958-2.9791 4.2837-6.4945 6.916-9.4716 1.2597-2.4678 3.6164-4.0328 4.9043-6.4507 1.1496-1.7365 2.6649-2.6922 3.779-4.5006 1.3432-1.3422 2.8798-2.6787 4.0798-4.1408 4.769-5.4153 48.457-27.157 3.1594-2.3355-0.67286 0.36869 1.0305-1.1524 1.6507-1.6041 1.7033-1.0592 2.0326-2.966 3.8167-3.9439 6.6383-7.1054 4.1975-2.89 21.995-13.594 5.9969-3.6068-23.66 14.82-18.241 10.393 0.95401-1.6186 2.2847-2.9341 3.3752-4.4556 0.9777-1.8201 2.5738-2.8067 3.273-4.7594 1.1931-1.7505 2.7704-3.2124 3.9797-4.9604 1.1385-1.6048 2.3936-3.0874 3.5761-4.6625 1.3623-1.6649 2.6905-3.0713 3.7205-4.9573 1.8326-0.92094 2.1063-3.0864 3.6288-4.2379 0.94316-1.7275 2.4106-2.9327 3.7059-4.3699 0.99013-1.8148 2.6556-3.106 3.4741-5.0178 1.2252-1.7686 2.4949-3.593 3.8776-5.3077 1.4517-1.6308 2.4309-3.5057 4.1061-4.9304 1.249-1.3196 1.2135-3.2235 2.4026-4.5528l0.42447-0.7072s20.895-9.0407 20.895-9.0407c-0.17032 0.19292-0.34063 0.38585-0.51095 0.57878-1.7759 3.9354 0.79178-1.0136-1.324 1.2548-0.69017 0.73995-0.0848 2.7454-0.99788 3.4515-0.9229 1.8685-3.2967 2.8498-4.086 5.1013-0.83603 0.90685-2.8876 4.2991-3.1123 4.5124-0.24202 0.22983-0.65837 0.11009-0.98756 0.16514-0.46018 1.0028-0.60528 2.1805-1.2539 3.0887-0.39999 0.56006-1.3012 0.61885-1.6892 1.1873-0.25505 0.37363-0.17476 0.88772-0.26214 1.3316-1.2574 1.5777-2.6387 2.659-3.8117 4.2146-1.2439 2.9727 0.3508 0.21474-1.5152 1.34-1.0064 0.60695-0.32534 3.1292-1.8999 3.3778-1.7112 0.46049-0.98067 1.0641-1.711 2.496-0.52469 1.0287-2.0844 0.65615-2.1204 2.0725-1.3078 1.5286-2.2692 3.1919-3.6892 4.5178-0.467 0.69643-0.5823 1.6322-1.1772 2.2231-0.24648 0.24478-0.73417 0.0402-1.012 0.24865-0.95559 0.71699-0.10871 2.5694-1.8093 2.4052-0.94479 0.8199-0.56341 1.6777-1.1505 2.7164-0.55761 0.98662-0.65605 0.45491-1.5186 1.1752-0.26885 0.2245-0.44185 0.5436-0.66277 0.8154-0.88131 1.8527-2.2172 2.9852-3.2332 4.6619-0.13043 0.27196-0.13591 0.65541-0.3913 0.81588-9.4227 5.9205-42.245 25.002-1.4366 1.118 0.7993-0.46781-2.34 1.1266-1.813 1.5529-0.83132 1.3995-1.0897 0.65951-2.2452 1.3877-0.33959 0.214-0.7899 1.8619-0.85485 2.0023-0.15415 0.33319-0.38775 0.62351-0.58163 0.93527-9.8488 6.9161-44.816 27.014-4.2129 2.9326 0.26855-0.15927-0.55344 0.28919-0.83017 0.43379-0.48995 0.61981-0.59334 1.5391-1.202 2.0428-0.26419 0.21864-0.71658-0.0753-1.0263 0.072-0.75988 0.36138-1.2359 2.0781-1.5864 2.6722-2.6162 0.16864-0.90699 3.1405-4.2066 3.4936-0.62831 1.102-0.94206 2.3549-1.7848 3.3298-0.63502 0.73462-1.665 1.0662-2.2701 1.8256-0.38051 0.47751-0.51985 1.105-0.77977 1.6575-1.0974 1.5855-2.5695 2.5988-3.6234 4.2131-1.5906 2.4365-0.51791 1.3656-2.0606 4.0089-0.31023 0.53158-0.72542 0.99451-1.0881 1.4918 0 0-20.971 8.6863-20.971 8.6863z"/>
				<path id="path3529" d="m439.13 641.29c2.6188-3.5679 5.42-6.9372 8.3708-10.231 1.4528-2.2275 3.4133-3.9508 5.2239-5.858 0.99139-1.4406 2.16-2.736 3.2677-4.0836 1.2074-1.203 2.1641-2.713 3.6704-3.612 1.1733-1.5484 2.6642-2.6461 3.7433-4.2694 1.1719-1.5576 2.8927-2.5688 4.1951-3.9554 1.293-0.94852 2.155-2.4957 3.5625-3.3072 0.94943-1.563 2.5719-2.6284 3.3358-4.3078 0.97573-1.4374 1.9912-2.8224 2.9952-4.2649 0.17985-0.20901 0.35969-0.41802 0.53954-0.62703 0 0 21.002-8.7846 21.002-8.7846-0.18824 0.18543-0.37648 0.37085-0.56472 0.55627-1.315 1.1666-1.5802 3.0354-3.2417 3.6922-0.86228 1.7366-1.4521 3.5637-3.1758 4.6475-0.57521 1.7295-2.6065 2.3676-3.3742 3.7921-0.95048 0.72092-0.48513 0.25768-1.2933 1.4858-0.95785 0.78698-2.3623 1.0875-3.0094 2.3163-1.5295 1.059-1.85 3.234-3.8082 3.9896-0.66028 1.7581-2.8938 2.1685-3.5341 3.9382-1.3614 1.095-2.1303 2.5944-3.4677 3.742-1.3376 2.4938-3.9166 3.5718-5.194 6.1209-2.9154 3.3006-6.028 6.3554-8.3895 10.11 0 0-20.854 8.9096-20.854 8.9096z"/>
				<path id="path3535" d="m519.47 579.99c4.3316 0.0464 8.6633 0.0101 12.995 0.003 2.6381-0.009 5.2763-0.0269 7.9145-0.0217 2.0385-0.002 4.077-0.012 6.1155-0.005 1.926 0.00029 3.852-0.009 5.778-0.00077 2.0034 0.0566 4.0104-0.30043 5.8813 0.47316 1.8102 0.86354 3.7106 1.5185 5.6957 1.8235 1.7841 0.33884 3.5931 0.37935 5.4006 0.46555 1.7077 0.0495 3.416 0.0673 5.1244 0.0748 1.8424 0.0109 3.685 0.0178 5.5275 0.0134 2.2031 0.006 4.4062 0.015 6.6094 0.013 2.1727-0.006 4.3454-0.002 6.5181-0.005 2.0917-0.006 4.1833 0.006 6.275-0.001 2.05 0.001 4.1 0.005 6.1499-0.003 1.9375 0.002 3.8749 0.006 5.8124-0.001 1.9105 0.002 3.821 0.007 5.7315-0.00019 1.8386-0.032 3.3474-1.4451 5.11-1.9695 1.7805-0.44022 3.5758-0.59501 5.4078-0.70974 1.9056-0.11203 3.8162-0.1228 5.7247-0.14581 1.9098-0.023 3.8199-0.0196 5.7298-0.0246 1.8693-0.32829 3.606-1.3669 5.5074-1.9053 1.9048-0.53159 3.9019-0.65026 5.8683-0.77728 1.8375-0.12433 3.6813-0.1009 5.5211-0.16322 1.2244-0.95314 3.6234-0.32977 5.1992-0.22395 1.5347 0.12815 3.0772 0.13678 4.6164 0.16158-0.71199 1.4674 4.0414-1.4308 3.2204-0.96751-6.2252 3.5127-24.598 14.555-18.619 10.639 6.5385-4.283 13.533-7.8264 20.299-11.74 1.8028-0.52907 3.7296-0.55828 5.5996-0.64152 1.8861-0.0749 3.7746-0.0747 5.662-0.0874 1.7027 0.17518 2.633-0.96252 4.1338-1.7607-0.56828 0.35888 2.3421-0.72148 1.8071-0.41238-6.2379 3.604-25.464 13.424-18.841 10.589 2.3989-1.0266 13.953-11.627 22.066-11.411 1.4287-0.0816 3.1017 0.46976 4.2776-0.4232-0.60122-0.1204 1.621-1.1374 1.1924-0.88838-6.2353 3.6222-24.892 14.569-18.74 10.807 7.0811-4.3295 13.489-11.564 21.773-12.08 9.0394-0.55106 4.6918-1.375-16.618 10.24-0.59898 0.32645 1.1118-0.80168 1.591-1.2872 6.8008-3.8302 13.561-7.7327 20.403-11.49 0.84102-0.46196 1.9438 0.0209 2.7925-0.31348 0.26715-0.10526 0.90642-0.69854 0.65557-0.55881-6.2137 3.4612-12.372 7.0207-18.558 10.531 6.7912-3.933 13.558-7.9082 20.373-11.799 0.21866-0.12483 4.8816-2.5839 2.4462-1.1988-18.416 10.474-23.75 15.545-17.79 9.9934 6.6106-5.4441 1.4938-1.2898 20.932-12.132 0.25786-0.14384 1.1195-0.34207 0.86441-0.19345-26.084 15.195-23.454 15.188-17.622 9.509 1.0715-1.4573 2.7794-2.6128 3.5928-4.2258 0.71247-1.6068 1.7662-2.9996 2.7685-4.4589 1.0053-2.0716 2.1936-4.037 3.0674-6.1803 0.66232-2.1865 1.0088-4.4168 1.9393-6.5223 1.0408-1.7988 1.4573-3.8367 1.8165-5.8572 0.29567-2.0447 0.36977-4.1103 0.45218-6.1716 0.0684-1.9438 0.0651-3.889 0.0833-5.8337 0.0102-1.8275 0.0263-3.6551 0.00065-5.4826 0.0132-1.7185 0.0239-3.4371 0.006-5.1557 0.0132-1.8533 0.0227-3.7068 0.003-5.5602 0.0119-1.895 0.0213-3.7902 0.00054-5.6853 0.0116-1.9031 0.021-3.8064 0.00009-5.7096-0.0006-1.9139 0.032-3.8284 0.004-5.7422 0.0163-1.8902-0.007-3.7801 0.007-5.6704-0.0138-1.7264-0.0154-3.4531 0.002-5.1796-0.01-1.8509-0.0147-3.702 0.002-5.553-0.0109-1.8943-0.0164-3.7888 0.00053-5.6832-0.0293-1.936 0.0132-3.8719-0.007-5.8078 0.1636-1.9868-0.90524-3.7091-1.4675-5.5488-0.65451-1.8483-0.92105-3.8093-1.0867-5.7546 0.0941-2.1689-0.55886-4.0778-1.3706-6.0546-0.84121-2.0507-1.13-4.2471-1.3839-6.4317-0.22228-2.0955-0.2782-4.2042-0.33104-6.3094-0.061-1.7394-0.0596-3.4789-0.0607-5.2188-0.18129-1.8566 0.27432-3.8192-0.1047-5.6512-0.74943-2.1909-1.3876-4.4024-1.8953-6.6614-0.37965-1.8511-0.57784-3.7251-0.70222-5.6084-0.0856-1.8632-0.12706-3.7278-0.14358-5.5928-0.004-1.8951-0.0255-3.79-0.0236-5.6851 0.01-1.903-0.008-3.806-0.004-5.7091 0.0119-1.9045-0.006-3.809-0.0005-5.7135-0.00068-1.9143 0.007-3.8285 0.004-5.7428-0.006-1.923 0.002-3.8461-0.00056-5.7691-0.007-2.0329 0.0119-4.0656 0.00085-6.0986 0.002-2.0374 0.008-4.0748-0.004-6.1122-0.125-2.1569 0.0383-4.1776 0.77392-6.213 0.77056-1.75 1.2449-3.5999 1.5567-5.4801 0.28746-1.8491 0.37319-3.7231 0.42882-5.5913 0.074-1.7779 0.0558-3.5575 0.0752-5.3362 0.0116-1.753 0.0218-3.506 0.022-5.259-0.004-1.8832 0.005-3.7664 0.003-5.6496-0.006-2.0256 0.0124-4.0512 0.001-6.0769 0.002-2.0362 0.008-4.0725-0.004-6.1088-0.01-1.6406 0.16473-3.2468-0.39844-4.808-0.64572-1.9781-1.9243-3.5944-2.9142-5.4034-0.844-1.5668-1.589-3.3464-3.0471-4.4354-1.6221-0.9519-3.2043-1.3305-4.692-2.5397-1.4781-1.0312-3.0278-1.3654-4.7278-1.7138-1.8107-0.2933-3.6651-0.32358-5.4993-0.38343-1.6531-0.0586-3.3074-0.0506-4.9611-0.0706-1.5898-1.0094-3.217-1.5639-4.9527-2.2286-2.0702 0.01-3.8027-0.83156-5.5217-1.8975-1.7831-0.66351-3.5886-0.96433-5.455-1.2884-2.1281 0.0546-3.9988-1.0105-5.8701-1.9614-1.8183-0.51392-3.6486-0.7415-5.5186-0.9787-1.8843-0.11465-3.7716-0.15888-5.659-0.18545-1.9292-0.30533-3.6236-1.4698-5.568-1.9292-2.113-0.4493-4.2268-0.69326-6.3835-0.78195-2.1882-0.11423-4.3802-0.13762-6.5709-0.15863-2.2615-0.0167-4.5235-0.0402-6.785-0.0249-1.9058 0.002-3.8117-0.0117-5.7174 0.00024-1.7957 0.008-3.5915-0.013-5.3872-0.002-2.2389-0.0136-4.4778 0.004-6.7167-0.0136-2.116 0.005-4.2322 0.0248-6.3481 0.005-2.2792 0.002-4.5586-0.009-6.8377 0.006-2.3095-0.017-4.6192-0.001-6.9287-0.003-2.4654-0.11857-4.9994 0.3583-7.3555-0.45148-2.1173-0.87287-4.3268-1.3452-6.5434-1.8577-2.1122-0.28784-4.2494-0.3734-6.3786-0.4464-1.9861-0.0581-3.9729-0.0682-5.9596-0.0821-1.7231-0.005-3.4461-0.0153-5.1692-0.005-1.7899-0.002-3.5804-0.0221-5.3704-0.007-1.883-1.0009-3.9032-1.5377-5.9192-2.1626-1.8435-0.36599-3.7183-0.453-5.589-0.57145-1.8918-0.0661-3.7849-0.0983-5.6778-0.10444-1.9024-0.008-3.805-0.0309-5.7074-0.0167-1.9043 0.002-3.8089-0.0199-5.7132-0.002-1.9046 0.004-3.8095-0.0183-5.7141-0.00034-1.8685-0.0109-3.7368 0.004-5.6053-0.005-1.9321-0.002-3.8643 0.007-5.7964-0.0005-1.9169-0.00065-3.8338 0.008-5.7507 0.0003-1.8115 0.0177-3.6229-0.00073-5.4344-0.004-2.4119-0.001-4.8238-0.00006-7.2356-0.007-2.3225 0.00041-4.6451 0.014-6.9676 0.008-2.2251 0.00035-4.4502-0.002-6.6754 0.001-1.9902 0.25707-3.833 1.3428-5.8227 1.8981-1.9245 0.5325-3.9392 0.65516-5.9248 0.78334-1.9209 0.11598-3.8469 0.12707-5.7708 0.15039-1.8291 0.0301-3.6588 0.005-5.4879 0.0337-1.2417 1.2062-2.8271 1.9042-4.5255 2.127-2.2061 0.40922-4.4411 0.46986-6.6771 0.57856-2.1325 0.0482-4.2649 0.11562-6.3979 0.1305-1.8226 0.013-3.6451 0.0111-5.4678 0.0138-2.7464-0.002-5.4928-0.0227-8.2393-0.0205-3.7899-0.01-7.5798-0.0157-11.37-0.005-2.9842 0.004-5.9685 0.007-8.9527 0.0216-2.3538-0.008-4.7075 0.006-7.0613 0.00018-2.798-0.009-5.5962-0.0134-8.3942-0.008-2.7727 0.002-5.546-0.0149-8.3186 0.009-2.4621 0.003-4.9242-0.004-7.3862-0.011-2.683 0.001-5.3659 0.002-8.0489 0.008-1.6757 1.0152-3.2563 1.8201-5.2073 2.1276-3.6108 0.39306-7.2357 0.30133-10.826 0.85727-4.3154 0.67352-8.4504 1.9375-12.783 2.4092-2.818 0.27068-5.6525 0.2937-8.4811 0.32028-2.7015-0.005-5.4031-0.002-8.1047 0.002-3.0477-0.58522-5.6146 0.99633-8.4843 1.5296-2.1621 0.6449-4.4277 1.0025-6.6845 1.0691-1.8822 0.75328-3.8323 0.59509-5.9662 0.49205-2.703-0.29184-5.2404 0.822-7.8751 1.3356-2.7519 0.56131-5.5518 0.8318-8.3493 1.0363-2.2745 0.16626-4.557 0.17172-6.8363 0.21631-2.2821 0.0112-4.5643 0.0321-6.8464 0.0298-2.0518 0.005-4.1036 0.016-6.1554 0.009-2.2299-0.0909-4.4983 0.33225-6.6079-0.45983-1.8208-0.73974-3.698-1.536-5.6482-1.8542-1.7356-0.26154-3.4732-0.35512-5.2236-0.45043-2.0036 0.53132-3.2102-1.4121-4.9184-1.7392-2.0113-0.77121-4.271-0.79791-6.4112-0.95427-2.1082-0.15905-4.2233-0.18457-6.3364-0.21757-2.6317-0.031-5.2635-0.04-7.8954-0.0386-2.7731-0.46649-5.1459 0.60822-7.7692 1.1698-2.2731 0.72969-4.6528 1.227-7.042 1.3364-1.249 0.48867-2.8599-0.20079-4.0789 0.25428-0.25779 0.0962-0.40955 0.36761-0.61433 0.55141l-1.1417 0.34776c-2.6579 0.74251-5.3353 1.6659-8.0781 1.9452-2.8083 1.108-5.7428 1.656-8.6844 2.2223-2.3022 0.42962-4.6552 0.48988-6.989 0.62212-2.128 0.0875-4.2594 0.0728-6.3894 0.10925-2.3984-0.0338-4.7967 0.0237-7.1949 0.005-1.9362 0.008-3.8727 0.0248-5.8088 0.005-1.9018 0.004-3.8038 0.02-5.7056 0.00038-1.9035 0.004-3.8072 0.0196-5.7107 0.00002-1.8258 0.004-3.6515 0.0149-5.4773 0.008-1.8266 0.19304-4.0213-0.5552-5.5995 0.48507-0.66324 0.19786-1.376-0.26433-2.0349-0.0997-0.58445 0.14604-1.0281 1.0124-1.6582 1.2654 6.2009-3.5546 12.402-7.1092 18.603-10.664-6.9054 3.8598-13.733 7.8622-20.716 11.579-0.39331 0.20936-0.90967 0.00027-1.3277 0.15437-0.30621 0.11288-1.0454 0.77617-0.76125 0.61567 15.698-8.8664 24.804-14.908 17.162-9.3644-6.8864 5.3443-12.227 7.0662-21.981 13.015-6.1112 3.7274 12.389-7.1754 18.62-10.699 0.54187-0.30647-0.91923 0.84432-1.3232 1.318-1.5405 0.80455-2.1383 2.6338-3.4051 3.6609-1.1914 1.5273-2.5683 2.8578-3.7997 4.3603-1.4739 1.2298-2.179 2.9567-3.3654 4.4337-1.333 1.0129-2.4308 2.4094-3.6695 3.5953-1.5688 1.4969-2.9325 2.9115-3.842 4.8906-1.5321 0.85744-1.9982 2.3697-2.9552 3.6839-7.3912 6.5819-10.054 6.9569-23.179 14.531-5.4532 5.3091 27.346-17.937 14.638-7.7741-1.3464 1.1165-2.6639 2.1699-3.9285 3.4048-1.3229 1.3523-2.6497 2.6471-3.566 4.3117-0.57566 1.5536-1.2578 3.1589-1.6316 4.7612-0.18406 1.6116-0.12602 3.2454-0.05458 4.8632 0.05481 1.6919 0.04052 3.3849 0.07987 5.077 0.24394 2.0057-0.31652 3.6955-1.1386 5.4715-0.64545 1.4658-0.97947 3.0005-1.2813 4.5629-0.24813 1.6935-0.28494 3.4069-0.34366 5.1146-0.05526 1.8605-0.04745 3.7221-0.06195 5.5832-0.0069 1.9067-0.0156 3.8134-0.01425 5.7201 0.02314 1.721-0.01615 3.4424 0.01054 5.1632 0.0036 1.8022-0.03015 3.6049-0.0038 5.407 0.0054 1.8824-0.02859 3.7655-0.0011 5.6478 0.0061 1.9008-0.02799 3.8022-0.000209 5.7028 0.0063 1.904-0.02787 3.8086-0.000034 5.7125-0.01636 1.8719 0.0065 3.7435-0.0073 5.6154 0.0064 2.2584-0.0078 4.5168-0.01946 6.7752 0.0015 1.9828 0.03728 3.966 0.02858 5.9488-0.01401 1.8256 0.0025 3.6513-0.0034 5.477-0.01271 1.8897 0.0047 3.7794-0.000775 5.6691-0.01234 1.9023 0.0053 3.8046-0.000136 5.7069-0.01226 1.9044 0.0054 3.8088-0.000021 5.7132-0.01225 1.9047 0.0054 3.8094-0.000003 5.7141-0.0012 1.8201-0.01523 3.6403 0.01249 5.4603 0.000903 1.7108-0.03115 3.4229-0.0075 5.1337 0.0039 1.8808-0.02965 3.7621-0.0023 5.6427 0.0062 1.9043-0.02795 3.8092-0.000117 5.7134 0.0063 1.9049-0.02784 3.8104 0.000007 5.7152-0.01713 1.7485 0.01425 3.4961-0.0063 5.2446 0.02194 1.8478 0.101 3.687-0.30663 5.4983-0.12853 1.6208 0.05216 3.243 0.11005 4.8627 0.06764 1.8905 0.34933 3.804-0.24763 5.6251-0.76203 1.9528-1.3843 3.9692-1.7757 6.029-0.31886 2.0062-0.4244 4.0332-0.52284 6.0593 0.06698 1.9556-0.42768 3.8444-0.46023 5.7922 0.06892 1.9088 0.1783 3.8156 0.22139 5.7252 0.07016 1.9116 0.09668 3.8253 0.09474 5.7382 0.02859 1.6864 0.04894 3.3739 0.02276 5.0605 0.0073 1.8203 0.02841 3.641 0.000045 5.4612 0.0066 1.8029 0.02209 3.6058 0.01214 5.4086-0.01503 1.9248 0.003 3.8497-0.0022 5.7746-0.31697 1.9827 0.59376 2.9916 1.4484 4.6867 0.92189 1.1696 1.9858 2.2111 2.889 3.4981 1.4786 0.64438 2.5248 2.3274 3.2056 3.7573 0.32015 1.3416 1.4852 2.1133 2.2031 3.1897 0.6603 1.5526 1.9814 2.0711 2.7826 3.636 0.62048 1.5026 1.4398 1.4042 2.4154 2.7825 1.2316 0.80458 0.75997 3.0469 2.1705 3.3731 1.2346 0.9557 2.467 0.44243 3.6228 1.6114 1.4628 0.8872 2.9656 1.2965 4.5901 1.8055 1.7837 0.21494 3.5665 0.32564 5.3616 0.42029 1.8816 0.045 3.7633 0.0711 5.6454 0.0762 1.7776 0.0154 3.5555 0.0158 5.3332 0.0113 1.7703 0.005 3.5407 0.0102 5.311 0.004 1.8656-0.006 3.7313 0.0141 5.5967 0.004 1.9269-0.009 3.854 0.0118 5.7809 0.00024 2.1531 0.26826 3.6013-0.39607 5.483-1.3028 1.81-0.85361 3.9093-0.96401 5.8801-1.2384 1.8049-0.17773 3.6289-0.22716 5.4451-0.26987 1.7491-0.0366 3.4989-0.0324 5.2484-0.039 1.7956-0.1701 3.8399 0.46602 5.4239-0.48048 1.6634-1.0618 3.6928-1.6516 5.6688-1.7901 1.9304-0.36291 3.911-0.47835 5.8751-0.48299 1.9167-0.0755 3.8365-0.10477 5.7548-0.0885 1.8283-0.0159 3.6568-0.0281 5.4852-0.0227 1.7163-0.001 3.4327-0.008 5.149 0.00047 1.8522 0.001 3.7044-0.007 5.5566 0.001 1.8948 0.00095 3.7897-0.008 5.6846 0.00029 1.8311-0.0106 3.6619 0.006 5.493-0.007 1.9299 0.008 3.8599 0.0136 5.7899-0.00023 1.9122 0.008 3.8244 0.0135 5.7366-0.0002 1.6953 0.00045 3.3906 0.007 5.0858 0.00083 1.8372 0.004 3.6745 0.008 5.5117 0.002 1.8915 0.003 3.7831 0.007 5.6746 0.00044 1.9026 0.003 3.8052 0.007 5.7078 0.00008 1.9119-0.005 3.8238 0.0143 5.7357 0.003 1.8081 0.001 3.6163-0.002 5.4245-0.004 1.7476-0.003 3.4953 0.003 5.2429 0.003 1.8651-0.003 3.7301 0.003 5.5952 0.001 1.8975-0.004 3.795 0.002 5.6925 0.00025 1.9036-0.004 3.8072 0.002 5.7108 0.00004 1.9046-0.004 3.8092 0.002 5.7138 0.00001 1.8031 0.001 3.6061-0.009 5.4092-0.003 1.738 0.00017 3.476-0.006 5.2139 0.002 1.8579 0.001 3.7158-0.007 5.5737 0.001 1.8959 0.00096 3.7918-0.008 5.6877 0.0003 2.2774-0.9782 2.2134 0.15688 4.4894-1.2107 1.5461-0.86344 3.4013-1.059 5.1383-1.2811l-18.182 13.678c-1.6907 0.35579-3.2809 0.96985-4.8502 1.6767-1.6046 0.38522-3.3724 0.14573-4.9959 0.50576-1.8962 0.008-3.7924-0.00059-5.6886 0.00029-1.8591 0.008-3.7183-0.00008-5.5774 0.001-1.7397 0.008-3.4795 0.002-5.2192 0.002-1.8006 0.006-3.601-0.004-5.4016-0.003-1.9046-0.002-3.8092 0.004-5.7138 0-1.9036-0.002-3.8073 0.004-5.7109 0.00004-1.8977-0.002-3.7955 0.004-5.6932 0.00025-1.8661-0.001-3.7323 0.004-5.5984 0.001-1.75-0.00086-3.5001 0.006-5.2502 0.003-1.8048-0.002-3.6095-0.005-5.4142-0.004-1.9145-0.0116-3.8292 0.009-5.7437 0.003-1.9026-0.007-3.8053-0.002-5.708 0.00008-1.8919-0.007-3.7839-0.002-5.6758 0.00043-1.8389-0.007-3.6778-0.002-5.5167 0.002-1.696-0.006-3.3921 0.00042-5.0881 0.00083-1.912-0.0139-3.824-0.008-5.736-0.00021-1.9298-0.0141-3.8596-0.008-5.7893-0.00022-1.8248-0.0126-3.6495 0.004-5.4744-0.007-1.8951 0.008-3.7903-0.00056-5.6854 0.0004-1.8535 0.008-3.707 0.00015-5.5605 0.002-1.7178 0.009-3.4356 0.003-5.1534 0.006-1.8181 0.0108-3.6362 0.005-5.4543 0.0173-1.9027 0.0443-3.8056 0.0576-5.7069 0.15307-1.906 0.16069-3.8078 0.31522-5.6783 0.74221-1.8879 0.61073-3.7027 1.3534-5.5937 1.9189-1.9216 0.0346-3.8433 0.0241-5.7651 0.0361-1.7399 0.0107-3.48 0.0308-5.2189 0.0954-1.7679 0.0741-3.5381 0.17238-5.2854 0.46424-1.924 0.28655-3.774 0.88662-5.559 1.6458-2.0074 0.61031-3.8805 0.80193-5.9973 0.63373-1.9271-0.0118-3.8544 0.009-5.7815 0.00012-1.8689-0.0105-3.7381 0.009-5.6071 0.003-1.7736-0.007-3.5472-0.002-5.3208-0.002-1.7814-0.011-3.5628-0.0208-5.3443-0.0303-1.9073-0.0387-3.8152-0.0591-5.7198-0.17757-1.9154-0.15505-3.8425-0.32648-5.6906-0.88676-1.7674-0.60744-3.429-1.3949-5.0056-2.407-1.2969-0.19234-2.509-0.666-3.5434-1.5434-1.3654-1.2266-1.5871-2.5795-2.554-4.0148-0.92732-1.0405-2.234-1.6468-2.6306-3.1388-0.61893-1.2876-2.3828-1.7665-2.6405-3.33-0.88674-1.1143-2.0161-2.1629-2.4154-3.5724-0.57717-1.492-1.9108-2.3538-3.008-3.4217-0.892-1.3884-2.3102-2.29-3.0361-3.7827-0.88182-1.897-2.3205-3.347-1.9279-5.5941-0.0052-1.9241 0.01285-3.8482-0.0023-5.7722-0.01015-1.8068 0.0055-3.6135 0.01127-5.4202-0.02944-1.8184-0.0082-3.6373-0.0057-5.4558-0.03066-1.6842-0.01513-3.3691-0.01136-5.0534-0.02566-1.8994-0.0316-3.7987-0.07387-5.6979-0.05738-1.9177-0.13334-3.8344-0.23329-5.7503-0.08723-2.0576 0.23507-3.8697 0.41681-5.8868 0.03239-2.0976 0.11426-4.2082 0.41921-6.2847 0.2212-2.2409 0.82619-4.3552 1.515-6.4978 0.75911-1.5912 0.92914-2.9204 0.67532-4.7793-0.07752-1.7133-0.23709-3.424-0.24416-5.1392 0.0046-1.7442 0.72117-3.4441 0.39322-5.3005-0.02074-1.7464 0.01111-3.4918-0.0063-5.2382 0.02744-1.9048-0.0059-3.8103 0.000007-5.7152 0.02743-1.9042-0.0059-3.809-0.000118-5.7133 0.02696-1.8799-0.0059-3.7604-0.0023-5.6404 0.02325-1.7082-0.0082-3.4178-0.0075-5.126 0.02736-1.8243 0.01397-3.6487 0.01249-5.473-0.0054-1.9047 0.01228-3.8094-0.000003-5.7141-0.0054-1.9044 0.01228-3.8088-0.000021-5.7132-0.0054-1.9023 0.01223-3.8046-0.000136-5.7068-0.0055-1.8894 0.01197-3.7789-0.000775-5.6683-0.0059-1.8245 0.01063-3.649-0.0034-5.4735-0.0088-1.9925 0.02715-3.9854 0.02858-5.9779-0.01165-2.2518-0.02587-4.5036-0.01946-6.7554-0.01397-1.8694 0.0091-3.7386-0.0073-5.608 0.02743-1.9039-0.0059-3.8084-0.000033-5.7125 0.02738-1.9006-0.006-3.8019-0.000204-5.7026 0.02709-1.882-0.0061-3.7646-0.0011-5.6467 0.02595-1.8009-0.007-3.6024-0.0035-5.4034 0.02666-1.7251-0.01162-3.4509 0.0128-5.1762 0.0033-1.9073-0.0037-3.8146 0.0013-5.7219-0.000395-1.8743 0.02564-3.7484 0.03761-5.6225 0.02487-1.7843 0.09472-3.5658 0.21654-5.3454 0.15973-1.6817 0.40726-3.4442 1.1128-4.9865 0.45849-1.7321 1.7705-2.8654 1.4606-4.7473 0.01004-1.6762-0.03213-3.3529-0.06766-5.0286-0.02795-1.7304-0.11629-3.4606-0.09073-5.1912 0.10191-2.0195 1.0066-3.3806 1.312-5.4442 0.83618-1.8812 1.6678-3.571 3.2807-4.928 1.243-1.4201 2.4349-2.6519 3.8667-3.6077 6.8007-6.5369 17.318-8.947 24.283-14.926-26.89 15.827-22.045 15.012-15.813 8.0577 2.1717-0.77072 1.1953-2.3643 3.0568-3.529 0.32181-0.0687 0.74446 0.0377 0.96544-0.20618 0.48439-0.53449 0.35452-1.4121 0.68806-2.0517 0.67177-1.2881 1.6617-1.2039 2.2065-2.5827 1.2538-1.2158 2.8656-2.2718 3.5336-3.9058 2.2135-0.68121 1.9451-2.7347 3.6055-3.8644 1.2185-1.5184 2.3566-3.0728 3.7767-4.3198 0.55488-1.0205 2.4606-3.0496 3.2996-4.0071 0.52026-0.36385 0.76473-1.0529 1.3036-1.3885 8.6512-5.3874 42.983-25.383 1.7673-1.268-0.57089 0.33403 2.448-1.3278 1.5114-1.2858 11.407-7.3674 44.851-25.767 5.5931-3.0857 21.123-12.186 13.431-10.319 24.341-12.562 1.9882-0.0187 3.9765 0.002 5.9647-0.0101 1.8182-0.007 3.6364 0.004 5.4546 0.008 1.9035-0.0191 3.8072-0.004 5.7107-0.00012 1.9016-0.0192 3.8035-0.004 5.7052-0.00063 1.9334-0.0199 3.867-0.005 5.8004-0.002 2.4027-0.0245 4.8059 0.0222 7.2083-0.0429 2.107-0.0113 4.2137-0.0465 6.3169-0.18111 2.2749-0.12429 4.5455-0.38896 6.7784-0.84614 2.9366-0.56449 5.7503-1.5962 8.6843-2.1697 2.66-0.67116 5.3303-1.3057 7.914-2.2408 1.9511-0.69417 4.0761-0.41812 6.1179-0.77537 2.3051-0.41835 4.5827-0.90236 6.8376-1.5455 2.6807-0.7329 5.3498-0.89658 8.1248-0.75099 2.6402 0.0158 5.2805 0.018 7.9204 0.0619 2.1446 0.0414 4.2904 0.13001 6.425 0.34962 2.3223 0.23718 4.6746 0.48687 6.8178 1.4861 1.5115 0.82572 2.7657 1.2476 4.5357 1.1371 1.8217 0.15094 3.6385 0.35944 5.4222 0.7743 1.8876 0.57788 3.7234 1.3138 5.622 1.8514 2.1029 0.0849 4.2095 0.012 6.3137 0.0332 2.0473-0.009 4.0946-0.0003 6.142-0.006 2.278-0.0152 4.5563-0.01 6.8339-0.066 2.2471-0.0412 4.4942-0.11552 6.7333-0.32116 2.7365-0.25573 5.4631-0.63699 8.1456-1.2447 2.7194-0.63143 5.4058-1.2726 8.2232-0.94887 2.0158-0.0253 3.8241-0.52954 5.8164-0.68474 2.1773-0.33313 4.3336-0.71161 6.4526-1.3296 2.8978-0.90595 5.7779-1.32 8.8301-1.1001 2.6983 0.005 5.3971 0.0112 8.0951-0.0296 2.7577-0.0416 5.5209-0.12234 8.2577-0.49126 4.264-0.66719 8.435-1.8814 12.737-2.3599 3.5924-0.36163 7.2627-0.29199 10.777-1.1946 1.8239-0.70135 3.5031-1.794 5.5402-1.6445 2.6758 0.006 5.3516 0.007 8.0274 0.008 2.4722-0.007 4.9444-0.0144 7.4167-0.011 2.764 0.0248 5.5288 0.007 8.2929 0.009 2.8054 0.005 5.6109 0.00051 8.4163-0.008 2.3536-0.006 4.7072 0.008 7.0608 0.00016 2.9644 0.0151 5.9289 0.017 8.8934 0.0214 3.7947 0.0108 7.5894 0.005 11.384-0.006 2.7669 0.001 5.5337-0.0198 8.3005-0.0288 1.8203-0.004 3.6408-0.0166 5.4608-0.0406 2.1058-0.0411 4.2133-0.0534 6.3159-0.19136 2.1554-0.1377 4.3253-0.33739 6.3984-0.97971 1.5776-0.71476 3.1091-1.8215 4.9123-1.6564 1.8161 0.0168 3.6325-0.0182 5.4485-0.04 1.8946-0.0372 3.7906-0.0946 5.6778-0.27573 1.9105-0.20146 3.8081-0.52497 5.6255-1.1673 2.0516-0.69242 3.9859-1.635 6.2263-1.3525 2.2242 0.003 4.4484 0.00064 6.6726 0.001 2.3155-0.006 4.6311 0.007 6.9466 0.008 2.4184-0.007 4.8368-0.006 7.2553-0.007 1.8154-0.003 3.6307-0.0219 5.446-0.004 1.9166-0.008 3.8332 0.00087 5.7498 0.0003 1.9326-0.008 3.8652 0.001 5.7978-0.00048 1.8729-0.009 3.7457 0.006 5.6186-0.005 1.9047 0.0186 3.8097-0.004 5.7145 0.00083 1.9051 0.0191 3.8104-0.003 5.7156 0.006 1.9074 0.0229 3.8152 0.006 5.7225 0.0376 1.9202 0.0461 3.8428 0.0614 5.7585 0.21722 1.9785 0.17031 3.9686 0.39344 5.8727 0.9853 1.8347 0.54511 3.6175 1.5353 5.5388 1.6104 1.7954 0.0168 3.5914-0.004 5.3869-0.00058 1.719 0.0171 3.4378 0.0149 5.1567 0.0347 2.0018 0.0229 4.0034 0.0647 6.0033 0.15948 2.2176 0.13659 4.4554 0.25272 6.622 0.77837 2.2011 0.51733 4.3144 1.3045 6.5084 1.8482 2.3559 0.13515 4.72 0.002 7.0786 0.0437 2.3119-0.001 4.6238 0.0144 6.9357-0.003 2.2732 0.0156 4.5467 0.005 6.82 0.006 2.1114-0.0193 4.223-0.00038 6.3344 0.005 2.2514-0.0175 4.5026-0.00009 6.7539-0.0133 1.7976 0.011 3.5954-0.0101 5.393-0.0008 1.903 0.0138 3.8062 0.002 5.7093 0.0116 2.2677 0.0274 4.5358 0.0137 6.8034 0.0492 2.2041 0.0491 4.4101 0.0992 6.6087 0.26979 2.2641 0.19942 4.499 0.56837 6.6908 1.1847 1.7312 0.60555 3.3568 1.5547 5.2446 1.4244 1.9435 0.0693 3.8954 0.11071 5.822 0.39832 2.019 0.32336 4.0208 0.74748 5.9074 1.5644 1.7965 0.82442 3.5548 1.3596 5.5414 1.4618 2.0258 0.42203 4.0102 0.98193 5.8679 1.9181 1.6929 0.87305 3.5482 1.021 5.3454 1.6004 1.4639 0.56792 2.871 1.5296 4.4518 1.5759 1.6741 0.002 3.3492 0.0349 5.0206 0.13243 1.9247 0.10694 3.8643 0.23607 5.7387 0.71624 1.9111 0.4796 3.6422 1.3695 5.2545 2.4991 1.5332 1.0113 3.4904 1.3067 4.7908 2.7242 1.4634 1.4692 2.5789 3.2208 3.436 5.1088 1.0219 1.9 2.3986 3.5832 3.0722 5.656 0.74287 1.8485 0.97521 3.5434 0.79658 5.5402-0.012 2.0376-0.006 4.0754-0.004 6.113-0.0109 2.0253 0.008 4.0505 0.001 6.0758-0.002 1.8832 0.006 3.7664 0.00003 5.6496-0.002 1.7536 0.006 3.5073 0.0006 5.2609-0.002 1.7978-0.0494 3.5954-0.0593 5.3933-0.0647 1.9498-0.11911 3.899-0.30528 5.8423-0.2967 2.0319-0.62433 4.0398-1.3275 5.9808-0.87923 1.8192-1.4629 3.3204-1.1626 5.3992-0.012 2.0388-0.006 4.0777-0.004 6.1165-0.011 2.0326 0.008 4.0651 0.00086 6.0977-0.003 1.9232 0.006 3.8464-0.00054 5.7696-0.003 1.9128 0.005 3.8255 0.004 5.7382 0.005 1.9044-0.0122 3.8087 0.00034 5.7131 0.006 1.9021-0.0114 3.8043 0.002 5.7064 0.008 1.8894-0.007 3.7788 0.0164 5.6681 0.0189 1.8318 0.0238 3.6641 0.098 5.4949 0.0846 1.7797 0.20935 3.555 0.52287 5.3116 0.43918 2.2019 0.99893 4.3632 1.8129 6.4608 0.72041 2.0008 0.30044 4.1614 0.40631 6.2651 0.0107 1.7287 0.0309 3.457 0.0406 5.1858 0.0321 2.0482 0.0762 4.0985 0.24151 6.141 0.18337 1.9862 0.36723 3.9929 1.0903 5.87 0.85808 2.1659 1.8101 4.2987 1.6902 6.6741 0.12109 1.7977 0.28753 3.6227 0.86394 5.3396 0.56143 2.046 1.8345 3.944 1.7832 6.1116-0.0202 1.9384 0.0218 3.8768-0.007 5.8152 0.0171 1.8942 0.0113 3.7885 0.00053 5.6827 0.0172 1.8502 0.0122 3.7005 0.002 5.5507 0.0175 1.7258 0.0156 3.4519 0.002 5.1777 0.0139 1.888-0.01 3.7756 0.007 5.6635-0.0271 1.9123 0.005 3.8253 0.004 5.7377-0.0207 1.9032-0.0117 3.8064 0.00009 5.7095-0.0206 1.8949-0.0116 3.79 0.00047 5.6848-0.02 1.8527-0.011 3.7055 0.002 5.5581-0.0187 1.7181-0.009 3.4362 0.002 5.1543-0.0295 1.8348-0.0174 3.6697-0.0222 5.5045-0.003 1.963-0.035 3.9256-0.0612 5.8882-0.0484 2.1389-0.15951 4.2736-0.34907 6.4044-0.25343 2.2391-0.66791 4.4508-1.4735 6.5608-1.2311 1.9427-1.882 3.9754-2.0501 6.2852-0.79489 2.1258-1.5775 4.4978-3.0815 6.1783-0.38638 1.8796-1.6567 3.265-2.6636 4.6285-0.31372 0.65803-0.36234 1.4241-0.68999 2.0753-0.5407 1.0746-2.5014 1.4052-2.5744 2.869-6.3892 6.1248-7.8265 5.1335-21.394 13.153-0.23354 0.13803-0.96564 0.49369-0.7316 0.3565 22.583-13.237 24.736-14.548 18.011-10.471-5.7044 3.7721-49.191 29.003-4.9916 3.1568-6.8266 3.9483-13.589 8.0102-20.48 11.845-6.0233 3.3519-33.491-6.6544 15.258-9.8786-3.3284 0.86166 1.4773-0.61038-1.6239 1.2008-22.819 13.327-13.112 9.379-22.641 11.883-0.39461 0.21584-1.5868 0.8466-1.2 0.61714 6.184-3.6681 24.538-14.981 18.581-10.955-3.6592 2.4738-13.891 10.291-21.577 12.507-1.5014-0.0202-3.0161-0.0718-4.5058 0.15007-0.42353 0.1253-1.6467 0.61601-1.2653 0.39321 6.21-3.6281 25.279-13.67 18.699-10.766-7.35 3.2431-14.395 8.7383-21.97 12.242-1.6164 0.7862-2.9356 1.1417-4.7537 0.91228-1.8625 0.0215-3.7265 0.0524-5.5842 0.19865-1.753 0.1652-3.5158 0.40325-5.024 1.3856 6.1966-3.6149 24.801-14.435 18.59-10.845-13.446 7.7724-14.085 12.376-24.2 12.008-1.5559-0.0461-3.1112-0.0999-4.6634-0.22101-1.7629-0.0785-3.4016 0.10254-5.1022 0.37123-1.8065 0.0149-3.6134 0.0977-5.4124 0.26311-1.8903 0.2009-3.7683 0.5218-5.5611 1.175-1.9555 0.68423-3.7748 1.6369-5.9256 1.3567-1.9041 0.005-3.8081 0.0183-5.712 0.0491-1.8789 0.037-3.7597 0.0914-5.6305 0.28031-1.7168 0.19711-3.4254 0.55973-5.0182 1.2409-1.7714 0.90035-3.6138 1.459-5.6239 1.2812-1.9103-0.007-3.8206-0.002-5.7309-0.0002-1.9365-0.007-3.8731-0.003-5.8096-0.001-2.0471-0.008-4.0942-0.004-6.1413-0.003-2.0906-0.008-4.1811 0.005-6.2717-0.001-2.168-0.003-4.336 0.00052-6.5039-0.006-2.2141-0.003-4.4282 0.006-6.6424 0.007-1.848-0.0102-3.6959-0.009-5.5438-0.0266-1.7318-0.0287-3.4645-0.0506-5.1932-0.16676-1.8738-0.13939-3.7459-0.31082-5.5765-0.75922-1.9514-0.52354-3.8131-1.2779-5.7354-1.8824-1.855-0.0389-3.7103-0.0116-5.5655-0.022-1.9253 0.008-3.8506-0.00098-5.7759-0.00077-2.0343 0.007-4.0687-0.003-6.103-0.005-2.6183 0.005-5.2366-0.0129-7.8548-0.0217-4.3342-0.007-8.6684-0.0435-13.003 0.003l18.333-13.32z"/>
				<path id="path3537" d="m121.54 591.55c-0.0391 4.1771-0.0672 8.355-0.0152 12.532 0.0115 2.9656 0.0286 5.9305 0.0112 8.8961 0.0333 2.5996-0.0125 5.1998 0.0231 7.7994 0.013 2.1472-0.0217 4.2951 0.01 6.4421-0.0162 1.7969 0.0167 3.5928-0.004 5.3895 0.0588 1.7342-0.11256 3.4772 0.12255 5.1993 0.73709 1.7521 1.3601 3.5509 1.8526 5.3867 0.39331 1.8468 0.57985 3.7288 0.71575 5.6094 0.0891 1.7759 0.12814 3.5534 0.14397 5.3313 0.004 1.8712 0.0248 3.7423 0.0226 5.6136-0.01 1.8986 0.008 3.7971 0.003 5.6957-0.0119 1.9038 0.006 3.8075 0.00046 5.7113-0.0122 1.9046 0.005 3.8092 0.00005 5.7138 0.0111 1.8135-0.0242 3.6282 0.008 5.4415 0.005 1.745-0.0291 3.4906-0.003 5.2355 0.005 1.8625-0.0291 3.7255-0.002 5.5878 0.006 1.8968-0.0281 3.7942-0.00041 5.6908 0.006 1.9034-0.0279 3.8073-0.00007 5.7105 0.006 1.9044-0.0279 3.8094-0.00001 5.7137 0.006 1.9046-0.0278 3.8098 0 5.7142 0.00008 1.6616 0.0104 3.3231-0.009 4.9849 0.008 1.866 0.0134 3.7321-0.004 5.5981 0.004 2.1373 0.004 4.2747-0.001 6.4122-0.0113 2.1747 0.0106 4.3494 0.007 6.5241-0.0107 1.9716 0.008 3.9432 0.003 5.9148-0.0119 1.9169 0.006 3.8338 0.00064 5.7507-0.0122 1.9067 0.005 3.8134 0.0001 5.72-0.001 1.8204-0.0152 3.6408 0.0125 5.4612-0.0116 1.7175-0.0221 3.435-0.003 5.1526-0.17573 1.787 0.90856 3.1865 1.4484 4.8141 0.89437 1.8105 1.3123 3.6825 1.4221 5.6927 0.0793 1.9032 0.0456 3.8106 0.0115 5.7149 0.458 1.6511 0.92468 3.4322 1.813 4.9135 0.81572 1.7877 0.96599 3.7009 1.0265 5.634 0.11545 1.4806-0.26282 3.0846 0.36743 4.4691 1.341 0.64966 1.6448 2.4268 2.0374 3.7537 0.91165 0.31274 1.5689 1.9314 2.3445 2.645 1.271 0.91052 1.7419 2.5585 3.2422 3.0501 1.7136-0.12264 2.9038 0.9455 4.3419 1.6711 1.5782 1.0928 2.6503 1.3366 4.5253 1.5114 1.6857 0.51568 3.2253 1.3746 4.9076 1.9838 2.1066 0.41108 4.2137 0.63459 6.3581 0.72264 2.092 0.11721 4.1875 0.13166 6.282 0.16049 1.966 0.0941 3.9807-0.34105 5.7795 0.51903 1.6656-0.11668 3.3301-0.20433 4.9935-0.35117 1.9278-0.4219 3.1713 1.7121 4.8912 1.831 1.4694 1.0065 2.6834 1.0317 4.4915 0.98129 1.8556-0.0206 3.711-0.0567 5.5666-0.0696 1.7158-0.0175 3.4314-0.0143 5.1472-0.0339 1.7989 0.007 3.5979 0.012 5.3968-0.002 1.8818 0.008 3.7636 0.0135 5.6454-0.00004 1.9008 0.008 3.8016 0.0136 5.7024 0.00003 1.9041 0.008 3.8083 0.0136 5.7125 0 1.9046 0.008 3.8094 0.0136 5.714 0 1.7889 0.00088 3.578 0.0137 5.3668 0.002 1.7894-0.008 3.5789 0.013 5.3684 0.002 1.8782-0.009 3.7566 0.0121 5.6348 0.00081 2.2031 0.00034 4.4063 0.0104 6.6094 0.008 2.3738-0.006 4.7476 0.0119 7.1214-0.003 2.0504-0.0122 4.101 0.009 6.1514-0.004 1.933-0.01 3.8662 0.0108 5.7992-0.00093 1.9094-0.009 3.8188 0.0114 5.7282-0.00016 1.9054-0.009 3.811 0.0115 5.7164-0.00003 1.6501-0.00001 3.3005-0.0179 4.9505 0.003 1.8458-0.002 3.6918-0.0167 5.5376 0.003 1.8992-0.003 3.7985-0.0193 5.6976 0.00027 1.9043-0.004 3.8088-0.0196 5.713 0.00002 1.7728 0.11558 3.0347-0.81553 4.5858-1.7509 1.8917-0.42628 3.7707-0.64247 5.6964-0.90645 1.7913-0.0584 3.5801-0.13443 5.3728-0.17821 1.7735-0.0135 3.547-0.0141 5.3206-0.0255 1.8816-0.008 3.7634 0.0113 5.6451-0.0007 1.9178-0.01 3.8358 0.0108 5.7536-0.00088 1.9083-0.009 3.8167 0.0113 5.725-0.0002 1.9054-0.009 3.8109 0.0115 5.7163-0.00003 1.7898 0.001 3.5795-0.001 5.3694-0.003 1.7432-0.003 3.4865 0.004 5.2298 0.003 1.828 0.007 3.656-0.0145 5.4838 0.006 1.9247-0.002 3.8496-0.0188 5.7743 0.00074 1.9157-0.004 3.8316-0.0199 5.7472-0.00026 2.2799-0.003 4.5597 0.0108 6.8396-0.006 2.2264 0.0192 4.4528-0.0103 6.6792 0.0104 2.1015-0.003 4.2032-0.0228 6.3046-0.003 1.8766-0.005 3.7533-0.0162 5.6299-0.01 1.7252-0.00001 3.4504-0.006 5.1755 0.002 1.8536 0.002 3.7073-0.006 5.5609 0.001 1.8951 0.00098 3.7902-0.008 5.6852 0.00032 1.8245-0.004 3.6489 0.002 5.4733-0.008 1.9265 0.01 3.8531 0.015 5.7796 0.001 1.9198 0.008 3.8397 0.0134 5.7596-0.00034 1.8231 0.23006 3.5502 1.316 5.3262 1.9672 1.7547 0.43779 3.5451 0.58791 5.3417 0.72466 2.1823 0.10182 4.3671 0.12809 6.5513 0.14753 2.3721 0.0179 4.7442 0.0203 7.1163 0.0305 2.2908 0.003 4.5816-0.01 6.8723-0.003 1.9996-0.00028 3.9992-0.01 5.9988-0.002 2.1403 0.001 4.2806 0.004 6.4208 0.002 2.2046 0.003 4.4094 0.006 6.614-0.003 1.9906 0.00097 3.9812 0.005 5.9718-0.002 1.9211 0.002 3.8421 0.007 5.7632-0.00054 1.8992-0.007 3.7986 0.0131 5.6976 0.003 2.2359 0.00059 4.4718 0.0104 6.7077 0.008 2.3767 0.003 4.7534 0.004 7.1301-0.006 1.9107 0.002 3.8214-0.003 5.7321-0.004 1.7951-0.003 3.5903 0.003 5.3854 0.002 2.001-0.004 4.002 0.009 6.0031 0.001 2.0337 0.001 4.0674 0.005 6.1011-0.003 1.9349 0.002 3.8698 0.006 5.8047-0.00092 1.9101 0.002 3.8202 0.007 5.7304-0.00018 1.9056 0.002 3.8112 0.007 5.7168-0.00003 1.7898 0.0136 3.5797-0.007 5.3694-0.003 1.735-0.00016 3.4701 0.006 5.2052 0.005 1.892-0.003 3.7839 0.003 5.6759 0.001 2.1178 0.005 4.2357 0.007 6.3536-0.00088 1.9732 0.001 3.9465 0.006 5.9198-0.002 1.9182 0.002 3.8364 0.007 5.7545-0.00044 1.907 0.002 3.814 0.007 5.7209-0.00008 1.79 0.0136 3.5801-0.007 5.37-0.003 1.7433 0.009 3.4866-0.002 5.2298 0.003 1.856-0.00009 3.7122 0.005 5.5683 0.004 1.9251-0.003 3.8501 0.002 5.7752 0.00026 1.9132-0.004 3.8263 0.001 5.7395-0.00021 1.9065-0.004 3.813 0.002 5.7195-0.00005 1.8262-0.0108 3.6528 0.0141 5.4789-0.008 1.7159-0.003 3.4319 0.0186 5.1477 0.002 1.8521-0.003 3.7044 0.019 5.5564 0.002 2.0703 0.27056 3.5611-0.13745 5.3865-0.89101 2.0537-0.68258 3.7097-1.8182 5.8757-1.9204 8.2033-0.33264 19.917-9.9668-14.491 9.6318 9.6042-6.4293 15.007-11.815 24.716-12.41-0.0975 0.49143 2.1023-0.63767 2.0363-0.60108-6.2347 3.4577-24.693 14.258-18.624 10.517 6.9393-4.2768 14.194-8.0196 21.247-12.107 2.0131-0.37441 3.6802-1.0174 5.7195-1.1252 0.55249-0.16398 1.1575 0.2323 1.7115 0.0926 0.73458-0.18531 1.3218-0.96544 2.0275-1.2776-6.1891 3.5346-12.378 7.0692-18.567 10.604 6.7348-3.8675 13.412-7.838 20.204-11.602 0.0683-0.0378 1.636-0.15871 1.7538-0.20061 0.30007-0.10671 1.0964-0.64856 0.81924-0.49167-19.414 10.99-25.358 13.881-18.316 10.439 1.3455-1.2863 2.8257-2.4117 4.4283-3.3872 1.2594-1.1022 2.0181-2.5856 2.3821-4.2004 0.30367-2.256 1.3164-4.2967 2.0605-6.4257 0.61933-1.7869 0.91427-3.6436 1.154-5.5106 0.21855-2.1434 0.22842-4.3006 0.28261-6.4525-0.23691-2.2069 0.43279-4.1645 1.2098-6.1763 0.67661-1.7856 1.0487-3.6402 1.3068-5.526 0.22018-1.8885 0.19738-3.7914 0.41513-5.6782 0.43535-1.7056 1.4263-3.1707 1.8877-4.8632 0.56961-1.7148 0.64026-3.5402 0.76305-5.3292 0.079-1.8301 0.14555-3.6638 0.13397-5.4961-0.0526-2.1572 0.76665-4.2007 1.5072-6.1922 0.64962-1.9022 0.80796-3.9147 1.0756-5.8934 0.15072-2.0463 0.21749-4.0789 0.58681-6.102 0.143-1.8945 0.005-3.7934-0.0869-5.6867-0.0787-1.9602-0.1077-3.9215-0.146-5.8828-0.007-2.1277-0.0297-4.2554-0.0246-6.383-0.005-2.0157-0.0205-4.0314-0.0101-6.0471-0.00025-1.9284-0.0136-3.8569-0.002-5.7853-0.0156-1.6984-0.0164-3.3971 0.00097-5.0956-0.01-1.8389-0.0143-3.6779 0.003-5.5168-0.0108-1.8918-0.0163-3.7838 0.00065-5.6757-0.0248-1.8255-0.00075-3.6512-0.0102-5.4768 0.004-1.9297 0.0106-3.8594-0.00034-5.7892 0.008-1.9967-0.001-3.9933 0.0122-5.99 0.002-2.0934-0.0143-4.1869-0.004-6.2803-0.014-2.0741 0.005-4.1481 0.003-6.2222-0.004-2.2824-0.003-4.5649 0.009-6.8473 0.00005-2.2651-0.0194-4.5302-0.01-6.7953-0.001-1.994-0.0155-3.988-0.004-5.9819 0.00057-1.9209-0.0125-3.8419-0.00086-5.7628 0.001-1.9073-0.0119-3.8147-0.00014-5.722-0.0124-2.0227 0.007-4.0453 0.005-6.068-0.007-2.0644-0.00036-4.1287-0.004-6.1931 0.009-1.9115-0.0253-3.8233 0.006-5.7346 0.073-1.6296-0.77119-3.1114-1.4226-4.5749-0.54742-1.7808-0.92877-3.5814-1.1409-5.4288-0.17793-1.3681-0.23303-2.7474-0.2568-4.1255-0.0292-1.7178-0.0442-3.436-0.0377-5.1541 0.16027-1.635-0.10432-3.0548-0.75438-4.5411l19.828-11.159c0.7621 1.7325 1.4168 3.4352 1.1928 5.3665 0.0154 1.704 0.009 3.4082 0.036 5.1122 0.0285 1.3222 0.0428 2.6462 0.16932 3.9637 0.14004 1.6295 0.39842 3.2157 0.80973 4.8039 0.73878 1.7313 1.7762 3.5417 1.828 5.4178 0.0313 1.9094-0.003 3.8193 0.006 5.729-0.004 2.0658 0.003 4.1316-0.004 6.1974-0.002 2.0209 0.0175 4.0418 0.005 6.0627 0.0118 1.9073-0.001 3.8148-0.00014 5.7221 0.0118 1.9212-0.002 3.8425-0.00085 5.7637 0.0115 1.9953-0.003 3.9908-0.004 5.9861 0.01 2.2683-0.01 4.5367-0.01 6.805 0.0114 2.2794 0.0128 4.5589 0.009 6.8383-0.002 2.0731 0.0168 4.1461 0.003 6.2192 0.0109 2.0946-0.006 4.1892-0.003 6.2838 0.0134 1.9926 0.004 3.9851 0.0122 5.9776-0.0109 1.9298-0.004 3.8597-0.00033 5.7895-0.009 1.8291 0.0145 3.6582-0.0102 5.4872 0.0171 1.8916 0.0113 3.7834 0.00065 5.675 0.0172 1.838 0.0124 3.6761 0.003 5.514 0.0176 1.6981 0.0164 3.3964 0.001 5.0944 0.0118 1.9286-0.001 3.8573-0.00049 5.7859 0.0119 2.0159-0.002 4.032 0.00036 6.0479 0.0135 2.1168 0.00011 4.2337 0.0348 6.3504 0.0115 1.9395 0.0435 3.8792 0.1147 5.8175 0.0807 1.9951 0.22257 3.9912 0.19351 5.9882-0.054 2.0246-0.71138 3.9968-0.54 6.0918-0.14619 2.1261-0.55503 4.2354-0.88103 6.3396-0.52822 1.8713-1.5668 3.6641-1.7837 5.5615-0.054 1.8626-0.0356 3.7272-0.10983 5.5894-0.0742 1.9614-0.23599 3.9119-0.47736 5.8572-0.6308 1.6306-0.92484 3.3711-1.9182 4.8497-1.0176 1.4316-0.18805 3.5969-0.64293 5.2634-0.12425 2.0051-0.36098 4.0836-1.1055 5.9569-0.4968 1.9393-1.7637 3.4961-1.5021 5.579-0.006 2.2052-0.0879 4.4084-0.16787 6.612-0.14774 2.0218-0.44513 4.011-0.95514 5.9723-0.66619 2.1182-1.7636 4.1319-2.1118 6.2358-0.47341 1.8685-0.69578 3.7563-1.8907 5.3539-1.0884 1.6365-3.0958 2.1363-4.3211 3.5566-0.72938 0.92476-53.645 30.432-4.3754 2.2133-15.842 9.0853-14.127 11.366-24.636 12.358-1.783 0.35476-3.6187 0.90073-5.2268 1.7626-6.2408 2.7948 23.829-13.4 17.695-10.378-18.262 8.997-13.195 11.156-22.867 11.906-7.866 1.2074-20.547 12.586 14.667-9.6299-16.655 9.7767-14.014 11.086-24.759 12.549-1.8953 0.70118-3.7242 1.5887-5.6751 2.1728-1.903 0.53693-3.8971 0.22711-5.861 0.30401-1.8534-0.018-3.7071 0.005-5.5606 0.001-1.7179-0.0168-3.436 0.006-5.1539 0.002-1.8186-0.0231-3.6376 0.003-5.4562-0.008-1.9064-0.002-3.8129 0.004-5.7193-0.00006-1.913-0.002-3.826 0.004-5.7389-0.00021-1.9253-0.002-3.8506 0.004-5.7759 0.00026-1.8597-0.00063-3.7194 0.004-5.579 0.004-1.7458 0.004-3.4916-0.006-5.2374 0.003-1.7868 0.004-3.5737-0.017-5.3606-0.003-1.9069-0.007-3.8138-0.002-5.7207-0.00007-1.9178-0.007-3.8356-0.003-5.7533-0.00044-1.9715-0.008-3.9431-0.003-5.9147-0.002-2.117-0.008-4.2341-0.005-6.3512-0.00088-1.8931-0.002-3.7861 0.004-5.6792 0.001-1.7401-0.00006-3.4802 0.006-5.2202 0.005-1.7866 0.004-3.5733-0.017-5.36-0.003-1.9056-0.007-3.8112-0.002-5.7167-0.00003-1.9099-0.007-3.8199-0.002-5.7298-0.00018-1.934-0.007-3.8681-0.003-5.8022-0.00092-2.0313-0.008-4.0627-0.004-6.094-0.003-2.0024-0.007-4.0048 0.005-6.0072 0.001-1.7969-0.001-3.5939 0.005-5.3908 0.002-1.9067-0.002-3.8133-0.007-5.72-0.004-2.3711-0.0103-4.7423-0.009-7.1134-0.006-2.2432-0.002-4.4865 0.007-6.7297 0.008-1.9015-0.0107-3.8032 0.009-5.7048 0.003-1.9206-0.007-3.8411-0.003-5.7617-0.00054-1.9884-0.008-3.9768-0.003-5.9651-0.002-2.2017-0.009-4.4035-0.006-6.6053-0.003-2.1416-0.003-4.2833 0.00018-6.4249 0.001-1.9971 0.007-3.9943-0.002-5.9914-0.004-2.2851 0.005-4.5702-0.009-6.8553-0.0141-2.3804 0.001-4.761-0.005-7.1412-0.0432-2.2322-0.0375-4.469-0.0568-6.6925-0.27859-1.9314-0.22396-3.8635-0.5258-5.6888-1.226-1.604-0.63317-3.0796-1.525-4.8592-1.2834-1.9196-0.014-3.8392-0.008-5.7587-0.00034-1.9278-0.0139-3.8557-0.008-5.7834 0.001-1.817-0.0101-3.6338-0.005-5.4508-0.008-1.8953 0.008-3.7907-0.00058-5.6861 0.00032-1.8549 0.008-3.7099-0.00003-5.5649 0.001-1.7269 0.008-3.4539 0.002-5.1809 0.002-1.8677 0.006-3.7354-0.005-5.6032-0.01-2.0986 0.0192-4.1974 0.00058-6.296-0.003-2.236 0.0203-4.472-0.008-6.7079 0.0104-2.2749-0.0167-4.5496-0.003-6.8244-0.006-1.9154 0.0191-3.831 0.004-5.7465-0.00025-1.9253 0.019-3.8509 0.004-5.7763 0.00074-1.8334 0.02-3.667-0.0005-5.5004 0.006-1.7458-0.00084-3.4916 0.006-5.2373 0.003-1.7867-0.002-3.5734-0.005-5.36-0.003-1.9054-0.0117-3.8108 0.009-5.7162 0.00001-1.9082-0.0117-3.8165 0.009-5.7246 0.00011-1.9175-0.0116-3.8351 0.01-5.7526 0.001-1.8837-0.0102-3.7674 0.0111-5.6511 0.0149-1.7658 0.003-3.5322 0.0166-5.2971 0.0742-1.7428 0.0531-3.4939 0.12815-5.2197 0.38299-1.7978 0.25931-3.6269 0.63423-5.2407 1.494-1.7573 0.72361-3.2812 1.1405-5.1976 0.88376-1.9042 0.0191-3.8087 0.004-5.713 0.00002-1.8994 0.019-3.799 0.004-5.6984 0.00027-1.8482 0.0189-3.6967 0.005-5.545 0.003-1.6526 0.0201-3.3055 0.003-4.9582 0.003-1.9054-0.0117-3.8109 0.009-5.7163-0.00002-1.9092-0.0117-3.8186 0.009-5.7278-0.00017-1.9322-0.0119-3.8644 0.009-5.7966-0.00093-2.0468-0.0129-4.0937 0.008-6.1404-0.004-2.3711-0.015-4.7424 0.004-7.1135-0.003-2.2106-0.002-4.4213 0.008-6.6319 0.008-1.879-0.0115-3.758 0.01-5.637 0.00081-1.7916-0.0108-3.5834 0.0103-5.375 0.002-1.7909-0.0117-3.582 0.002-5.3729 0.002-1.9047-0.0139-3.8094-0.008-5.714 0.00001-1.9042-0.0138-3.8084-0.008-5.7125 0.00007-1.9009-0.0138-3.8018-0.007-5.7027 0.00043-1.8822-0.0134-3.7644-0.007-5.6466 0.003-1.7997-0.0114-3.5995-0.003-5.399 0.0131-1.7063-0.005-3.4124 0.016-5.1186 0.0298-1.8841 0.0251-3.77 0.056-5.6531-0.0314-1.7458-0.20102-3.24-0.82459-4.8429-1.5054-1.477-0.75573-2.6588-1.4575-4.3975-1.0893-1.8191 0.0798-3.6475 0.23226-5.4223-0.2962-1.8041 0.0148-3.6089-0.0208-5.4128-0.0488-2.1135-0.026-4.2274-0.0997-6.3352-0.26145-2.2919-0.19072-4.573-0.51053-6.767-1.2307-1.5606-0.57069-2.941-1.5336-4.6514-1.5779-1.8819-0.34621-3.2683-1.3849-4.9662-2.1882-1.3984-0.79363-2.9358-0.96019-4.3739-1.6716-1.3608-0.95656-2.0967-2.4098-3.4564-3.3794-1.1529-1.2069-1.8643-2.7448-3.0912-3.8918-0.33258-1.4309-0.62341-2.4313-1.8096-3.4212-0.83582-1.7703-0.94517-3.3667-0.81474-5.3024-0.0137-1.5509 0.0308-3.1171-0.44938-4.6126-1.0982-1.8597-1.6239-3.9928-2.3928-6.0059-0.004-1.8734 0.0379-3.7459 0.0353-5.6194-0.0396-1.878-0.21916-3.4918-1.1444-5.1577-0.53174-1.8344-1.9009-3.4182-1.8022-5.4095 0.0184-1.7164 0.008-3.4328-0.003-5.1491 0.0274-1.8246 0.014-3.6493 0.0125-5.4739-0.005-1.9067 0.0123-3.8135 0.00011-5.7202-0.005-1.9171 0.0125-3.8342 0.00064-5.7513-0.005-1.9727 0.0138-3.9453 0.003-5.918-0.003-2.1771 0.0184-4.3542 0.007-6.5313-0.005-2.137-0.006-4.274-0.001-6.4108-0.017-1.8648-0.0115-3.7298-0.004-5.5945-0.0193-1.6588-0.009-3.3174-0.009-4.976 0.0274-1.9044-0.006-3.8096 0-5.7142 0.0274-1.9043-0.006-3.8093-0.00001-5.7137 0.0274-1.9032-0.006-3.8071-0.00007-5.7105 0.0273-1.8965-0.006-3.7938-0.00041-5.6904 0.0268-1.8617-0.006-3.7241-0.002-5.5859 0.0253-1.7438-0.008-3.4881-0.003-5.232 0.032-1.8162-0.002-3.6337 0.008-5.45-0.005-1.9046 0.0123-3.8092-0.00005-5.7138-0.005-1.9036 0.0122-3.8073-0.00039-5.7109-0.006-1.8976 0.0114-3.7952-0.003-5.6928-0.008-1.865 0.006-3.73-0.0173-5.5949-0.0189-1.7413-0.0242-3.483-0.0976-5.2233-0.0876-1.753-0.21292-3.5067-0.50902-5.2389-0.44212-1.8698-1.0479-3.6964-1.8533-5.443-0.53821-1.8482-0.38487-3.7292-0.37261-5.6481-0.0208-1.7955 0.0127-3.5901-0.004-5.3856 0.0311-2.1504-0.003-4.3016 0.01-6.4521 0.0352-2.6074-0.01-5.2155 0.023-7.8229-0.0176-2.9694-0.00014-5.9381 0.0112-8.9075 0.0513-4.1719 0.0247-8.3447-0.0152-12.517l20.216-10.301z"/>
				<path id="path3539" d="m546.87 279.05c-0.67297-3.8079-1.402-7.6114-1.8614-11.452-0.56546-2.4614-1.5105-4.7535-2.7003-6.9568-0.77964-1.4383-1.7548-2.6325-2.8203-3.8268-0.79897-1.6593-0.9724-3.423-1.0263-5.2325-0.27961-1.7376-1.0891-3.356-2.1655-4.7332-1.5588-0.88488-1.8538-2.9142-3.0328-4.0273-1.0163-1.5446-1.9766-3.1449-2.4838-4.93-0.68166-1.3621-1.0823-2.7682-1.7613-4.15-1.3593-1.0455-0.90668-3.265-2.2678-4.1938-0.70295-1.7318-1.8152-1.7564-3.05-2.856-1.1726-1.0866-2.3655-1.7929-4.0332-1.8186-1.6212-0.31539-2.7171-1.832-4.2494-2.5768-1.6296-0.14412-3.2582-0.25277-4.9011-0.3251-1.8268-1.12-3.2865-1.9993-5.3478-2.4866-2.1527 0.22025-3.1234-1.8274-4.8789-2.4834-1.7186-0.52255-3.5981-0.17947-5.0431-1.2776-1.4247-1.1874-2.5913-1.959-4.4823-2.0861-1.9882 0.0383-3.5418-0.4705-5.3588-1.1568-1.6796-0.9327-3.6078-1.3662-5.507-1.5639-1.854-0.28616-3.7423-0.32379-5.6159-0.36682-1.7824-0.0506-3.5656-0.0416-5.3483-0.0625-1.7419-0.005-3.4839 0.007-5.2257-0.0125-2.1054 0.008-4.2108-0.0119-6.3161 0.00077-1.9386 0.002-3.8772 0.007-5.8158-0.004-1.9376 0.007-3.8753 0.012-5.8129 0.00067-1.9486 0.0194-3.8972-0.008-5.8458 0.005-2.0896 0.003-4.1794-0.0181-6.2688 0.001-1.9605 0.005-3.9213-0.017-5.8818 0.002-1.9155 0.004-3.8312-0.0178-5.7466 0.00035-1.9065 0.004-3.8132-0.0179-5.7196 0.00006-1.905 0.004-3.8102-0.018-5.7151 0.00001-2.0927-0.016-4.1856-0.002-6.2783-0.005-2.0021 0.002-4.0042-0.003-6.0063-0.00074-1.9423 0.005-3.8847-0.00089-5.827 0.00096-1.9124 0.004-3.8248-0.001-5.7373 0.00025-1.7106 0.0155-3.4214-0.01-5.1318 0.008-1.6558 0.19751-3.851-0.58204-5.1894 0.50894-1.7593 1.0368-3.7469 1.2806-5.6746 1.8133-2.0254 0.25447-4.0602 0.36827-6.1006 0.42545-1.9861 0.0614-3.9736 0.0511-5.96 0.0948-1.8808 0.0112-3.7616-0.001-5.6424 0.001-2.0536 0.006-4.1072 0.001-6.1607 0.004-1.9443 0.005-3.8887-0.00048-5.833 0.001-2.0354 0.005-4.0707-0.008-6.1061-0.00042-2.0398-0.001-4.0796-0.005-6.1194 0.003-1.9358-0.002-3.8717-0.006-5.8076 0.00096-1.9102-0.002-3.8205-0.007-5.7308 0.00018-1.9056-0.002-3.8112-0.007-5.7169 0.00004-1.694 0.006-3.388-0.001-5.082-0.00088-1.9738 0.005-3.9473-0.0113-5.9211-0.003-1.1535 0.34543-2.8214-0.48086-3.9199 0.005-0.22057 0.0976-0.29832 0.37908-0.44749 0.56863-0.34531 0.10546-0.69062 0.21092-1.0359 0.31638-1.673 1.0625-3.6133 1.1064-5.4064 1.9555-1.6808 0.30811-3.3963 0.17035-5.0938 0.11681-1.1928 1.189-2.6359 1.7102-4.2153 2.1048-1.8108-0.0519-3.4864 0.94076-5.1804 0.97278-2.118-0.0654-4.2354-0.14612-6.3534-0.21195-1.6899 0.3188-3.2654 1.3268-5.024 1.8296-8.8403 2.7606 24.309-13.372 18.044-10.385-16.2 7.7243-13.351 11.426-22.875 11.423 23.008-12.568 28.267-15.651-1.2564 1.3677-0.29303 0.16892-5.1771 2.2238-2.6405 0.75389 6.1999-3.5927 12.494-7.0193 18.742-10.529-6.4701 5.9191-10.865 6.7115-21.745 12.949-6.1636 3.5336 12.321-7.0784 18.485-10.612 0.53823-0.30854-1.0403 0.70309-1.4442 1.1739-1.1987 1.4019-2.6323 2.6416-3.367 4.3861-0.73495 1.4126-0.91167 2.9572-1.2311 4.49-0.67516 1.8757-1.6843 3.5994-2.4778 5.4219-0.32133 1.8708-0.4713 3.4006-1.4701 5.0372-1.0669 1.1634-1.372 2.5412-1.6455 4.0393 0.12413 2.06-1.0099 3.3532-2.012 4.9852-0.76976 1.3237-0.89761 2.9805-0.98457 4.4887-0.17546 1.7424 0.15521 3.519-0.56828 5.1387-0.6199 1.7261-1.5042 3.3352-2.1525 5.041-0.16298 1.8983-0.52605 3.6527-1.7037 5.2036-1.032 1.2095-1.1208 2.7329-1.2682 4.2528 0.26853 2.0947-0.66846 3.5201-1.5706 5.2362-0.82149 1.991-1.4144 3.1894-3.2105 4.4578-1.2674 0.89605-2.2114 1.7737-2.8888 3.1567l-20.714 9.4696c0.68052-1.6272 0.8884-3.2122 2.5446-4.1578 1.8711-1.7439 3.1076-0.89405 3.439-3.7165 0.35428-0.49889 0.4151-1.1795 0.80899-1.6478 0.91825-1.0916 1.4971-0.46348 1.269-2.5971 0.0463-1.7511 0.0493-3.709 0.74041-5.3181 0.91334-1.5825 2.2727-2.3519 2.1195-4.3801 0.10046-2.0286 1.0671-3.6156 1.9692-5.4047 0.10285-0.33637 0.2057-0.67274 0.30856-1.0091 0.15265-0.0588 0.3816-0.0317 0.45795-0.17636 0.47233-0.89499-0.29892-2.3849 0.0744-3.3355 0.11224-1.8019 0.20648-3.5954 0.5511-5.376 0.73779-1.5547 2.2044-2.6475 2.3775-4.2184 0.11869-1.7122 0.27596-3.6117 1.2048-5.081 1.423-1.7004 1.7448-1.8684 1.7814-4.3092 0.34304-2.0844 1.6159-3.7252 2.3517-5.669 1.0366-1.2827 0.35239-3.0882 1.2392-4.492 0.69495-1.7246 1.3408-4.1375 3.0894-5.0005 6.9666-8.8635-15.6 6.3692 21.648-13.711 6.3264-3.4106-12.466 7.1582-18.658 10.807-0.53332 0.31426 2.3334-0.87355 1.5894-0.96048 6.7799-3.9761 13.536-7.9938 20.34-11.928 18.05-10.437-61.989 36.172 4.2284-1.7298 0.70266-0.0913 2.6785-0.85365 2.0672-0.49537-6.2274 3.6498-25.329 13.804-18.756 10.823 39.021-17.696 12.245-8.8987 21.145-11.803 1.8275-0.66525 3.4705-1.5757 5.4976-1.2016 2.0205 0.0685 4.0765 0.21823 6.0725-0.16932 1.6107-0.61363 3.4106-0.49072 4.9993-1.2329 1.5391-0.63016 2.9083-1.7767 4.6804-1.516 1.5531-0.005 3.1014-0.0718 4.5263-0.76975 1.8624-0.56281 3.6681-1.1594 5.4686-1.8914 1.8446-0.68233 3.9015-0.14493 5.8567-0.30475 1.9767 0.008 3.9532-0.009 5.9298-0.003 1.6948 0.0006 3.3896-0.007 5.0844-0.00088 1.9056 0.007 3.8112 0.002 5.7168 0.00003 1.9101 0.007 3.8202 0.002 5.7302 0.00019 1.935 0.007 3.87 0.003 5.8049 0.00095 2.0372 0.008 4.0744 0.004 6.1116 0.003 2.0358 0.007 4.0716-0.005 6.1074-0.00053 1.9432 0.002 3.8864-0.004 5.8296 0.00058 2.0512 0.002 4.1024-0.003 6.1535-0.002 1.8857-0.002 3.7713-0.0168 5.6568-0.0387 1.9635 0.001 3.9279-0.0596 5.8891-0.14672 1.9607-0.13277 3.9438-0.24605 5.841-0.79932 1.9352-0.44337 3.7028-1.3696 5.6155-1.8926 1.8651 0.0444 3.7313 0.009 5.5968 0.0138 1.7036 0.0177 3.4074-0.008 5.111 0.008 1.9122 0.002 3.8244-0.004 5.7366 0.00024 1.9415 0.002 3.8829-0.004 5.8244 0.00097 2.0028 0.002 4.0056-0.002 6.0083-0.00075 2.097-0.003 4.194 0.0113 6.291-0.005 1.9049 0.0185 3.8101-0.004 5.715 0.00001 1.9063 0.0185 3.813-0.004 5.7194 0.00006 1.9151 0.0186 3.8304-0.004 5.7456 0.00036 1.959 0.019 3.9184-0.004 5.8775 0.002 2.0882 0.02 4.1767-0.002 6.2649 0.001 1.9439 0.0136 3.8879-0.0145 5.8318 0.005 1.937-0.0111 3.874-0.007 5.811 0.00075 1.9422-0.0109 3.8844-0.006 5.8266-0.003 2.1036 0.0135 4.2074-0.006 6.311 0.005 1.7468-0.0159 3.4939-0.00095 5.2406 0.017 1.7922 0.002 3.585 0.0466 5.3756 0.11996 1.9366 0.086 3.8766 0.22222 5.7815 0.60093 1.9813 0.42138 3.8947 1.058 5.7375 1.9026 1.6839 0.55599 3.4629 0.41704 5.184 0.87074 1.8279 0.54635 3.2784 1.6003 4.8706 2.6071 1.7588-0.006 3.4875 0.61942 5.0653 1.3403 1.4868 1.0225 2.6977 1.8326 4.5699 2.0258 1.8193 0.55197 3.1949 1.9569 5.0963 2.1039 1.8757 0.15391 3.7752 0.31959 5.487 1.1711 1.2494 0.79748 2.2212 1.9438 3.7772 1.9408 1.7643 0.50921 3.2749 1.6074 4.6907 2.7632 1.2872 0.85632 2.4452 1.5904 3.1473 3.0478 1.3558 1.5123 1.5071 3.2617 2.6783 4.8667 0.76909 1.5587 1.223 3.0508 1.9829 4.5743 0.30765 1.4856 1.1651 2.8058 2.01 4.0473 1.0323 1.3995 1.6552 2.9902 3.0606 4.1392 1.3019 1.823 2.2766 3.7715 2.8505 5.9494 0.0257 1.2723 0.057 2.5387 0.26564 3.7934 1.257 1.3311 2.0731 2.8601 3.0956 4.3653 1.2055 2.4946 2.3408 4.9978 2.9964 7.7245 0.42712 3.8049 1.0322 7.5919 1.8445 11.334l-20.041 10.632z"/>
			</g>
		</g>
	</g>
	<g id="layer13" stroke="#000" fill="none">
		<path id="path8467" d="m511.43 468.57c38.601 24.256 161.76-15.38 165.71-11.429 3.853 3.853 30.836-16.551 34.286-20 23.109-23.109 2.8571-109.64 2.8571-154.29 0-13.378 1.3918-85.714-2.8571-85.714-8.8776 0-14.809-17.143-20-17.143-22.192 0-60.717-17.143-77.143-17.143-26.037 0-94.987 7.8704-114.29-11.429-16.448-16.448-129.94 27.206-140 17.143-23.32-23.32-83.985 2.8571-94.286 2.8571-36.489 0-137.14-1.8468-137.14 20 0 2.8571-8.5714-2.8571-8.5714 0 0 6.47-40.351 48.57-45.714 48.57-7.8511 0 8.5136 74.401 0 91.429-15.405 30.809-8.5714 48.281-8.5714 74.286 0 154.77 78.284 8.9519 240 62.857 14.072 2.2751 6.0464-45.714 14.286-45.714 17.614 0 49.404-14.286 68.571-14.286 17.629 0 42 2.8571 57.143 2.8571 7.3188 0 42.857-3.5483 42.857 5.7143 0 43.581 44.494 117.14-51.429 117.14-101.72 0-120-4.6562-120-54.286 0-6.9334-9.5603-14.231-5.7143-20" stroke-width="30"/>
		<g stroke-width="10">
			<path id="path8469" d="m334.29 471.43c12.234-18.971 16.295-42.009 28.571-54.286"/>
			<path id="path8471" d="m340 511.43c37.278-36.033 51.972-64.486 60-88.571"/>
			<path id="path8473" d="m354.29 520c41.921-22.895 52.649-93.74 88.571-105.71"/>
			<path id="path8475" d="m408.57 520c27.205-15.175 27.661-64.155 60-85.714"/>
			<path id="path8477" d="m448.57 522.86c19.444-18.021 31.265-31.265 40-40"/>
		</g>
		<path id="path8479" d="m234.29 168.57c7.8393-12.859-10.889-57.413 28.571-77.143 28.67-14.335 109.54-0.9714 120-11.429 8.5124-8.5124 31.785 2.5008 37.143-2.8571 13.667-13.667 34.286 4.2529 34.286-2.8571 0-5.7143 11.429 0 17.143 0 3.2805 0 22.857-2.0362 22.857 2.8571 0 3.8095 11.429-3.8095 11.429 0 0 3.9168 24.052 14.286 25.714 14.286 9.1054 0 22.857 47.418 22.857 65.714" stroke-width="30"/>
		<path id="path8481" d="m108.57 480c1.262 71.147 2.8571 128.86 2.8571 185.71 0 9.8316 20 23.382 20 28.571 0 2.8855 1.9399 14.286 2.8571 14.286 55.058 0 149.75-8.5714 194.29-8.5714 12.755 0 113.59 9.2666 120 2.8571 4.1732-4.1732 210.36-4.6411 217.14-11.429 25.88-25.87 30.84-176.06 14.29-225.72" stroke-width="30"/>
	</g>
</svg>
