<?xml version="1.0" encoding="UTF-8" standalone="no"?>
<!-- Created with Inkscape (http://www.inkscape.org/) -->
<svg id="user" class='header-nav-btn' xmlns:rdf="http://www.w3.org/1999/02/22-rdf-syntax-ns#" xmlns="http://www.w3.org/2000/svg" height="800" width="800" version="1.1" xmlns:cc="http://creativecommons.org/ns#" xmlns:dc="http://purl.org/dc/elements/1.1/" viewBox="0 0 800.00001 800.00001">
	<metadata id="metadata4837">
		<rdf:RDF>
			<cc:Work rdf:about="">
				<dc:format>image/svg+xml</dc:format>
				<dc:type rdf:resource="http://purl.org/dc/dcmitype/StillImage"/>
				<dc:title/>
			</cc:Work>
		</rdf:RDF>
	</metadata>
	<g id="layer1" transform="translate(0 -252.36)" display="none">
		<rect id="rect5720" height="800" width="800" y="252.55" x="5.5238" fill="#808080"/>
	</g>
	<g id="layer10" transform="translate(0 -252.36)">
		<path id="path8445" stroke-linejoin="round" d="m85.333 460.36c45.937-35.69 200.41-133.33 216-133.33 3.2049 0-3.9 5.1334-5.3333 8-8.8223 17.645-28.232 44.232-42.667 58.667-20.84 20.84-68.704 134.74-85.333 168-12.034 24.068-17.685 43.861-29.333 61.333-5.5654 8.3481-16 34.905-16 34.667 0-2.1451 47.03-65.696 53.333-72 43.023-43.023 79.62-76.381 120-106.67 36.01-27.007 66.216-66.366 106.67-93.333 10.9-7.2666 43.134-36.866 45.333-34.667 4.3251 4.3251-29.089 28.355-29.333 29.333-0.68175 2.727 4.2259 5.6612 2.6667 8-7.956 11.934-35.229 27.511-45.333 42.667-8.0448 12.067-89.22 139.66-90.667 144-18.516 55.549-58.38 128.9-88 173.33-10.747 16.12-22.955 39.531-29.333 58.667-2.0265 6.0794-8.0062 13.327-8 13.333 6.3164 6.3164 106.06-127.39 117.33-138.67 48.961-48.961 99.531-104.86 146.67-152 9.0897-9.0897 38.242-19.575 50.667-32 14.565-14.565 24.58-27.247 40-42.667 13.801-13.801 24-12.209 24-21.333 0-0.76523-0.14242 22.845-16 42.667-28.79 35.97-44.72 76.24-66.68 114.67-53.16 93.04-105.04 205.19-125.33 306.67-2.8587 14.293-16 28.276-16 42.667 0 1.7262 33.439-38.772 40-45.333 22.798-22.798 39.732-45.154 72-66.667 45.088-30.059 218.43-192 232-192 4.917 0-29.381 26.81-40 58.667-6.4224 19.267-71.886 245.45-53.333 264 11.427 11.427 82.934-72.535 88-82.667 9.5864-19.173 47.252-49.919 64-66.667" stroke="#fff" stroke-width="90" fill="none"/>
	</g>
	<g id="layer11" transform="translate(0 -252.36)" display="none">
		<path id="path5716" d="m327.18 455.42c-4.1053 0.59192-8.2854 1.056-11.806 3.3899-1.4832 1.3016-3.7168 0.68492-5.3341 1.4433-0.63898 0.29965-1.1216 0.8695-1.7477 1.1951-12.489 3.4326 33.457-19.115 19.511-11.027-8.4831 4.9198-17.017 9.7521-25.525 14.628 7.7432-4.4189 15.433-8.9325 23.23-13.257 0.47639-0.26423-0.7714 0.78806-1.2425 1.0616-8.5163 4.9459-17.054 9.8588-25.695 14.583-7.73 4.2257 15.268-8.794 22.961-13.088 0.0992-0.0554-1.9788 1.58-2.0183 1.6112-29.595 17.324-36.714 21.423-2.1853 1.4663 0.33267-0.19227-0.67734 0.36386-1.005 0.56451-0.8313 0.50902-1.2492 1.0563-1.8524 1.7881-78.856 49.12 17.03-13.611-4.7067 3.8388-1.1392 1.926-2.9277 3.0692-4.3202 4.8008-1.6115 1.3219-2.749 3.0623-3.7914 4.8433-1.2625 1.5784-3.0285 2.9782-4.1025 4.6704-0.8689 1.9207-2.9025 3.1082-3.7268 5.0246-0.78847 2.1043-2.4405 3.6512-3.1626 5.8014-1.3528 1.7509-2.4197 3.1551-3.1925 5.2908-1.391 1.5553-2.1914 3.4659-2.6102 5.4943-0.36476 2.2365-0.63828 4.4059-1.4988 6.5168-1.6578 1.9978-1.5699 4.7477-1.9534 7.1929-0.73987 2.4617-1.5838 4.8708-2.1615 7.3755-0.42885 2.1874-0.42298 4.4386-0.9792 6.5981-0.26903 2.0626-0.14498 4.1596-0.059 6.2324 0.08 2.109 0.0844 4.2186 0.13716 6.3281 0.01 2.0383 0.005 4.0764 0.0389 6.1146-0.0159 2.1452-0.0178 4.2905-0.0117 6.4358-0.0401 2.8758-0.0331 5.7526-0.008 8.6286-0.009 2.4665-0.0159 4.9334 0.0194 7.3998-0.009 2.0418-0.0207 4.0838 0.008 6.1256-0.0246 2.1 0.004 4.1995-0.0296 6.2996 0.009 2.0725 0.0438 4.1458 0.007 6.2182 0.25783 1.4955-0.48234 3.3248 0.28512 4.6893 0.93688 1.4216 2.0051 2.6507 3.0394 4.0128 1.0948 1.7322 2.2117 3.4368 3.2959 5.1779 0.87356 1.7952 1.7675 3.4368 3.0185 4.9656 0.90604 1.9403 2.3062 3.5932 3.92 5.0232 1.0836 2.1758 2.7844 3.8792 4.2417 5.8025 0.90919 1.8275 1.4102 4.1564 2.96 5.5718 1.2933 1.4286 1.5 3.3971 1.9638 5.1926 0.78386 1.2477 1.9333 1.9278 2.7146 3.1255 1.4882 0.8412 2.1317 2.4655 3.248 3.6877 1.3187 1.1355 2.5976 3.1303 3.6465 4.6789 1.0331 1.4938 2.4687 2.0646 3.4285 3.6747 1.0423 1.1293 2.065 2.0546 2.9443 3.4728 1.7316 0.0541 2.2113 1.6736 3.4164 2.6497 1.6274 0.41871 2.5817 1.7735 3.8475 2.7773 1.4599 0.43451 0.97977 3.5055 2.381 3.279 1.536 0.53828 2.2853 2.215 3.8366 2.6932 2.0074 0.0434 2.6173 2.8603 4.3166 3.1309 1.6879 0.22617 2.6914 1.2485 4.2053 1.9845 1.8174 0.70196 3.0988 1.4447 5.1016 1.4511 2.0323-0.49504 3.0428 1.3174 4.833 1.7341 1.2412 0.77202 2.636 0.81323 4.0632 0.8945 1.8962-0.1249 3.1408 0.24676 4.7085 1.2756 1.3662 0.98017 3.1666 1.1114 4.7991 1.397 1.6 0.90197 3.0119 2.925 4.9274 2.8674 2.3589-0.50334 3.6971 1.7155 5.5988 2.1158 1.6362 0.76443 3.4323 0.84312 5.208 0.94214 1.9025 0.0889 3.8063 0.11398 5.7106 0.13348 1.8302 0.0136 3.6604 0.027 5.4907 0.0104 1.7161 0.01 3.4322 0.019 5.1483 0.004 1.852 0.0111 3.7042 0.0184 5.5563 0.002 1.8948 0.0101 3.7897 0.0173 5.6845 0.00045 1.6562-0.23171 4.2844 0.73173 5.4453-0.59512-0.51452 0.87115 3.9693-1.8891 2.7553-1.1949-7.8366 4.4809-31.933 16.696-23.517 13.429 18.704-7.2608 18.898-7.5817 26.266-14.925 1.7695-0.99173 3.5935-1.7447 5.6156-1.9073 1.5806-0.42882 3.2629-0.46631 4.9025-0.42607 1.3187-1.3569 3.3204-2.1062 5.2189-2.2177 1.0983-0.76096 2.7804 0.048 3.8711-0.51429 0.66884-0.34483 1.1452-0.99512 1.8071-1.3531 1.5994-1.2381 3.2449-1.2163 5.1107-1.5683 1.4909-1.3965 3.6152-1.9612 5.5364-2.662 19.058-13.898-77.679 47.489 3.4004-2.0054 7.6445-4.6665-31.25 17.504-23.295 13.389 8.7382-4.5196 17.097-9.737 25.646-14.606 10.072-6.4088-30.056 16.653-22.361 12.828 8.7004-4.3245 16.807-9.7563 25.311-14.455 0.37223-0.20567 1.623-0.43859 1.256-0.22377-44.751 26.194-30.406 17.456-22.615 12.702 80.594-48.675-14.844 11.488 5.3062-3.4618 13.849-8.6899 53.23-31.116 2.8872-2.1193-0.58235 0.33542 1.0597-0.86267 1.4234-1.4278 66.36-38.534 1.9908-1.0766 1.5008-0.79346-0.21092 0.12191 0.40819-0.27057 0.58482-0.43836 0.84959-0.80708 1.2142-1.6535 2.2713-2.2183 1.3475-0.52572 1.2097-1.9336 1.9612-2.8593 0.32293-0.3978 0.91997-0.46487 1.3262-0.77713 1.0522-1.3824 2.1705-2.6885 3.2303-4.1097 0.84652-1.4717 2.2877-2.5798 3.36-3.9016 0.57578-1.828 2.0225-2.8753 3.0956-4.4372 1.2737-1.4363 2.5612-2.8196 3.7599-4.3381 1.6408-0.85226 2.0104-2.276 2.8937-3.721 1.2478-1.2326 2.266-2.3182 2.7291-4.0338 0.84948-1.5032 1.7656-2.8526 2.4352-4.4604 1.5066-1.5509 2.1506-3.8325 3.5875-5.3846 1.602-1.1981 1.5474-3.4393 3.357-4.353 1.3042-1.1389 1.5774-2.6655 3.0157-3.6838 1.2307-0.99562 1.624-2.5733 2.8661-3.5403 1.4178-1.007 1.6623-2.6666 2.7663-3.9717 1.3189-0.9891 1.8076-2.3084 2.0905-3.8672 0.78167-1.7392 2.041-3.0448 2.5588-4.8899 0.29538-1.9525 1.0796-3.712 2.2658-5.2832 0.97691-1.6606 0.90689-3.6224 1.4926-5.4174 0.75789-1.8305 1.8463-3.3803 2.2188-5.3479 0.25381-1.6184 0.28196-3.2557 0.3336-4.889 0.0305-1.8142 0.0179-3.6287 0.0358-5.443-0.009-2.0923 1.0769-3.8879 1.6804-5.8359 0.5893-1.7609 0.7886-3.6316 0.92275-5.4766 0.15473-1.8783 0.19811-3.7664 0.20247-5.651 0.0396-1.9003 0.0563-3.8017 0.035-5.7026 0.12498-1.6539-0.78224-3.1228-1.3712-4.6264-0.54213-1.6263-0.82677-3.1794-1.9585-4.5174-1.2429-1.8684-1.8548-4.1055-3.215-5.9024-0.87535-2.1337-1.8717-4.2042-2.8672-6.2884-1.2905-1.4181-1.5522-3.4417-1.9514-5.2502-0.76497-1.935-1.836-3.7018-2.3736-5.7142-0.30514-2.0265-1.5101-3.7098-2.2525-5.5655-0.65196-1.665-1.6314-3.1303-2.4034-4.7696-1.1812-0.97758-1.37-2.8371-1.9257-4.241-0.97677-1.7988-1.7269-3.6887-2.5642-5.5539-1.1404-1.6204-2.2282-3.0759-3.608-4.4778-0.84922-1.5468-1.8943-2.8916-3.1691-4.101-0.73704-1.3925-2.1154-2.1032-3.2214-3.1284-1.2913-1.2567-1.9455-2.9327-3.3336-4.0658-1.0261-1.5695-1.5301-2.853-3.256-3.6265-1.3218-0.8432-1.5732-2.2016-3.0592-2.9006-1.7541-0.47095-2.9001-2.0983-4.6788-2.7584-2.1669-0.35474-3.213-0.32147-4.6231-2.2463-1.7961-0.32174-2.5385-1.912-3.9192-2.8603-1.97-0.51874-3.204-1.1678-4.7668-2.5573-2.001-0.24509-2.8204-2.2522-4.4677-2.9718-2.133-0.65873-3.2222-2.6804-5.1858-3.5707-2.0463 0.1817-2.3127-2.2842-4.0687-2.6828-1.7571-0.49054-2.9061-2.0361-4.4883-2.8959-2.0159-0.25312-3.668-0.64309-5.4278-1.6568-1.8361-0.98439-3.9719-0.96765-5.6873-2.0957-2.1256 0.31529-3.7751-0.51208-5.6613-1.3567-1.7929-0.61953-3.6467-0.85991-5.5191-1.0779-1.9575 0.40031-3.9073-0.7761-5.714-0.69158-1.556-0.1261-2.9158-1.3861-4.559-1.7039-1.5852-0.40339-3.2238-0.47449-4.8488-0.59682-2.2243-0.14905-4.1078-0.53679-6.3559-0.42964-2.1451 0.19171-4.2985 0.16563-6.4491 0.23454-2.0687 0.0602-4.1389 0.0376-6.2082 0.0657-2.1431-0.002-4.2864-0.005-6.4295 0.0166-2.226-0.0341-4.4521 0.01-6.6781-0.0145 0.37728-1.3551-2.1603 0.87087-1.65 0.58721 7.9541-4.4217 30.935-19.045 23.759-13.448-8.2629 6.4444-17.114 14.452-27.573 15.1-2.0306 0.59525-3.7194 2.1681-5.9561 2.4409-2.0495 0.87753-4.6866 0.0911-6.4992 1.3721-1.9578 0.31976-4.2936-0.77831-6.0063 0.34155-0.36554 0.25567-0.70362 0.55596-1.0966 0.767-0.13259 0.0712-1.8118 0.67603-2.0523 0.76136-0.53131 0.18852-2.1454 0.61815-1.6578 0.33518 7.8318-4.545 15.793-8.8634 23.69-13.295-84.526 49.568 53.585-31.392-29.157 17.763 7.743-4.4718 15.43-9.0413 23.229-13.415 0.67055-0.37609-0.88596 1.3173-1.5459 1.7117-8.392 5.0154-16.902 9.8306-25.363 14.729-0.28649 0.16587-1.1647 0.62957-0.87849 0.46324 7.8548-4.5645 15.723-9.1054 23.585-13.658-15.467 10.465-54.894 31.901-5.1865 3.5352-80.842 49.29 15.504-12.015-4.5368 2.8604-0.88621 2.1048-3.12 3.3127-4.6918 4.949-1.4612 1.6782-3.0071 3.3619-4.7978 4.699-8.3096 7.7416-18.832 14.167-29.466 17.973 32.123-35.873 28.998-15.883 20.03-10.605-1.2881 1.2174-3.2621 1.8155-4.3449 3.1204-0.96703 1.6242-2.715 2.5325-4.1103 3.7826-1.0328 1.5091-2.7516 2.8163-3.769 4.3964-0.0873 0.14199-0.17451 0.28398-0.26176 0.42597l-26.48 10.565c0.14245-0.0344 0.2849-0.0688 0.42735-0.10319 0.14988-0.0901 3.3849-3.0007 3.4557-3.1359 0.22078-0.42187 0.18766-0.93363 0.28149-1.4004 1.3503-1.2164 2.4994-2.8965 4.3833-3.1917 0.32898-0.55975 0.41467-1.2433 0.7587-1.794 0.62769-1.0047 2.6952-1.1178 3.1765-2.321 0.71359-0.52361 1.6962-0.68823 2.3538-1.2172 0.0951-0.0765 1.1183-1.416 1.2457-1.5814 8.3728-4.8719 16.746-9.7438 25.118-14.616 7.5174-4.2587-14.705 9.0828-22.222 13.342-0.67031 0.37983 0.78819-1.412 1.4572-1.7941 0.33261-0.18998 0.71799-0.26716 1.077-0.40074l0.69125-0.42825c1.1714-1.8546 3.2097-3.0963 4.8662-4.511 1.0948-1.7119 3.0057-4.1653 4.9271-4.3764 0.30116-1.7913 0.53106-1.983 2.0074-2.8557 8.4-4.9654 17.209-9.2972 25.195-14.905 7.3371-5.1524-15.495 9.0229-23.243 13.534 8.3773-4.8406 16.751-9.6882 25.132-14.522 0.26868-0.15496 1.0837-0.60359 0.81772-0.44401-7.707 4.624-15.32 9.4091-23.141 13.838-0.34436 0.19499 2.4231-3.0324 2.505-2.0939 8.313-4.9526 16.615-9.9235 24.939-14.858 9.9177-5.8789-30.526 19.808-21.354 12.684 0.30364-0.23584 0.44675-0.65221 0.77237-0.85664 8.2982-5.2098 16.707-10.241 25.06-15.362-60.935 36.416 1.8501-1.3415 2.5129-2.0699 6.1143-6.719-15.692 9.1588-23.572 13.68-0.57092 0.32758 2.3332-1.8231 1.7434-0.92728 5.8934-3.4018 19.67-13.49 30.113-16.397 1.9482 0.11119 4.0021 0.25826 5.828-0.55258 2.2192-0.15023 4.4107-0.59187 6.5116-1.3269 1.9149-1.0647 3.909-1.9531 6.0758-2.2767 0.63966-0.2903 2.5173-1.2419 1.9134-0.88299-7.74 4.5999-31.326 17.734-23.265 13.724 30.6-15.223 15.279-14.821 27.211-14.552 2.2398-0.0245 4.4798 0.0173 6.7196-0.0201 2.1346 0.0164 4.2695 0.005 6.4039-0.0167 2.055 0.00069 4.1096-0.0543 6.1639-0.0975 2.1576-0.0381 4.3104-0.20765 6.4687-0.18572 2.2173 0.0658 4.3523 0.67542 6.5884 0.6365 1.7536 0.21899 3.505 0.48427 5.1714 1.1015 1.4361 0.60557 2.7481 1.3385 4.2908 1.317 1.8445 0.54911 3.8256 0.27487 5.7145 0.69228 2.0221 0.3535 4.0132 0.85687 5.9086 1.661 1.8966 0.7102 3.932 0.5711 5.7608 1.5136 1.9767 0.47306 3.8692 1.1981 5.6915 2.0993 1.8463 0.72675 3.9851 0.68413 5.6317 1.9682 1.3707 1.0594 2.7964 1.9205 4.3509 2.6729 1.4493 1.0648 2.3381 2.2819 4.1313 2.771 1.7547 1.2395 3.237 2.8319 5.2431 3.7209 1.5075 1.2428 3.0202 2.1747 4.6704 3.229 1.3945 1.1201 3.4837 1.0877 4.7322 2.5224 1.3446 1.2485 2.8184 2.1288 4.2154 3.3146 1.2974 0.21177 2.7675 0.50803 3.9732 1.2254 1.6568 0.9716 3.076 2.287 4.8763 2.9995 1.1635 0.87783 1.793 2.1502 3.0078 2.8326 1.6007 1.1254 2.5397 2.581 3.5784 4.1806 1.1923 1.2454 2.0131 2.7225 3.2667 3.9207 1.2463 0.94591 2.3331 2.0591 3.2973 3.2933 1.2693 1.2325 2.27 2.6832 3.2191 4.17 1.5961 1.6353 2.7551 3.4967 4.0721 5.3556 0.88535 1.9156 1.625 3.8115 2.6414 5.6601 0.61211 1.5063 0.83424 2.8965 1.8884 4.116 0.7545 1.7252 1.8903 3.2106 2.4629 4.9911 0.5896 2.0201 2.2806 3.7242 2.4527 5.9047 0.23013 1.9878 1.662 3.6112 2.2693 5.5085 0.59614 1.6736 0.47399 3.5049 1.7607 4.8788 0.88598 1.9446 1.9299 3.8091 2.5778 5.8443 1.2592 1.8155 2.1071 3.8638 3.1589 5.7879 1.2222 1.6188 2.0155 3.2677 2.4227 5.2468 0.6708 1.8151 1.7745 3.6088 1.8712 5.5405-0.0299 1.9113-0.0231 3.8227-0.0193 5.734-0.0521 1.9402-0.0687 3.8793-0.11915 5.8191-0.18071 2.0398-0.32662 4.0618-0.63397 6.0864-0.61471 1.7664-0.84354 3.5627-2.095 5.0361 0.0143 1.8239-0.00077 3.648-0.0106 5.4719 0.005 1.7376-0.0144 3.4798-0.18384 5.2102-0.21665 2.2335-0.48498 4.1997-1.9179 5.9971-0.94066 1.818-1.0946 3.5484-1.414 5.5759-0.55104 1.7296-2.1581 2.901-2.5264 4.6794-0.38795 2.1755-0.76318 3.9148-2.2514 5.5251-1.3013 0.87201-0.48229 3.4919-1.7721 4.6922-1.6924 1.4365-2.0529 1.748-2.7532 3.9315-0.92849 1.2297-2.5193 1.6787-2.9086 3.4556-1.008 1.6191-2.6317 1.4394-3.0099 3.7168-0.86963 1.6726-3.0038 1.2129-3.3618 4.3567-0.45095 0.48567-1.2108 0.6061-1.6616 1.0919-0.95359 1.0275-0.26983 3.2748-2.1928 3.6764-1.0591 1.3692-1.0472 3.2431-2.4537 4.3768-1.2176 1.1528-0.61563 3.7533-2.4521 4.6413-1.688 1.2997-1.3106 2.6185-2.7597 4.1563-1.7913 0.86475-2.2183 2.8537-3.9923 3.7366-0.55413 0.65647-1.3438 2.6731-2.034 3.0353-0.29971 0.15728-0.75903-0.27757-1.0139-0.0549-0.27866 0.24348-0.11831 0.73057-0.17747 1.0959-0.76425 1.8968-2.2528 2.7532-3.1297 4.3999-0.64619 0.65862-1.0399 1.7648-1.611 2.3266-0.88782 0.87339-1.5213 0.0319-1.5976 1.8703-0.3438 0.51477-0.44581 1.3372-1.0285 1.5463-0.33306 0.11948-0.68631-0.34251-1.0298-0.25757-0.82227 0.20333-0.28433 2.2435-1.169 2.5669-1.5761 2.2905 0.45072-0.17893-1.7247 1.104-0.30085 0.17742-0.42142 0.55708-0.63213 0.83563-0.15361 0.25455-0.20792 0.60737-0.46083 0.76366-16.098 9.9484-48.768 28.751-1.3516 1.2496-3.5385 0.16766 1.1974-0.41014-1.4578 1.2346-8.2052 5.0826-16.696 9.6889-25.04 14.54-0.23695 0.13775-0.9375 0.56835-0.70296 0.42653 7.7353-4.6773 15.354-9.553 23.205-14.033 0.32334-0.1845-0.28221 0.68898-0.42332 1.0335-12.139 11.103-56.536 31.656-5.1972 3.8224-9.0943 5.8331-1.3282 0.87587-26.308 14.992-0.33919 0.19168-1.3766 0.72956-1.0398 0.53382 48.125-27.965 13.359-7.4525-2.8887 1.6098 60.535-34.985-1.3361 0.78858-2.3702 1.3155-8.0767 4.1154 31.186-18.489 23.513-13.662-11.217 7.0564-17.187 11.694-27.126 15.422-1.9331 0.79498-3.7542 2.0292-5.8325 2.3166-1.6661 0.39787-3.0187 1.3494-4.5881 2.0442-1.9334 0.8569-4.0642 0.73031-6.0958 1.4199-1.749 0.83665-3.6031 1.8822-5.5604 1.7897-1.5609 0.19154-3.0859 0.39291-4.6033 0.82165-1.777 0.71017-3.4664 1.5768-5.1149 2.5558-8.3826 2.1635 29.937-17.398 22.348-13.233-13.274 7.2849-17.509 12.309-28.229 15.485-1.9837-0.20502-3.982-0.0769-5.9739-0.1-1.8952-0.0173-3.7905-0.009-5.6857 0.00025-1.854-0.0169-3.7081-0.009-5.5621 0.00066-1.7205-0.0165-3.4408-0.008-5.1613-0.006-1.8284-0.0307-3.6568-0.0274-5.4852-0.064-1.9556-0.0492-3.9128-0.11696-5.8577-0.34111-1.9841-0.308-3.9167-0.73014-5.6912-1.7204-1.739-1.0806-3.4337-1.2691-5.403-1.7924-1.5921-0.81419-3.0454-2.2038-4.7836-2.6141-1.8527-0.40485-3.6161-1.1061-5.26-2.0518-1.3187-0.40833-2.809-0.10555-4.1604-0.46743-1.553-0.31105-3.0172-0.74242-4.4317-1.4697-1.6054-0.81596-2.5983-1.2114-4.4576-1.1746-2.0233-0.49781-3.8464-1.4718-5.7228-2.3579-1.3329-0.86377-2.8569-1.0799-4.1845-1.991-1.4256-1.1377-2.5334-2.479-4.3208-3.0904-1.2769-0.92152-2.4131-2.0179-3.8469-2.7087-1.3219-1.1336-1.6395-2.4075-2.6127-3.6401-1.3242-1.0303-2.5426-2.1539-3.9905-3.0178-1.2082-1.2922-2.5771-2.0449-3.8268-3.3035-0.77117-1.3712-2.3118-1.9642-2.9152-3.4797-0.7877-1.3124-2.8734-1.8166-3.2866-3.5129-1.111-1.5253-2.1907-3.1328-3.5569-4.4095-1.0963-1.3412-2.0078-2.8102-3.3678-3.9211-1.1411-1.1874-2.448-2.3019-3.1115-3.848-0.5556-1.3939-0.48198-2.9858-1.3806-4.1952-1.3897-1.7034-2.4304-3.7216-3.1152-5.8055-1.2984-1.8087-2.9155-3.362-3.9486-5.3508-1.5712-1.5081-3.2401-3.4392-4.1746-5.3788-1.2534-1.627-2.3097-3.3151-3.0981-5.2204-1.1137-1.6044-2.135-3.2518-3.1548-4.914-1.2654-1.4106-2.2625-2.9122-3.3599-4.4311-1.0476-1.9296-1.0378-3.812-0.90991-5.9741-0.0373-2.0747-0.001-4.1505 0.007-6.2255-0.0336-2.09-0.005-4.1795-0.0296-6.2694 0.0283-2.0445 0.0175-4.0892 0.008-6.1337 0.0349-2.4729 0.0282-4.9463 0.0192-7.4194 0.0246-2.8727 0.032-5.7463-0.01-8.6188 0.005-2.1373 0.002-4.2746-0.0215-6.4118 0.0233-2.0324 0.008-4.0651-0.016-6.0974 0.004-2.0957-0.0384-4.1907-0.0941-6.2857-0.0495-2.2274-0.18809-4.4544-0.16411-6.6824 0.14362-2.1972 0.93246-4.3891 1.0039-6.6632 0.28172-2.689 1.1072-5.1484 1.9757-7.6921 1.2614-2.4466 0.38232-5.523 1.5463-8.0626 1.8847-1.321 1.6882-3.3318 1.9954-5.4042 0.45129-2.2686 0.75999-4.761 2.0791-6.6992 2.0858-0.96424 0.66545-4.3865 3.3654-4.8698 1.3696-1.4956 1.1071-4.347 3.3162-5.4301 0.37265-1.1146 0.28782-2.4305 1.2291-3.2547 0.28713-0.25143 0.73535-0.30437 0.97363-0.60251 1.619-2.0258-0.4906-0.77549 1.2985-1.6577 0.41166-0.68895 0.51003-1.5389 0.93997-2.2166 0.96777-1.5254 1.1445 0.58583 2.277-2.1999 0.14983-0.36856 0.38425-0.69679 0.57637-1.0452 1.865-0.61195 2.5802-3.3511 3.7956-4.8756 1.5569-0.83937 1.1507-1.2905 2.2128-2.572 0.97263-1.1736 0.78248-0.15048 1.7823-0.86432 0.25349-0.18097 0.38769-0.48757 0.58154-0.73136 1.374-3.1444 1.3252-1.3559 2.4589-2.3138 0.3217-0.27181 0.0528-0.97321 0.41091-1.1948 0.49572-0.30666 63.924-37.255 1.6423-0.60058 0.9559-0.96891 1.4649-2.5151 2.629-3.2025 0.73101-0.43167 63.693-36.876 2.2854-1.124 8.6849-6.4756 18.328-10 27.618-16.716 7.1598-5.1758-15.341 8.7682-22.941 13.274-0.43659 0.25886 0.95394-0.34713 1.4309-0.52069l25.277-15.112c-55.069 32.271-1.8072 0.27885 5.9822-3.6885 2.2402-1.0231 4.8932-1.0943 6.979-2.5994 4.0014-1.4601 8.1748-2.0685 12.366-2.7478l-22.664 17.045z"/>
		<path id="path5718" d="m254.7 693.89c-2.9734 2.7063-5.5756 5.7406-8.2093 8.7616-1.9813 1.6981-3.632 3.7129-5.5155 5.5136-1.7343 1.6035-3.241 3.2439-4.765 5.0272-1.9904 0.80807-2.5157 3.089-4.3499 4.0366-1.2171 2.0428-2.8119 3.7089-4.7307 5.1486-1.1748 1.7927-2.5956 3.3089-3.7549 5.1133-1.0338 1.8745-2.5755 3.4235-3.5802 5.2818-1.6136 1.2026-2.4471 3.1542-3.8926 4.442-1.0179 1.6468-2.43 3.0799-4.0214 4.1837-1.2048 1.2898-2.137 2.8853-3.3701 4.2302-1.2405 1.4205-1.7068 3.491-3.0532 4.8039-1.0117 1.5916-1.9702 3.3827-2.7413 5.1766-1.1104 1.4199-1.9049 3.2118-2.6285 4.9086-1.295 1.4314-1.4084 3.315-1.6387 5.1498-0.38793 1.9104-1.745 3.4207-2.36 5.2178-0.27044 1.8548-1.5143 3.249-2.5759 4.7051-0.45921 1.8889-1.3686 3.5957-2.2106 5.343-0.43205 1.7518-1.2985 3.3049-1.5206 5.0822 0.0829 2.1817-0.38116 4.1489-1.0993 6.1918-0.90821 1.7226-0.83113 3.7846-1.5855 5.5458-0.4492 1.7368-0.33385 3.5748-0.26938 5.3553 0.0491 1.7018 0.067 3.404 0.0979 5.1062 0.11997 2.093 0.008 4.0654-0.69629 6.0482-0.85814 1.801-1.29 3.7452-1.6811 5.6876-0.5135 1.8877-1.1244 3.742-1.7048 5.6282-0.66421 1.759-1.0582 3.6033-1.2389 5.4737-0.1895 1.8677-0.28449 3.7462-0.30261 5.6235-0.0189 1.6788-0.0446 3.3575-0.0506 5.0364-0.002 1.8191-0.0142 3.6381-0.0129 5.4572 0.006 1.8874-0.005 3.7747-0.002 5.6621 0.007 1.9018-0.003 3.8037-0.00037 5.7055 0.21854 1.457-0.45715 3.1949 0.2763 4.5272 0.62275 0.77871 1.9901 0.72422 3.107 0.68849 1.7634 0.18698 3.541 0.18963 5.313 0.21278 1.8847 0.0274 3.7697 0.0111 5.6543 0.0356 1.9019 0.00031 3.804-0.0194 5.7058 0.005 1.9043-0.004 3.8089-0.0239 5.7131 0.00071 1.9416-0.0173 3.883-0.002 5.8248-0.006 1.6838-1.354 4.0259-1.6337 6.0734-2.1663 1.7334-0.39011 3.5539-0.60202 5.3349-0.56427 1.8722-0.092 3.7497-0.12449 5.6245-0.10059 2.0236-0.0118 3.9985-0.27489 5.8893 0.4828 1.7754 0.89449 3.6898 1.6746 5.6926 1.8172 1.7689 0.32965 3.5761 0.39944 5.373 0.44666 1.7975 1.3024 3.3024 2.0065 5.4084 2.6154 1.7742 0.22697 4.0007 1.6148 5.3351 2.8856 1.5768 0.2751 3.1708 0.2666 4.7649 0.29245 1.8634 0.004 3.7271 0.0226 5.5904 0.009 2.2444-0.21586 4.0108 0.0567 6.0334 1.0059 1.7119 0.93434 3.6894 1.1626 5.5895 1.4717 1.8519 0.24053 3.7333 0.26455 5.6012 0.31211 1.7812 0.0403 3.563 0.0448 5.3446 0.05 1.7412 0.002 3.4823 0.0108 5.2235 0.0107 2.2694 0.0202 4.5389 0.003 6.8084 0.0109 2.074-0.00089 4.148-0.0141 6.222-0.005 1.8627-0.005 3.7252 0.001 5.5879-0.0117 1.9326 0.0119 3.8654 0.0186 5.7981 0.001 1.9208 0.01 3.8418 0.0166 5.7626-0.00047 1.7975-0.32414 3.6035-1.2527 5.3999-2.0486 1.8643-0.2428 3.6987-0.51491 5.5796-0.6775 1.9489 0.20604 2.921-1.1721 4.6715-1.8725 1.7313-0.65713 3.646-0.75163 5.4828-0.89693 1.7759-0.10199 3.5591-0.18257 5.3391-0.18356 1.6709-0.0368 3.3412-0.0129 5.0122-0.0328 1.8896 0.01 3.7794 0.0156 5.6692-0.002 2.054 0.0259 4.1081-0.007 6.1622 0.0184 1.8741-0.0119 3.7483-0.0225 5.6224-0.012 2.0587 0.21681 3.4997-0.57523 5.5066-0.39355 1.8323-0.11132 3.5206-1.3252 5.4586-1.6681 1.9259-0.42686 3.903-0.59222 5.8726-0.64889 1.7761-0.69626 3.5456-0.53532 5.5718-0.38209 1.9229 0.10387 3.8474 0.14851 5.7725 0.18384 1.7907 0.0268 3.5817 0.037 5.3726 0.0368 1.7724 0.008 3.5449 0.0157 5.3174 0.009 1.8741 0.004 3.7482 0.0104 5.6222 0.002 2.0423 0.15485 3.8428-0.89911 5.5027-2.0978 2.1711-0.56082 4.4262-0.6623 6.6595-0.69239 2.0863-0.0661 4.1736-0.0446 6.2605-0.0521 2.201-0.0119 4.402 0.003 6.603-0.007 2.0812 0.00045 4.1625 0.005 6.2438-0.005 1.9434 0.002 3.8869 0.008 5.8303-0.001 1.7004-0.008 3.4009 0.002 5.1014 0.00082 1.8378-0.004 3.6756 0.004 5.5135 0.002 1.8916-0.005 3.7832 0.003 5.6748 0.00054 1.9026-0.005 3.8052 0.002 5.7078 0.0001 1.9044-0.005 3.8089 0.002 5.7133 0.00001 1.9047-0.005 3.8094 0.002 5.7142 0 1.6734-0.00013 3.3465-0.0161 5.0199-0.003 1.8234 0.004 3.6468-0.006 5.4701 0.004 1.8934 0.001 3.7868-0.009 5.6802 0.00055 1.9032 0.001 3.8065-0.01 5.7098 0.00007 1.9046 0.001 3.8092-0.01 5.7137 0.00001 1.9047 0.00099 3.8095-0.01 5.7142 0 1.7817 0.002 3.5631-0.0165 5.3447-0.00087 1.6928-0.0105 3.3855-0.003 5.0784-0.007 1.8956 0.006 3.7912 0.0115 5.6868 0.003 1.9144 0.003 3.8289 0.009 5.7434-0.00019 1.9073 0.003 3.8146 0.009 5.7218-0.00009 2.4785-0.45853 4.0167 1.3712 6.0927 2.2266 1.6718 0.3172 3.3633 0.50819 5.0632 0.55686 1.6368 0.0325 3.2736 0.0629 4.9109 0.0587 1.6625 0.0162 3.325 0.004 4.9876 0.0163 1.8812 0.004 3.7624-0.006 5.6435 0.004 1.9077 0.001 3.8154-0.01 5.723 0.00017 1.9058 0.00099 3.8117-0.01 5.7175-0.00002 1.905 0.00099 3.81-0.01 5.7149 0 1.6937-0.0124 3.3876-0.0135 5.0814 0.001 1.759-0.0106 3.5179-0.004 5.277-0.008 1.6952 0.006 3.3903-0.006 5.0855-0.00027 1.8383 0.001 3.6766 0.008 5.515 0.006 1.7162 0.001 3.4323-0.00003 5.1484-0.0144 0.64578-0.81091 0.27199-0.44837 1.129-1.0797-7.8712 4.5347-15.706 9.1326-23.614 13.604-1.5645 0.88475 1.3649-1.0904 1.8566-1.6366 1.6042-1.7971 2.4513-4.0348 4.0063-5.8644 1.0453-1.3456 1.9782-2.565 2.4658-4.2232 0.46552-1.7191 0.57198-3.5132 0.65216-5.2853 0.084-1.7547 0.1014-3.5126 0.11572-5.2692 0.15823-1.6539-0.79966-3.0316-1.3694-4.514-0.66236-2.0167-1.7878-3.813-2.5744-5.7838-0.47881-1.7152-1.381-3.1956-2.3709-4.6543-0.76499-1.488-1.5775-2.9059-2.4409-4.3516-1.0975-1.7495-1.6386-3.7618-2.0212-5.7706-0.34646-1.8078-0.23109-3.647-0.87569-5.3834-0.98856-1.8702-1.4826-3.9253-1.8879-5.9881-0.117-1.9465-0.67254-3.6287-1.3304-5.4309-0.87126-1.9126-1.3756-3.9605-1.686-6.0324-0.67362-2.0999-1.4839-4.1464-2.1619-6.2462-0.58634-1.9484-0.31078-4.4435-1.7904-5.9942-1.144-2.0652-1.6249-4.288-1.9796-6.5902-0.0278-2.015-1.2843-3.5981-2.0411-5.4574-0.24589-2.1134-1.1308-3.7451-2.2796-5.466-0.76874-1.6325-0.90234-3.4713-1.7949-5.0376-1.5285-1.5244-2.0543-3.3042-2.4007-5.4486-0.0826-2.0278-1.4136-3.4848-2.1289-5.3106-0.27532-1.6872-1.3546-2.6709-2.2765-4.0473-1.2296-1.4646-0.70896-3.7286-1.9223-5.14-1.1766-1.1388-1.4736-2.8239-2.434-4.0754-1.6723-0.81091-1.6966-3.3654-3.0167-4.5918-1.2625-1.9803-2.7046-3.6366-3.8237-5.7551-2.1371-0.92784-2.3756-3.6434-3.8384-5.1525-1.4275-0.9191-1.3684-2.9407-2.3329-4.119-0.10033-0.12257-0.30206-0.0955-0.45309-0.14323-0.28698-0.45356-0.57395-0.90711-0.86092-1.3607-1.331-1.0893-1.2352-3.4307-2.73-4.1727-1.3097-1.1595-2.0461-2.479-3.4005-3.5477-1.0062-1.9597-2.3102-3.3342-3.5466-5.2082-1.1292-1.2857-2.2972-3.0093-3.824-3.835-1.6159-1.3336-3.003-2.6093-4.6588-3.8729-1.3663-1.1046-2.9861-2.0262-4.3906-3.1442-1.2964-0.8693-2.7562-3.1731-4.2292-3.5611-1.6524 0.054-2.7269-3.9548-3.7011-3.4846-1.8063-0.33999-1.4743-2.8736-3.2933-2.8404-1.2836-0.21106-1.3405-1.4933-2.0471-2.2964-0.14989-0.17035-1.3201-0.54921-1.6377-0.72525-1.6288 0.19629-1.9961-1.7452-3.1683-2.3283-0.45045-0.22407-0.99587-0.18033-1.4656-0.3604-1.884-1.4352-3.8978-2.2409-6.1597-3.0213-2.2963 1.1085-3.0732-2.6526-4.7248-2.4967-1.7986-0.74049-3.1167-2.2135-4.6653-3.3618-2.0609 0.12316-2.8357-0.39176-4.1013-1.9861-1.0032-0.75726-2.1452-0.94675-3.3732-0.93749-1.0722-1.9075-2.2605-2.0108-4.0098-2.7133-1.9336 0.15397-2.6322-1.7284-4.2894-2.4771-1.5948 0.0923-1.8307-1.3267-2.7977-2.1988-0.35857-0.32341-0.88053-0.4067-1.2808-0.67685-1.5662-0.39701-3.1702-0.44435-4.7748-0.58444-2.1637 0.17905-3.6974-1.0515-5.0986-2.5513-1.4407-0.68697-3.1064-1.6355-4.5624-2.5714-1.312-1.2424-3.0463-0.39744-4.5439-1.4092l23.666-15.815c1.753-0.21873 3.4151 0.88861 4.8074 1.7966 1.6467 0.98645 3.3029 1.9395 4.851 3.0777 1.2263 0.98005 2.5571 0.85751 4.077 0.99155 1.9531 0.24538 3.9331 0.62898 5.5795 1.7738 1.3955 1.0126 2.2406 2.1921 3.9388 2.6495 1.4488 0.96295 2.27 1.8877 4.0723 2.1207 1.3443 0.50302 2.6276 1.6062 3.6361 2.2222 1.6899 0.47223 3.2329 1.2376 4.431 2.5606 0.85539 0.73434 3.0266 0.29948 3.9335 1.6779 1.2215 1.1828 2.6989 2.043 4.2396 2.7536 1.6597 1.2493 2.4354 1.9928 4.6133 2.2846 2.1546 0.91503 4.1126 2.1395 6.218 3.1307 1.7636 0.85707 3.002 2.3819 4.8864 3.0185 1.2485 0.856 2.0563 2.163 3.4209 2.6786 1.4157 0.94436 1.9898 2.3689 3.4675 3.1045 1.3413 1.2139 1.9925 2.8416 3.731 3.6058 1.4808 1.2224 2.9158 2.4649 4.3722 3.708 1.5718 1.004 2.896 2.2475 4.4502 3.2745 1.5312 1.291 3.058 2.5779 4.6386 3.7996 1.5661 1.4422 3.1235 2.9305 4.3436 4.6828 0.96903 1.567 2.2191 2.8499 3.0878 4.4449 1.2925 1.1111 2.1193 2.5114 3.4039 3.6054 1.4168 1.4715 1.9678 3.2086 3.1185 4.876 1.2646 1.7958 2.3075 3.5421 3.4953 5.3843 1.416 1.9036 2.2165 4.1245 4.1692 5.6479 0.9328 1.9006 2.3698 3.383 3.4593 5.1592 1.2389 1.57 1.6934 3.5111 3.2097 4.8371 0.8677 1.3196 1.3833 2.7816 2.3634 4.0338 1.1564 1.6873 1.4709 3.3729 2.0257 5.2545 0.97371 1.5249 2.4354 2.703 2.5923 4.6289 0.6589 2.033 2.3808 3.601 2.4105 5.8478 0.20989 1.9677 0.51086 2.9826 1.8961 4.4733 0.90048 1.5639 1.3714 3.1338 1.7078 4.9098 1.1748 1.8806 2.4711 3.6778 2.5849 5.9752 0.74874 2.0892 2.2294 3.8274 2.3674 6.0497 0.18685 1.8098 0.38011 3.5881 1.1821 5.2543 1.5271 2.0766 2.1002 4.3714 2.3368 6.9159 0.66413 2.2742 1.4718 4.4973 2.374 6.6877 0.18493 1.8896 0.61046 3.7507 1.3822 5.4896 0.68641 1.9471 1.6294 3.7009 1.5828 5.8377 0.30479 1.9059 0.67484 3.7904 1.6157 5.4979 0.7979 1.9464 1.095 3.7904 1.1661 5.8921 0.24778 1.6851 0.58193 3.389 1.5092 4.8503 0.84166 1.4068 1.7032 2.76 2.3959 4.231 1.0569 1.6443 2.1532 3.286 2.64 5.203 0.7477 2.0073 1.9337 3.7943 2.6227 5.8151 0.61074 1.7918 1.8687 3.4744 1.8523 5.4116-0.0117 1.7884-0.037 3.576-0.0694 5.3642-0.0849 1.9357-0.15761 3.8691-0.39614 5.7941-0.38402 1.8197-0.55405 3.9312-2.0864 5.1747-1.1818 2.087-3.1002 3.6705-3.9232 6.012-6.0916 8.9648-17.438 17.241-28.538 17.048-1.7029-0.0146-3.4058-0.0158-5.1087-0.0144-1.8439-0.002-3.6878 0.005-5.5317 0.006-1.6949 0.006-3.3898-0.006-5.0847-0.00027-1.7517-0.004-3.5033 0.003-5.255-0.008-1.6948 0.0143-3.3897 0.0138-5.0844 0.001-1.905 0.01-3.81-0.00087-5.7149-0.00001-1.9058 0.01-3.8116-0.0009-5.7174-0.00009-1.9077 0.01-3.8155-0.001-5.7233-0.00043-1.884 0.009-3.7682-0.002-5.6522-0.001-1.6787 0.008-3.3571-0.009-5.0357-0.0225-1.6743-0.0486-3.351-0.0616-5.0194-0.23043-1.9447-0.26296-3.9075-0.55783-5.6659-1.4894-1.7531-1.0554-3.3004-1.321-5.3386-1.108-1.9072-0.009-3.8144-0.003-5.7216-0.00009-1.9143-0.009-3.8286-0.003-5.7428-0.00019-1.8982-0.009-3.7965-0.003-5.6948 0.003-1.6866-0.004-3.373 0.004-5.0596-0.007-1.7808 0.0153-3.5614-0.002-5.3423-0.00087-1.9047 0.01-3.8095-0.00087-5.7142 0-1.9046 0.01-3.8092-0.00086-5.7137 0.00001-1.9033 0.01-3.8067-0.00084-5.71 0.00008-1.8939 0.01-3.7878-0.0007-5.6817 0.00054-1.8268 0.01-3.6537 0.00033-5.4806 0.004-1.6703 0.0125-3.3404-0.003-5.0107-0.003-1.9047-0.002-3.8094 0.005-5.7142 0-1.9045-0.002-3.8089 0.005-5.7134 0.00002-1.9027-0.002-3.8054 0.005-5.708 0.00009-1.8921-0.002-3.7842 0.005-5.6762 0.00054-1.8399-0.002-3.6798 0.006-5.5197 0.002-1.7012-0.0008-3.4024 0.009-5.1036 0.0008-1.942-0.009-3.8841-0.003-5.8261-0.001-2.0764-0.0103-4.1529-0.005-6.2293-0.004-2.1958-0.009-4.3914 0.006-6.5871 0.0121-2.0604 0.0133-4.1221 0.0436-6.1788 0.17727-2.0575 0.21378-4.1225 0.46516-5.8912 1.6418-2.1443 0.80562-4.0742 1.3084-6.3893 1.0315-1.8756-0.009-3.7513-0.003-5.6269-0.002-1.7785-0.0101-3.5571-0.006-5.3356-0.0152-1.8016-0.0236-3.6029-0.0496-5.4043-0.0881-1.9304-0.0716-3.8606-0.14984-5.7915-0.20018-1.8648 0.0131-3.5012 0.63746-5.3591 0.6138-1.8736 0.22671-3.7392 0.4908-5.5402 1.0831-1.9299 0.7326-3.7943 1.3497-5.8815 1.115-1.8476 0.27973-3.6434 0.4968-5.5463 0.34804-1.8631 0.0102-3.7264 0.00033-5.5895-0.0117-2.071 0.0253-4.1422-0.006-6.2132 0.0207-1.8887-0.0156-3.7775-0.006-5.666 0.0137-1.6557-0.005-3.3105 0.0298-4.9657 0.0686-1.7282 0.0838-3.4609 0.126-5.1745 0.389-1.7367 0.27429-3.4149 0.73409-4.9675 1.5772-1.7541 0.85621-3.2345 1.2096-5.2206 1.1883-1.7347 0.23068-3.5054 0.57467-5.111 1.2731-2.0351 0.70309-3.8253 1.544-6.0493 1.202-1.9204-0.0175-3.8409-0.01-5.7613-0.00046-1.934-0.0175-3.8681-0.01-5.8021 0.001-1.8519-0.013-3.7038-0.006-5.5557-0.0118-2.0693 0.009-4.1387-0.004-6.208-0.006-2.2789 0.007-4.5579-0.0102-6.8369 0.007-1.7479-0.004-3.4958 0.002-5.2436-0.0185-1.7952-0.0214-3.5912-0.0487-5.3848-0.13049-1.9533-0.10163-3.9141-0.22843-5.8313-0.64003-2.0192-0.40465-3.9572-1.0973-5.8597-1.8775-1.7794-0.41677-3.6536-0.0701-5.47-0.18681-1.8958-0.0194-3.7948 0.0132-5.6876-0.11461-2.0541-0.17598-4.0681-0.482-5.7494-1.7846-1.5423-0.89463-3.0122-1.7388-4.7984-2.0068-1.7167-0.63358-3.1284-1.9596-4.9627-2.014-1.8674-0.15442-3.7329-0.34522-5.5606-0.77695-1.9421-0.55498-3.8041-1.3196-5.7357-1.8805-1.84 0.0429-3.6813 0.0189-5.5217 0.042-1.8502 0.0608-3.7005 0.0814-5.5476 0.22105-1.6894 0.24884-3.3786 0.47499-5.013 0.99237-2.1545 0.53465-4.237 1.8062-6.5054 1.6057-1.9362-0.004-3.8721 0.0114-5.8083-0.006-1.9044 0.0235-3.8093 0.005-5.7139-0.002-1.9034 0.022-3.8073 0.002-5.7108-0.0115-1.8958 0.0113-3.7922-0.0198-5.6871-0.0769-1.8468-0.0555-3.697-0.15223-5.5194-0.47725-1.8464-0.49605-3.6074-1.1004-4.5679-2.9085-1.0087-1.8748-1.0455-3.6861-0.91868-5.7859 0.003-1.9018-0.008-3.8037-0.0001-5.7055 0.003-1.8874-0.008-3.7747-0.00034-5.662 0.003-1.8201-0.008-3.6403 0.00086-5.4604 0.005-1.6936-0.008-3.3879 0.0378-5.081 0.0563-1.9436 0.0308-3.8936 0.19985-5.8309 0.21384-2.0267 0.29032-4.1336 0.96389-6.0632 0.75222-1.9888 1.568-3.7074 1.5965-5.8403 1.2963-1.3957 0.75347-3.9621 1.6898-5.6625 0.874-1.7062 1.525-2.9836 1.1942-4.9791-0.005-1.6871-0.0331-3.3742-0.0787-5.0607-0.0403-2.0277-0.0958-4.0532-0.0858-6.0812 0.29657-1.9386 1.3477-3.8147 1.416-5.9233 0.90769-1.785 1.738-3.3526 1.4862-5.3643 0.1056-2.3841 0.43304-3.6156 1.2363-5.7463 0.47381-1.939 1.6726-3.5356 2.1983-5.3329 0.27345-1.858 1.3114-3.2121 2.6952-4.4369 0.14223-0.93768 0.12332-2.1575 0.72031-2.9542 0.19855-0.26499 0.59569-0.3548 0.75579-0.64465 1.7558-3.1789-0.78825 0.0277 0.79105-1.8533 1.1777-1.6306 0.13918-4.2124 1.2955-5.9452 0.0261-0.0201 2.1269-2.8853 2.1471-2.9526 1.2431-4.1326-0.85631 0.49114 0.39288-2.1098 1.3134-0.72486 0.88686-1.3238 1.5046-2.5874 0.57479-1.1756 1.7209-0.6239 1.2417-2.5069 1.1873-1.9718-0.47899 0.51755 1.2372-1.1368 0.97299-0.93795 1.0237-2.5785 1.9304-3.5408 0.88651-1.7287 2.6881-2.7814 3.1357-4.6844 1.1136-1.5408 2.793-2.537 4.2946-3.6325 1.1004-2.979-0.28492-0.17619 1.1746-1.4988 1.0551-0.95613 0.72412-2.9547 2.5583-3.2938 1.836-1.3153-0.24759 0.41826 1.2311-1.9334 0.68718-1.0929 2.3405-1.4903 2.3969-3.1493 1.3872-1.6883 2.2-3.6798 3.8372-5.0988 1.1778-2.9315 1.4516-1.2356 2.7323-2.6381 0.33885-0.37109 0.16662-1.0583 0.52091-1.4147 2.5484-2.5633-0.24094 2.3914 1.4781-1.0325 0.13929-0.48219 0.0984-1.0595 0.41787-1.4466 0.41222-0.49942 1.3228-0.36801 1.7406-0.86271 0.7367-0.87214 0.72408-2.0917 1.8187-2.6445 2.5076-0.95948 1.052-0.95373 2.3759-2.5943 0.641-0.79432 2.4392-0.51572 2.4431-2.1652 2.073-1.7015 3.9029-3.5571 5.6701-5.5324 3.2329-2.2874 4.9903-6.239 8.2385-8.6324l26.168-10.839z"/>
	</g>
	<g id="layer12" stroke-linejoin="round" stroke="#000" stroke-width="30" fill="none">
		<path id="path8437" d="m322.67 194.67c-3.56 1.77-6.9 4.07-10.67 5.33-3.7712 1.2571 14.642-5.3333 10.667-5.3333-14.647 0-61.116 45.551-56 50.667 4.5953 4.5953-5.3333 5.6246-5.3333 8 0 30.295-19.155 90.179-8 101.33 3.4694 3.4694 26.667 36.444 26.667 40 0 1.5767 10.353 18.51 16 21.333 117.39 58.7 254.2-64.92 216-141.32-11.52-23.05-18.24-34.24-34.67-50.67-7.66-7.67-25.15-9.15-26.66-10.67-4.86-4.85-9.03-16.51-18.67-21.33-15.779-7.8897-87.483-8.2583-109.33 2.6667z"/>
		<path id="path8439" d="m240 448c-24.653 14.665-42.667 27.402-42.667 34.667 0 16.936-18.667 26.639-18.667 37.333 0 19.828-14.788 91.272-5.3333 96 7.7123 3.8562 270.72-8 298.67-8 30.541 0 75.342-5.3333 98.667-5.3333 16.92 0 37.33-3.62 37.33-2.67 0 3.5556 10.667 3.5556 10.667 0 0-20.308-32-86.342-32-109.33 0-8.9786-38.088-41.912-37.333-42.667 4.4889-4.4889-42.908-43.636-72-53.333"/>
	</g>
</svg>
