<?xml version="1.0" encoding="UTF-8" standalone="no"?>
<!-- Created with Inkscape (http://www.inkscape.org/) -->
<svg id="user" class='header-nav-btn' xmlns:rdf="http://www.w3.org/1999/02/22-rdf-syntax-ns#" xmlns="http://www.w3.org/2000/svg" height="800" width="800" version="1.1" xmlns:cc="http://creativecommons.org/ns#" xmlns:dc="http://purl.org/dc/elements/1.1/" viewBox="0 0 800.00001 800.00001">
	<metadata id="metadata4837">
		<rdf:RDF>
			<cc:Work rdf:about="">
				<dc:format>image/svg+xml</dc:format>
				<dc:type rdf:resource="http://purl.org/dc/dcmitype/StillImage"/>
				<dc:title/>
			</cc:Work>
		</rdf:RDF>
	</metadata>
	<g id="layer1" transform="translate(0 -252.36)" display="none">
		<rect id="rect5720" height="800" width="800" y="255.22" x="2.8571" fill="#808080"/>
	</g>
	<g id="layer10" transform="translate(0 -252.36)">
		<path id="path5722" fill="#fff" d="m137.93 465.72c40.952-23.573 81.865-47.213 122.86-70.718 2.7308-1.5659 0.43928 0.18483 3.5321-0.89798 0.58201-0.20377 2.1061-1.2834 1.5717-0.97575-120.52 69.392-163.87 82.099-117.9 68.464 2.6269-1.0135 3.3875-3.7249 5.1155-5.5228 0.55865-0.58125 1.4651-0.7215 2.0631-1.2623 7.815-7.0679-3.5887 1.8266 4.101-3.9934 1.5554-1.073 2.4589-2.9088 3.9946-4.0014 1.3527-0.96239 2.3423-0.51613 3.5103-1.7203 4.107-4.2338-0.92337-0.45549 2.6021-2.9387 0.46915-0.0487 0.99976 0.0912 1.4074-0.14602 0.58623-0.34108 0.86001-1.0636 1.3928-1.4832 0.79972-0.62985 1.6614-0.52517 2.3066-1.3756 2.2566-2.9743-0.21602-1.1582 2.17-2.6552 1.5873-0.82815 1.0289-2.6782 2.4958-3.7486 0.30132-0.21989 0.81568 0.007 1.0922-0.2435 0.32944-0.29819 1.3425-2.9878 1.4211-3.1844 0.45366 0.16206 0.89367 0.60317 1.361 0.48617 0.66252-0.16587 1.4487-2.493 1.6359-2.7091 0.20796-0.24008 0.68421-0.063 0.90828-0.28806 0.3299-0.33142 0.22186-1.022 0.62745-1.2547 40.955-23.502 82.167-46.555 123.25-69.833 4.82-2.4885 2.7667-2.7911 8.073 6.736 1.2395 2.2254 1.9099 4.7231 2.8648 7.0846-1.0197 1.7827-0.61585 3.8216-1.585 5.7287-0.31196 0.6139-1.0462 0.92862-1.3991 1.52-1.664 3.8624-0.70849 2.052-2.8266 5.4522-0.89328 2.7071-2.9551 4.6987-4.3119 7.1378-0.42369 0.76166-0.57566 1.6848-1.1283 2.3588-4.0464 4.9353 0.99073-4.1089-2.5712 2.9138-2.2797 4.3057-5.2462 8.4642-6.4798 13.166-2.3713 3.2401-2.492 7.5949-5.4939 10.372-0.17155 0.79542-0.68377 3.4659-1.1038 4.1078-0.24333 0.37189-0.9554 0.26229-1.1604 0.65662-0.42241 0.81266-0.18194 1.8602-0.57727 2.6863-0.21613 0.45169-0.77538 0.63381-1.1631 0.95072-0.33459 0.82919-0.66918 1.6584-1.0038 2.4876-2.4546 1.7988-2.8942 4.8274-4.3502 7.2365-0.98027 1.622-3.428 4.6164-4.8705 5.9102-1.5415 2.0205-2.2002 4.8141-3.7713 6.7906-0.38848 0.48873-1.1408 0.59724-1.5217 1.0919-5.2928 6.8737 2.5005-1.259-2.7636 4.0071-4.3883 3.4273-6.5443 9.4962-11.52 12.149-3.8403 3.5643-7.0159 8.0195-11.189 11.174-0.51545 0.61428-0.95572 1.3004-1.5463 1.8428-0.62486 0.57383-1.408 0.95005-2.0711 1.4792-2.5338 2.0219-4.6798 4.6483-6.9077 6.986-4.6414 3.4678-7.0125 9.0672-10.961 13.235-1.4269 0.7754-1.3698 2.5664-2.327 3.6436-0.31372 0.35306-0.93454 0.26934-1.2954 0.57404-1.0414 0.87927-0.97651 2.2891-2.1496 3.2139 1.1274 1.8175-1.8555 1.4343-2.0242 1.9938-0.22659 0.75174 0.43186 1.6356 0.11231 2.3527-0.21654 0.48596-1.0206-0.4281-1.5504-0.37904-2.7456 1.7262 1.9524 4.4761-4.1416-6.3919-1.0968-1.956-1.5275-6.7651-3.5189-5.734-107.21 55.509-152.55 104.06-119.57 68.901 3.1662-0.48299 3.9135-3.9529 5.9843-5.9114 1.4908-1.4099 3.2641-2.4995 4.7556-3.9086 4.8893-4.1028 9.9638-7.955 14.924-11.953 4.0192-4.2867 8.8573-7.4925 13.564-10.952 5.1718-4.477 11.199-7.811 16.748-11.767 1.0183-2.012 3.4099-1.7325 4.9231-2.8848 0.77169-0.58762 1.0849-1.6714 1.8897-2.2128 0.74591-0.50183 1.8241-0.30295 2.5778-0.79285 0.99141-0.64433 1.6005-1.75 2.5055-2.5109 0.83704-0.70377 1.7994-1.2434 2.699-1.865 6.9545-4.799 13.202-10.481 19.628-15.991 3.7783-2.8404 6.977-6.4456 10.678-9.3417 10.837-8.4786-5.2971 5.4156 5.1572-3.755 3.8649-2.2591 6.4859-5.9239 9.6529-8.9494 4.7872-4.5732-0.0754 1.2308 4.44-4.5627 4.4176-3.6533 7.587-8.5663 11.921-12.307 4.6654-6.2777 10.133-11.828 15.215-17.786 4.677-3.8653 8.0389-9.1969 12.806-12.937 3.3563-4.6407 8.2272-7.4972 12.712-10.883 3.9916-1.7413 7.0863-4.7336 10.4-7.5018 40.779-23.798 81.559-47.596 122.34-71.394 0.9885 0.0653 1.8752-0.59865 2.8462-0.62644 0.54031-0.0155 1.1298 0.48116 1.6059 0.22525 0.41418-0.22263 0.8671-1.5656 0.45765-1.3344-40.418 22.823-80.527 46.189-120.79 69.283 46.902-10.701-0.91898 0.30204 123.45-71.012 0.0423-0.0243 2.9254-0.4849 2.9284-0.48107 2.4714 3.2648 4.5308 6.822 6.7962 10.233 2.0773 5.6166 0.95512 7.1361-1.6196 11.863-2.3318 4.2807-0.027 0.96216-2.8152 4.637-3.7401 5.6471-6.2566 11.934-9.4751 17.846-0.54092 0.68256-1.2051 1.2835-1.6228 2.0477-0.58039 1.0619-0.86048 2.2631-1.3405 3.374-1.7199 3.9806-3.8742 7.7381-5.2803 11.832-2.1315 3.8359-2.9569 8.372-5.15 12.164-3.783 6.5416 0.45615-2.8235-2.8131 4.9082-2.5541 4.5976-4.063 9.7431-6.7541 14.244-0.3685 0.55331-0.85841 1.0428-1.1055 1.6599-0.31417 0.78473-0.263 1.6804-0.5501 2.4755-1.129 3.1263-0.58188 0.26906-2.0092 2.8518-0.6487 1.1739-0.95565 2.5099-1.5381 3.718-3.8292 3.7973-5.8606 8.6231-8.885 12.997-3.4322 3.96-6.3818 9.5902-10.234 13.005-2.3487 5.544-7.4918 8.1468-10.403 13.263-3.9955 4.8216-7.8524 9.7037-11.791 14.574-4.1901 4.5783-7.4295 9.8617-10.318 15.327-3.7607 7.5359-8.3092 14.619-12.555 21.892-4.0115 7.6946-9.0096 14.824-12.706 22.691-2.1458 2.8031-3.0813 6.1318-4.4472 9.2894-1.1719 2.7093-2.6782 4.984-3.6645 7.803-0.66441 3.9461-3.5792 5.4481-4.7072 9.1341-1.6934-2.0718-0.2394-0.15083-2.3841-4.016-1.189-2.1429-2.5569-4.1884-3.6514-6.3811-0.0904-0.18103 0.17469-0.37841 0.17655-0.58072 0.007-0.72289-0.10091-1.4423-0.15137-2.1635-39.995 23.092-79.99 46.184-119.99 69.277 0.78551-0.50237 1.663-0.88388 2.3565-1.5071 0.88271-0.79322 1.41-1.9399 2.323-2.698 0.92959-0.77187 2.1184-1.1675 3.1294-1.8293 3.5163-2.3016 6.9779-4.0666 10.223-6.7524 7.6118-4.7314 14.324-10.714 21.344-16.292 7.2888-6.3305 14.396-12.891 21.155-19.801 6.6051-6.0192 12.022-13.096 17.381-20.193 5.0617-6.0567 9.5877-12.509 14.364-18.787 4.1321-5.5296 8.2959-11.169 13.17-16.08 4.6166-5.3102 9.6185-10.182 14.57-15.175 5.8108-6.3802 12.376-11.99 18.252-18.309 6.3346-6.2448 12.752-12.5 18.48-19.342 6.7312-7.9406 14.037-15.341 20.908-23.152 6.1713-5.887 11.677-12.591 16.803-19.421 8.3508-10.75-2.7916 3.1324 4.8897-5.1852 1.3804-1.4947 2.304-3.3716 3.6841-4.8666 0.98882-1.0712 2.1097-2.0151 3.1011-3.084 25.148-45.435-113.88 41.027 131.39-58.869 1.1137-0.45359-0.48708 2.3767-0.98941 3.4692-1.3703 2.9804-2.6275 3.7462-4.9513 5.9492-6.9409 8.7166-13.112 17.987-19.65 27.006-6.5655 10.123-14.091 19.623-21.934 28.78-6.1399 7.2409-12.03 14.676-18.146 21.936-5.0546 6.531-10.828 12.466-15.792 19.098-7.0292 7.1774-13.246 15.019-19.725 22.679-7.5105 8.3209-14.196 17.305-21.081 26.142-7.8207 9.8822-16.674 18.878-24.976 28.347-6.7197 7.7351-13.881 15.202-19.824 23.552-5.5228 5.3694-9.7821 11.865-15.246 17.237-4.5835 5.2373-8.6137 10.897-12.862 16.389-0.66217 0.81155-1.3243 1.6231-1.9865 2.4346-0.77247 0.63249-1.6694 1.138-2.3174 1.8975-0.79588 0.93276-1.2579 2.1075-1.9584 3.1138-1.8682 2.6837-3.9443 5.251-5.8444 7.9191-4.3608 5.4428-8.4891 11.201-11.668 17.414-0.64365 0.68239-1.3893 1.2813-1.9309 2.0472-0.75917 1.0734-1.2058 2.344-1.9441 3.4318-2.6683 3.9315-5.8112 7.553-8.4896 11.499-5.1463 7.519-9.5795 15.536-13.835 23.589-3.7542 6.8969-6.9879 14.151-11.403 20.665-1.3005 3.2566-3.5055 6.3409-4.2213 9.771-0.0634 0.34236 0.0613 1.268-0.19017 1.0271-0.5974-0.57226-3.343-5.2049-2.4998-6.2174 0.20241-0.24304 0.63708 0.15446 0.9452 0.0831 0.2905-0.0673 0.50442-0.31817 0.75663-0.47725 2.7226-0.12388 5.4631-0.22394 8.2108-0.24071 1.3515-0.3027 3.0994-2.9179 3.9612-3.4378 0.71993-0.43432 3.1818-1.0096 2.4518-0.59239-39.559 22.607-154.66 95.597-119.02 67.209 37.071-29.528 82.249-47.116 123.37-70.674-218.01 115.31-142.62 90.324-104.87 58.338 5.7084-5.1287 10.172-11.321 15.191-17.08 4.5397-5.1588 8.7469-10.605 13.316-15.765 2.1094-2.4923 4.6824-4.6864 6.7624-7.1818 0.84868-1.0182 1.3419-2.3049 2.2138-3.3034 0.80891-0.9263 1.8563-1.6135 2.7845-2.4203 0.92969-1.0863 1.8594-2.1726 2.7891-3.2588 5.1372-5.039 8.5784-11.613 14.155-16.148 0.55921-0.7935 1.025-1.6618 1.6776-2.3805 1.1855-1.3054 2.9753-2.328 4.2779-3.4998 2.4137-2.1713 4.3956-4.8324 6.3918-7.3697 4.8272-6.0388 11.371-10.406 16.151-16.445 5.7074-4.0621 10.218-9.3814 15.577-13.85 6.4186-4.8474 11.62-11.003 17.62-16.285 6.5955-4.8961 12.125-10.962 17.835-16.81 7.8124-6.818 14.246-14.917 21.35-22.417 6.1208-6.9452 12.445-13.644 19.003-20.187 7.2762-6.7555 14.86-13.316 22.761-19.373 6.7596-5.0419 12.849-10.879 19.22-16.397 6.8169-6.1152 13.86-12.035 20.985-17.829 4.7399-4.0026 9.6008-7.8198 14.446-11.739 2.0684-2.0773 5.1357-3.1321 7.2484-5.1137 0.80032-0.7507 1.2313-1.8412 2.0376-2.5854 1.2903-1.1908 2.9514-1.9135 4.3226-3.0101 1.1505-0.55911 1.7457-1.9672 2.8918-2.5475 0.42849-0.21697 0.99845-0.0262 1.4168-0.262 41.128-23.183 80.105-50.569 123.15-69.955 6.046-2.7227 6.8448 9.6026 7.2356 13.757-0.22078 1.4973-0.15416 3.0663-0.66233 4.492-0.60494 1.6971-3.2574 4.4838-4.3693 5.836-3.2954 4.008-6.6507 7.8358-10.213 11.612-8.4085 9.468-16.949 18.805-25.532 28.116-9.9348 11.516-18.856 23.893-27.729 36.238-7.574 11.24-14.007 23.204-20.555 35.058-6.1153 11.513-11.869 23.207-17.674 34.879-5.3319 9.8041-10.279 19.812-15.565 29.64-4.0019 7.4225-7.797 14.964-12.18 22.164-3.409 5.8607-6.901 11.615-10.393 17.432-3.418 7.5612-7.9781 14.521-12.18 21.663-4.6588 7.6273-8.7948 15.562-13.341 23.267-4.9748 7.4539-9.8394 14.951-14.023 22.882-4.3755 7.0403-8.5869 14.178-12.882 21.267-3.2472 6.3439-7.0517 12.335-10.584 18.513-4.7271 7.8209-9.874 15.413-14.101 23.519-5.2763 9.0302-10.589 18.04-15.542 27.255-4.5093 9.3336-8.9218 18.69-12.998 28.22-2.3199 4.4234-3.5518 9.3392-5.4781 13.896-3.5132 8.3106 0.66112-3.6466-1.8637 3.8733-0.19834 0.20917-0.37405 0.81261-0.59504 0.62751-0.50818-0.42565-0.53351-1.214-0.81924-1.8121-22.428-46.95-10.208-0.65508-126.94 59.061-0.55581 0.28432 1.0165-0.76725 1.6128-0.95226 0.82543-0.25611 1.7131-0.23029 2.5696-0.34544 0.76983-0.7674 1.4659-1.6167 2.3095-2.3022 0.83216-0.67626 1.864-1.0799 2.6915-1.7619 5.0635-4.1733 9.6044-9.2737 13.969-14.145 8.8122-10.47 16.653-21.701 24.696-32.762 7.8457-11.085 16.162-21.837 23.886-33.006 6.208-8.539 12.17-17.28 18.693-25.583 4.6602-7.5602 10.384-14.325 15.531-21.542 5.38-7.9567 11.718-15.184 17.505-22.823 5.4168-7.1712 10.594-14.581 16.425-21.423 5.5498-7.3988 11.308-14.612 17.135-21.789 5.1403-7.0179 10.745-13.61 16.293-20.298 6.0142-6.2757 10.826-13.6 16.856-19.869 4.9221-5.4264 9.9963-10.734 14.69-16.36 5.0107-5.1668 9.8421-10.512 14.271-16.187 5.0401-5.8901 9.6573-12.046 13.615-18.726 4.5624-6.2549 8.5863-12.87 12.743-19.409 5.3275-6.5697 10.713-13.055 16.781-18.998 5.2573-5.4392 11.367-10.004 16.53-15.519 0.75817-2.2569 3.8929-2.2118 5.2468-3.6153 0.50799-0.52656 0.55154-1.3707 0.97885-1.9646 0.48646-0.67612 1.3194-1.0178 1.957-1.5538 1.7669-3.5964-0.3305-0.69471 2.1846-1.4206 1.4333-0.4137-0.16048-3.5223 0.93932-4.0683 42.387-21.044 85.069-41.487 127.6-62.231 4.8684 9.8482 3.5908 20.998 2.5469 31.592-1.9591 15.163-6.5679 29.755-11.129 44.286-4.4855 14.551-10.532 28.508-16.012 42.687-5.4803 12.668-9.6964 25.777-13.984 38.876-3.9758 12.866-7.5038 25.868-10.96 38.883-3.0173 11.74-5.9174 23.497-8.6541 35.305-2.0464 9.0791-4.3116 18.076-6.1575 27.198-1.1418 5.676-2.2532 11.283-3.8943 16.818-1.3788 5.7805-4.0112 11.119-6.0704 16.694-2.4409 7.3832-5.1526 14.68-7.6865 22.04-2.3187 7.5103-4.8855 14.903-7.1188 22.444-0.83831 6.83-2.9154 13.399-4.0069 20.162-1.3754 5.7374-2.4486 11.561-4.4668 17.117-1.1351 4.71-2.5471 9.3489-4.0702 13.945-2.5176 7.3801 4.0736 13.792-7.5845-6.4798-40.45 23.162-81.144 45.902-121.35 69.486-0.59249 0.34755 1.4299 0.92295 1.9919 0.52796 0.77357-0.5437 0.56522-1.8182 1.0218-2.6462 1.7166-3.1128 4.0688-6.0413 5.8974-9.1207 5.7164-9.6333 9.5893-20.191 13.638-30.604 4.5728-11.667 8.4649-23.59 12.962-35.275 4.0481-10.171 8.1482-20.336 12.559-30.36 2.857-7.7881 7.8984-14.477 11.384-21.906 3.0572-6.3458 6.6369-12.368 10.482-18.268 3.1767-6.2339 7.8104-11.654 11.728-17.466 3.2703-3.8234 5.2897-8.5373 8.0867-12.649 0.73093-1.0745 1.6759-1.9865 2.5138-2.9798 0.78514-1.2414 1.5703-2.4827 2.3554-3.7241 4.7344-5.5406 8.122-12.243 13.276-17.401 4.7222-5.8271 9.8828-11.365 15.561-16.317 3.7486-3.1875 6.6782-7.2891 10.457-10.434 0.41616-0.34633 4.4796-2.8929 5.1895-3.3409 2.7167-1.6986 4.6163-4.451 7.0171-6.4542 2.3567-1.9664 5.3846-3.4294 7.8741-5.2777 6.8032-4.3017-2.5437 1.9844 4.1169-3.9144 0.66304-0.5872 1.649-0.69881 2.3496-1.2406 2.3471-1.815 2.238-2.4458 5.0842-3.929 22.519-15.342 121.37-114.87 133.46-53.474 1.3944 8.3448 0.88712 16.727-0.12858 25.071-1.5144 9.3156-4.223 18.4-6.2533 27.617-2.9331 8.7161-4.0821 17.893-5.9902 26.865-1.3319 9.0399-3.193 18.024-4.4403 27.07-1.0553 8.2485-1.0057 16.551-1.2186 24.844 0.42811 6.5223 0.0653 12.93-0.97615 19.366-0.80786 6.1472-1.2011 12.351-1.3294 18.547 0.11998 4.0814-0.0574 8.1482-0.0549 12.227-0.0994 4.4056-0.20314 8.8108-0.2675 13.217-0.16701 4.93 0.10268 9.8582 0.028 14.784 0.34128 3.1837 0.11166 6.3978 0.31121 9.5789-0.007 2.4674-0.0502 4.9411 0.13463 7.4041 0.24725 4.2307-0.38747 3.8611-1.431 0.16452-0.11416-1.7866-2.1449-2.8977 0.28995-3.2972 0.36015-0.0591 0.98681 0.28405 1.0929-0.0651 0.24826-0.81679-0.20005-1.6956-0.30008-2.5434 18.666-43.935 1.9797-3.8236-119.33 67.531-0.53792 0.31642 1.2192 0.66358 1.8124 0.4697 0.68675-0.22445 0.92792-1.1268 1.5096-1.5554 0.4749-0.34997 1.2287-0.28866 1.607-0.74126 0.59104-0.70701 0.74937-1.6838 1.1241-2.5257 3.8565-3.7202 6.4211-8.3702 8.9381-13.049 0.22697-1.1005 0.27691-2.2529 0.68091-3.3014 0.59542-0.83545 2.025-2.7198 2.3866-3.7101 0.37206-1.0188 0.39907-2.1402 0.75195-3.1658 0.13759-0.39988 2.3392-4.7297 2.4694-4.9877 2.9137-3.9334 4.8966-8.6501 7.0969-13.062-0.23133-2.8086 2.4226-3.758 3.2465-6.0093 0.34077-0.93119 0.19986-2.0251 0.66934-2.8985 0.28169-0.52403 1.0263-0.62344 1.4489-1.0422 0.40673-0.40304 0.67144-0.92772 1.0072-1.3916-0.45874-2.7752 2.5462-3.5554 3.2699-5.6945 0.3368-0.99554 0.1237-2.1266 0.47574-3.1168 0.25629-0.72092 0.86926-1.2594 1.3039-1.8891 0.30095-0.86264 0.60191-1.7253 0.90286-2.5879 3.6311-1.7614-0.62316 0.77391 2.3631-3.4616 0.32957-0.46744 1.0512-0.45096 1.5768-0.67644 0.2833-0.89533 0.35119-1.8903 0.84988-2.686 0.28033-0.44729 0.98216-0.4485 1.3512-0.82599 0.55777-0.57061 0.91534-1.3073 1.373-1.9609 0.58702-1.9009 2.9387-2.4228 4.0253-3.7024 0.54342-0.6399 0.587-1.6259 1.1693-2.2306 4.8029-4.9881-1.248 3.6226 2.3513-1.8054 1.2759-0.46015 1.0132-2.2535 1.9899-2.9037 0.39763-0.26472 1.067 0.45496 1.4262 0.14005 0.47912-0.42007 0.14267-1.3234 0.51403-1.8412 0.42233-0.58887 1.3464-0.55014 1.9704-0.91847 0.81308-2.0228 0.16039-1.8274 1.9545-0.59813l130.74-55.704c0.01 2.9829 0.85312 2.6702-1.2574 2.3879-0.54773 0.72663-0.70774 1.9022-1.5497 2.2473-0.47499 0.19471-1.1405-0.64416-1.5124-0.2903-6.0973 5.8016 3.8717 0.13061-2.0933 2.3849-0.44643 0.16871-0.75492 0.5841-1.1324 0.87615-1.926 1.278-1.0545 0.3832-2.2746 2.9778-0.47995 0.41383-1.3735-0.0506-1.8699 0.34331-1.3455 1.0675-1.7234 3.9103-3.9203 4.3334-2.1505 1.46-1.258 0.4967-2.5575 2.9964-0.54217 0.37585-1.5231-0.35662-1.9752 0.12377-0.63887 0.67877-0.0734 2.0118-0.69156 2.7096-3.8302 4.3237-0.38732-6.2539-2.6046 3.079-4.9559 1.6239 1.1569-0.84687-3.0114 2.6087-0.48147 0.39914-1.4519-0.0518-1.8206 0.45336-1.4153 1.939 0.39586 5.4884-2.6919 6.4996-0.49953 1.6755-0.26262 3.6798-1.3116 5.0786-0.36901 0.4921-1.3595 0.0107-1.7894 0.45068-1.6641 1.7035-0.34901 5.2872-3.3677 5.9986-2.1978 4.95-5.3276 9.4243-6.6663 14.703-1.0029 1.282-1.7653 2.7478-2.8268 3.9817-0.45623 0.5303-1.2869 0.727-1.6081 1.3485-1.3242 2.5625 0.16275 3.3554-1.4344 5.8491-0.40217 0.62793-1.2301 0.84316-1.8452 1.2647-0.30481 1.3402-1.1298 5.277-1.7006 6.5318-0.37602 0.82651-1.1853 1.409-1.5483 2.2413-0.45674 1.0474-0.44119 2.2572-0.87448 3.3145-0.69817 1.7037-2.3262 2.9482-2.5566 4.8963-3.1168 1.9963-0.57645-0.18406-2.2814 3.9628-0.25094 0.61033-0.98889 0.94406-1.2126 1.5649-0.34198 0.94912 0.43457 2.477-0.43066 2.9958-119.54 71.675-75.885 75.958-124.86 70.702-4.0311-2.2688-8.2121-2.5865-10.734-7.0829-1.9376-2.9278-3.7492-5.7352-3.3675-9.3311 0.17505-2.5099 0.14779-5.0287 0.13495-7.5422 0.19422-3.289-0.019-6.6082 0.31347-9.8998-0.0739-4.9441 0.20111-9.8905 0.0437-14.839-0.0525-4.3835-0.14887-8.7665-0.16706-13.15 0.0964-4.2996 0.0694-8.5939 0.5123-12.881 0.35201-6.5285 0.60932-13.061 1.1166-19.583 0.38693-6.2133 2.122-12.177 1.9901-18.436 0.1048-8.7222 0.54319-17.451 1.0546-26.156 0.0245-0.29974 0.77304-9.5128 0.80949-9.726 1.0379-6.0722 3.2739-12.033 3.1682-18.308 1.5488-9.4655 3.9778-18.799 5.3095-28.328 3.6936-8.799-0.21094 1.3603 2.4669-8.9032 0.34826-1.3348 1.1346-2.528 1.4896-3.8611 0.38331-1.4393 1.1824-7.9168 1.5877-9.3572 0.33452-1.1889 0.98014-2.2673 1.4702-3.401 1.1194-6.8083 2.4129-13.672 1.178-20.561-0.77959-5.4038 1.0764 1.952 1.5954 1.678 113.93-60.139 157.94-97.864 120.96-66.304-1.1968 1.0814-1.9238 1.8982-3.4355 2.5866-0.78753 0.3586-1.7534 0.31115-2.4716 0.79383-0.81605 0.54844-1.1305 1.6855-1.9726 2.193-5.8969 3.5542 0.35607-3.1839-4.6958 3.107-2.341 1.9468-4.7723 4.7676-7.4247 6.2599-0.87686 0.49337-1.9895 0.46264-2.8582 0.97026-1.7849 1.043-2.8596 3.0675-4.7327 4.0083-1.4081 1.5057-3.1143 3.5261-4.8967 4.6261-0.92518 0.57095-2.0792 0.69923-3.0032 1.272-1.0247 0.63513-1.8051 1.6045-2.7806 2.3128-5.4675 3.9696-1.1259-0.17797-5.8788 4.8822-7.105 7.7095 1.8696-1.7182-5.5929 5.1717-0.94314 0.87076-1.6528 1.9766-2.6116 2.8301-0.81846 0.72862-1.915 1.1149-2.6901 1.8895-0.87607 0.87562-1.3263 2.1161-2.1981 2.9961-0.78493 0.7923-1.8078 1.3066-2.7117 1.9599-6.2349 8.7953 2.1207-2.3229-4.7437 4.855-0.85748 0.89663-1.3406 2.0926-2.1078 3.0676-2.4145 3.0681-5.5833 5.5129-7.1232 9.2312-8.1255 8.4192 2.7531-3.3726-4.6507 6.5131-0.6846 0.91409-1.8404 1.3945-2.5466 2.292-2.2536 2.864-3.4415 6.6924-5.7059 9.5752-2.6411 3.852-5.3929 7.6567-7.9436 11.565-0.63754 0.97682-1.0775 2.09-1.8238 2.9866-0.65509 0.78707-1.5528 1.3354-2.3292 2.0031-3.2574 6.2232-7.8144 11.631-10.729 18.01-4.7321 7.3153 1.04-2.0618-3.3364 6.7886-2.6134 5.285-7.4094 9.336-9.3489 15.021-5.2777 9.51-8.9789 19.709-13.476 29.594-1.5008 3.5996-3.3218 7.0705-4.6328 10.743-0.75096 2.104-1.1144 4.3309-1.8286 6.4476-2.0296 6.0148-5.1813 11.6-6.9175 17.726-1.094 3.3131-2.7521 8.4539-3.9909 11.742-1.052 2.7919-3.1778 7.5292-4.0933 10.419-0.55889 1.7644-0.76503 3.633-1.3848 5.377-0.49107 1.3819-1.2873 2.6355-1.9309 3.9532-1.3169 3.0553-2.5087 6.8861-4.3331 9.6874-0.32942 0.50583-1.2372 0.61344-1.3506 1.2063-0.24338 1.2727 0.25341 2.5791 0.38012 3.8686-41.047 23.741-82.094 47.483-123.14 71.224-11.062-16.883-7.2183-6.862-6.6238-18.518 0.6865-5.1603 2.5071-9.9995 4.4973-14.758 0.50638-2.9581 0.3816-3.2297 1.5018-5.9679 0.33604-0.82142 0.91593-1.5414 1.1697-2.3918 0.83895-2.811 0.83654-5.9742 2.0847-8.7103 1.1173-3.2801 1.0507-6.657 2.1473-9.9198 0.30834-0.91745 1.0242-1.6702 1.2924-2.6002 0.7139-2.4757 0.30417-5.1908 1.2272-7.6318 0.4481-2.8465 0.79073-5.7368 1.6684-8.499 0.38638-1.216 1.1203-2.3082 1.4628-3.5373 0.40173-1.4415 0.36516-2.9807 0.75624-4.4251 0.64637-2.3873 2.1274-4.4955 2.6601-6.9266 2.0534-7.5915 5.5676-14.615 7.0131-22.362 0.97714-2.9618 1.6813-6.0321 2.8403-8.9304 0.34363-0.85933 0.69418-1.7222 1.155-2.5248 0.36614-0.63771 1.0574-1.0834 1.3126-1.773 0.33047-0.89326 0.26033-1.887 0.3905-2.8305 0.53921-1.6004 0.85857-3.2831 1.5527-4.8226 0.3122-0.69243 0.97299-1.2052 1.2237-1.9222 1.0705-3.0614 1.077-6.642 2.5745-9.6153 1.6116-5.8525 2.5676-11.9 4.3339-17.704 0.48382-1.5899 1.2208-3.0965 1.6861-4.6919 0.5136-1.761 0.83046-3.5734 1.2457-5.3601 2.9365-11.908 5.4816-23.951 9.3223-35.601 2.8315-13.402 7.0966-26.466 10.618-39.693 3.8577-13.506 8.1658-27.033 13.85-39.883 5.4228-14.175 12.015-27.847 16.525-42.359 4.9794-13.391 8.8411-27.197 11.675-41.199 0.63911-5.0195 0.85655-9.64 0.36806-14.682-0.24787-2.5586-0.81145-4.7208-0.6219-4.7967 0.50172-0.20075 0.6161 0.88799 0.92414 1.332 41.922-21.293 83.978-42.325 125.77-63.878 0.34506-0.17796-0.73806-0.25047-1.0829-0.42878-0.46511-0.24047-0.81452-0.81169-1.338-0.82289-1.1177-0.0239-0.48017 2.2384-1.1015 3.1678-0.26116 0.39069-0.93123 0.12725-1.3968 0.19087-0.14941 0.1945-1.8191 2.3854-1.9422 2.4687-0.51159 0.34639-1.3332 0.14465-1.755 0.59601-1.6159 1.7288-1.4884 4.8921-4.9467 5.9308-3.0311 2.0271-5.1903 4.5705-7.9613 6.9063-3.2689 2.7556-6.8051 5.2078-9.755 8.3556-3.0873 2.7568-6.8513 5.3572-9.6554 8.3836-0.94348 1.0182-1.491 2.3597-2.4304 3.3817-5.9824 6.5085 0.37756-2.5349-4.8374 5.4647-5.7834 5.0788-9.4659 11.919-13.402 18.415-5.0501 5.9996-7.9415 13.41-13.076 19.337-4.6317 5.7668-8.9016 11.787-13.833 17.315-5.4435 5.0578-10.01 11.014-15.051 16.462-2.8379 3.1107-6.1957 5.6418-8.8322 8.9316-0.95487 1.1914-1.6493 2.5814-2.6398 3.7434-6.5814 7.7211 0.38983-2.36-5.5823 6.8309-0.59418 0.63167-5.2173 5.5225-5.7419 6.1773-0.93155 1.1626-1.5959 2.5285-2.5651 3.6598-2.786 3.252-6.3183 5.9522-8.5365 9.7294-5.4913 7.4013-11.327 14.459-17.221 21.539-5.2611 8.0643 0.37534-0.092-5.3899 6.9236-3.8535 4.6892-7.0466 10.052-11.256 14.513-5.6222 7.817-11.529 15.315-17.602 22.8-5.2383 6.976-9.6403 14.458-15.489 20.981-2.5798 4.3915-5.7446 7.8986-8.7314 12.003-1.1886 1.6332-2.1283 3.4456-3.3905 5.0227-11.913 14.885 3.9043-7.0046-7.7656 9.5344-10.873 14.396 2.9683-4.2025-7.6906 11.034-5.2813 7.5494-11.532 14.401-16.418 22.247-8.1263 10.762-15.773 21.856-23.616 32.809-2.9086 4.152-5.7602 8.4026-9.1453 12.193-0.84178 0.94259-1.8602 1.7227-2.662 2.6995-0.74389 0.90623-1.1457 2.0755-1.9544 2.9244-0.61703 0.64771-1.4932 0.98561-2.2398 1.4784-1.0275 3.0368-0.17424 2.628-2.3518 3.7491-42.267 21.761-83.603 45.441-126.84 65.201-1.4566 0.66566-4.675-7.525-4.9943-9.0846-0.19065-0.93122-0.0338-1.9008-0.0507-2.8512 0.62028-1.9283 0.72889-4.0214 1.5343-5.8801 0.38892-0.89756 1.3152-1.4781 1.7555-2.3516 0.59013-1.1708 0.77222-2.5121 1.3009-3.7119 0.54371-1.234 1.2711-2.3786 1.9067-3.5678l1.9059-4.4169c4.52-9.4761 8.2176-19.238 13.213-28.475 3.9791-9.8725 9.4848-18.92 14.698-28.163 5.7203-9.1216-0.70778 1.545 4.5463-8.615 2.6042-5.0358 6.0546-9.66 8.6227-14.723 3.7394-6.1026 7.3377-12.221 10.976-18.374 3.9375-7.4569 8.5731-14.517 12.886-21.759 5.1871-7.4945 8.6374-15.955 14.055-23.302 5.0906-7.2244 9.7191-14.841 13.354-22.906 4.2326-6.6617 8.0802-13.528 12.253-20.165 2.6348-6.8081 6.5464-12.624 10.051-18.95 4.607-7.203 9.0805-14.365 13.313-21.823 5.536-9.8656 10.58-19.962 16.399-29.662 6.2349-11.497 11.884-23.278 17.782-34.935 6.2302-12.672 13.892-24.618 20.604-37.041 8.6498-12.736 17.933-24.979 26.974-37.434 7.6592-9.5395 16.224-18.231 23.931-27.721 3.0416-3.5778 6.5642-6.7136 9.5931-10.271 0.57084-0.67049 2.6596-4.3037 3.9458-4.7122 0.65867-0.20921 1.3212 0.40615 1.9818 0.60923 3.8703 2.1525 3.7151 12.654 7.7373 10.8 42.321-19.499 80.667-46.673 121.27-69.526 0.59957-0.33742-0.4931 1.326-0.96995 1.8219-1.0054 1.0457-2.857 0.99451-3.7748 2.1654-1.4961 1.0864-2.6271 2.6645-4.2264 3.5922-0.84007 0.48726-2.002 0.2507-2.8005 0.80335-2.0476 1.4171-3.9472 5.4952-6.6618 6.4402-1.6204 1.1371-3.3247 2.1613-4.8714 3.3968-1.8748 1.4976-2.536 2.6373-4.5819 3.9722-0.95608 0.62384-2.1262 0.89293-3.0403 1.5768-1.0953 0.81941-1.9472 1.9218-2.9208 2.8827-4.8184 3.6557-10.042 7.0879-14.474 11.211-1.1739 1.0923-2.1042 2.4429-3.3506 3.4516-1.1575 0.93672-2.5371 1.5597-3.8056 2.3395-6.1921 5.9189-12.652 11.465-18.846 17.358-3.8579 3.0769-7.9117 5.8484-11.787 8.9029-2.6642 2.1-4.9342 4.6706-7.601 6.7673-1.2812 1.0073-2.7692 1.7194-4.1538 2.5791-6.7779 6.0902-13.265 12.431-19.101 19.367-3.5231 3.778-7.4802 7.1115-10.77 11.104-2.9441 3.5738-3.4543 5.1246-6.7082 8.4152-1.1465 1.1594-2.4778 2.1202-3.7166 3.1802-5.7708 5.8168-10.996 12.038-16.792 17.844-2.0095 1.5938-4.1883 2.9676-6.1842 4.5785-4.205 3.394-7.0707 8.1639-11.496 11.344-5.1018 4.771-10.844 8.719-15.244 14.245-1.0574 0.51407-2.259 0.80153-3.1721 1.5422-1.0413 0.84471-1.6473 2.1201-2.5569 3.1052-0.12386 0.13415-5.5521 5.3569-5.7117 5.4863-0.92648 0.75135-2.081 1.2011-2.9697 1.9967-0.8745 0.78292-1.5124 1.7954-2.2686 2.6931-4.6624 3.8949-6.934 9.8627-12.229 12.876-4.9977 7.0727 1.3483-1.1864-4.5812 4.4312-0.91209 0.86412-1.3995 2.1097-2.299 2.987-0.87313 0.85156-2.0896 1.2952-2.9637 2.1457-0.69347 0.67478-4.5661 5.8967-5.1156 6.6287-0.89315 0.98472-1.8733 1.8971-2.6794 2.9542-0.81802 1.0726-1.2344 2.446-2.1758 3.4122-0.77782 0.7984-2.0816 0.94102-2.851 1.7475-0.85495 0.8962-1.1143 2.2308-1.876 3.2075-0.64015 0.82089-1.5235 1.419-2.2852 2.1286-0.67956 0.93954-1.3591 1.8791-2.0387 2.8186-3.0292 3.1289-6.4727 6.194-9.1386 9.64-0.7975 1.0309-1.2884 2.2841-2.1318 3.2778-0.82281 0.96939-1.8836 1.7085-2.8254 2.5627-1.6914 2.0292-3.7818 3.7113-5.4073 5.7936-0.85264 1.0923-1.2773 2.4711-2.0892 3.594-0.70302 0.97226-1.7095 1.696-2.4297 2.6556-4.2883 5.7135 0.47872 1.015-4.4585 5.4421-1.4005 1.8568-2.5219 3.9589-4.1917 5.5778-0.80885 0.78414-1.908 1.209-2.7785 1.9241-44.028 36.17 113.38 10.242-127.59 76.234 39.302-22.637 160.52-83.436 117.91-67.91-44.563 16.236-82.52 46.779-123.84 70.07-3.0463 1.7173-6.6072 1.0967-9.8386 0.28007-3.383-0.23041-6.7563-0.50604-9.9283-1.8229-4.3818-2.3385-11.28-8.4303-10.232-13.685 0.569-2.3444 0.36232-1.0396 0.47751-3.9344 0.48617-2.6338 2.4408-6.879 3.4574-9.352 2.8595-7.8418 8.9463-13.968 12.291-21.593 4.3835-8.056 8.7178-16.112 12.665-24.371 1.3636-2.1828 2.4126-4.5592 3.862-6.686 0.62661-0.91947 1.5745-1.5878 2.2132-2.4989 0.69832-0.99628 1.0335-2.2245 1.7742-3.1897 0.63174-0.82319 1.707-1.2498 2.2911-2.1075 0.6871-1.009 0.95847-2.2455 1.4377-3.3682 4.9835-4.1556 7.9476-11.798 11.644-17.191 2.0691-2.6354 3.9266-5.4707 6.0103-8.0804 0.67403-0.84417 1.6462-1.451 2.2035-2.3764 0.67444-1.12 0.73744-2.5427 1.4274-3.6531 0.56363-0.90707 1.504-1.5165 2.256-2.2748 4.8841-4.9706 8.9743-10.525 13.127-16.132 6.6562-9.7714-2.3217 2.7754 4.8459-5.3879 0.88535-1.0084 1.3464-2.3384 2.2134-3.3625 2.6898-3.1769 6.2404-5.7434 8.3993-9.4262 7.5217-6.2226-0.77718 1.17 6.3805-7.1852 1.147-1.3388 2.679-2.3067 3.8598-3.6158 3.8185-4.234 6.285-9.5976 10.872-13.169 8.5248-9.0022 16.288-18.609 25.06-27.378 4.6857-5.7562 9.3643-11.622 13.703-17.643 1.1106-1.5413 1.9403-3.2811 3.1258-4.7655 1.1028-1.3808 2.4714-2.5265 3.7072-3.7898 2.1211-2.6233 4.019-5.4332 6.2827-7.9346 1.1128-1.2297 2.5728-2.1291 3.6125-3.4212 1.137-1.4129 1.7618-3.1857 2.8635-4.6264 0.97474-1.2748 2.221-2.3169 3.3315-3.4753 0.93294-1.2218 1.8659-2.4435 2.7988-3.6653 6.1444-5.2659 9.6378-12.988 16.026-18.013 5.8442-7.92 12.429-15.301 19.004-22.607 13.013-16.562-6.0425 7.3413 7.7559-8.8104 1.353-1.5838 2.4121-3.4011 3.7355-5.0097 3.8112-4.6325 7.8983-9.0397 11.479-13.877 3.1204-5.1738 6.7472-9.7666 10.097-14.761 3.1341-4.6726 2.2998-4.4615 5.2939-8.9439 0.75216-1.126 1.6466-2.1503 2.4698-3.2254 1.3033-2.645 1.2543-4.0171 3.9009-5.1696 0.45428-0.19783 1.0306 0.12652 1.4847-0.0716 260.85-113.81 169.63-78.497 127.67-56.112-1.047 1.3876-1.9253 2.9124-3.1014 4.1924-0.27731 0.30179-4.3586 3.7454-4.5393 3.9721-0.84062 1.0548-1.1699 2.4703-2.0636 3.4805-0.83723 0.94633-2.0202 1.5181-3.0303 2.2772-6.2629 6.1775-11.38 13.613-16.699 20.578-3.9584 3.3304-6.9148 6.9728-10.452 10.694-3.6607 3.8509-7.9118 7.1904-11.16 11.456-12.642 14.285 6.0832-7.1553-6.0822 7.7269-0.92054 1.1261-2.0918 2.0272-3.0404 3.1298-0.93258 1.084-1.6054 2.3833-2.5926 3.418-0.92551 0.97005-2.1837 1.5823-3.1064 2.5551-1.02 1.0755-1.7877 2.365-2.6816 3.5474-6.4741 5.5352-11.709 12.354-18.363 17.7-4.58 4.9941-9.2626 9.7021-13.893 14.613-5.519 6.3908 1.5835-1.5536-4.5998 4.458-3.4824 3.3857-6.3916 7.4013-9.7998 10.846-4.9312 6.249-9.7087 12.522-14.266 19.055-6.0631 7.0131-11.167 14.676-17.266 21.676-0.18495 0.18455-6.8029 6.7847-6.9224 6.9173-1.1548 1.2823-2.064 2.7791-3.269 4.0144-5.1414 5.2705-2.1026 0.87638-7.2613 6.0327-1.1408 1.1402-2.0527 2.4884-3.079 3.7326-3.2588 3.0508-3.553 3.4669-7.1048 6.2212-1.1693 0.90678-2.4866 1.6263-3.5852 2.6176-1.1359 1.0251-1.9156 2.4118-3.0835 3.4003-10.661 9.0238 3.5639-5.1324-6.7461 5.503-10.708 5.7862 3.6392-2.5206-6.3873 5.2425-0.9697 0.7508-2.3078 0.86388-3.3689 1.4788-0.97612 0.56561-1.6789 1.5623-2.7015 2.0388-0.87062 0.40562-1.9908 0.0726-2.8306 0.53865-0.70976 0.39385-1.0265 1.2577-1.5398 1.8865-40.891 23.802-81.407 48.258-122.67 71.406-0.89437 0.50169-1.9503-0.63449-2.9254-0.95191-0.43348-0.1411-1.0119-0.0707-1.3003-0.42366-3.1145-3.8118-6.0625-8.5645-7.2822-13.394 1.5464-3.8294 1.3387-8.4473 5.1497-10.93 1.721-2.6682 2.1537-5.5854 3.7107-8.3173 0.50061-0.87831 1.3608-1.5245 1.8238-2.4233 1.2204-2.3692 1.413-5.1873 2.942-7.4342 4.7504-7.3308 7.8235-15.724 13.103-22.755 3.7249-7.3281 7.9688-14.326 12.049-21.41 3.0553-5.8862 5.5143-11.922 9.0167-17.578 3.8261-5.0019 7.973-9.5947 11.591-14.735 3.7955-3.1725 2.4535-4.5063 4.8972-7.4452 0.52008-0.62547 1.4108-0.83537 2.0055-1.3904 4.2453-3.9623-0.90723-0.42017 3.6905-3.3172 2.231-4.9813-0.11278-0.76832 3.165-4.4033 2.5462-2.8237 3.98-6.5735 6.9813-9.0523 1.1135-1.4103 2.0822-2.9446 3.3213-4.2458 0.54508-0.57241 1.38-0.86252 1.8216-1.518 1.3547-2.0106 1.4529-4.9379 3.1115-6.838 0.78556-0.71081 1.8607-1.153 2.4336-2.0442 1.4945-2.3246-0.22134-1.7461 1.7488-3.5968 0.42135-0.39582 1.1799-0.38711 1.502-0.86717 0.47661-0.71033 0.48698-1.64 0.73046-2.4601 0.9878-2.1542 2.5332-3.7583 3.4849-5.9181 0.41922-0.95145 0.56594-2.0146 1.0357-2.9422 0.41784-0.82512 1.0678-1.5105 1.6016-2.2657 0.45523-0.92896 0.91046-1.8579 1.3657-2.7869 1.9292-3.7166 1.1139-1.669 2.2897-6.2028 0.80159-1.7123 2.5253-2.8642 3.398-4.5414 0.51044-0.98091 0.76292-2.0772 1.2065-3.0902 0.40685-0.92912 0.89497-1.8205 1.3424-2.7307 3.9501-7.8125-1.487 3.3818 2.344-6.3073 1.6731-4.2316 4.8989-7.8662 5.1767-12.589 1.0541-1.7036 2.2988-3.285 3.3414-4.9957 2.3975-3.934 3.3898-8.5822 6.1858-12.303 2.106-5.6835-0.16563-0.49797 2.672-4.8963 1.7391-2.6956 2.2704-5.6874 4.835-1.3604 2.2162 3.2223 4.6174 6.3248 6.6484 9.6669 0.1145 0.18842-0.37726 0.22898-0.55731 0.35623-0.47022 0.33229-1.7718 1.455-1.2729 1.1676 120.53-69.433 150.77-105.34 119.98-68.984-40.905 23.475-81.81 46.95-122.71 70.424-0.57247-0.0872-1.1621-0.4258-1.7174-0.26158-0.70484 0.20844-1.5612 2.4393-2.4629 2.5336 39.888-23.288 79.776-46.575 119.66-69.863-1.5518 0.96035-3.5732 1.8458-4.9404 3.0342-0.63907 0.55552-1.0045 1.3861-1.6578 1.9248-5.7767 4.7643 1.443-2.8304-4.284 3.5728-4.6925 2.5028-9.0348 5.6524-13.708 8.1349-4.1354 4.9518 0.75656-0.45776-3.9993 3.4983-1.6339 1.3591-2.7986 3.2179-4.4046 4.6098-4.9936 4.3277-0.73935-0.72865-5.1605 5.2305-3.0185 2.3733-5.9977 4.9885-8.441 7.9774-0.84341 1.0318-1.3792 2.3007-2.2742 3.288-1.4702 1.6217-3.778 2.3822-4.7902 4.4916-2.876 5.3743-7.9624 8.95-11.257 14.082-5.7196 4.1254 0.68121-0.93947-4.4925 4.8093-0.72303 0.80339-1.7472 1.2819-2.5344 2.0226-2.4536 2.3086-4.4315 5.1477-6.6768 7.6438-0.84119 0.68148-1.7502 1.2869-2.5236 2.0444-0.84692 0.82952-1.3894 1.9603-2.3178 2.6974-0.8516 0.6762-2.0315 0.8291-2.9175 1.4595-0.96676 0.68786-1.653 1.7117-2.5801 2.4521-11.497 9.1817 5.8244-5.6892-6.0735 4.678-3.3754 2.7986-6.6875 5.6772-10.118 8.4087-1.097 0.87346-2.3358 1.583-3.3253 2.5766-0.99849 1.0026-1.5821 2.3701-2.5901 3.3631-0.82174 0.80955-1.8908 1.3218-2.8363 1.9828-0.83937 0.72146-1.5967 1.5512-2.5181 2.1644-0.82535 0.54918-1.9663 0.60334-2.6782 1.2932-0.79588 0.77125-0.78141 2.1918-1.6406 2.8918-0.69882 0.56939-1.8892 0.0927-2.6381 0.59441-0.89135 0.59712-1.3375 1.6779-2.0062 2.5169-0.89564 0.50912-1.7913 1.0182-2.6869 1.5274-5.6713 3.7186-11.134 7.747-17.012 11.125-1.5855 1.2372-3.3489 2.2432-4.8822 3.5445-0.76624 0.65035-1.2652 1.5909-2.0716 2.1907-2.0838 1.5498-4.904 2.4053-6.8903 4.1928-4.6885 4.4828-9.7475 8.3906-14.791 12.49-0.80712 0.55796-1.6142 1.1159-2.4214 1.6739-0.64855 0.71112-1.1733 1.5591-1.9456 2.1334-2.5813 1.9194-4.663 1.2265-5.4329 5.2616-66.298 44.251-103.61 114.55-132.61 59.8-0.35802-0.67593 0.36177-1.6412-0.08968-2.2929-0.07118-1.3133-1.022-2.8513-0.27811-3.9359 0.27555-0.40175 0.99827 0.95615 1.3321 0.60132 0.9278-0.9862-1.0937-3.6763 1.2435-4.0641 0.6575-2.3057 1.4769-1.7916 2.2291-3.7202 0.31216-0.80035 0.18152-1.7707 0.64193-2.496 0.76732-1.2087 3.2062-0.90459 2.9588-3.1135 3.2317-5.0878 8.5182-8.7718 10.583-14.632 2.2278-2.396 4.5145-4.7764 6.5431-7.3478 0.54905-0.69596 0.93904-1.5259 1.5771-2.1413 0.52973-0.51096 1.2442-0.78665 1.8663-1.18 3.7825-4.6827-0.74227 0.47374 3.5727-3.1743 1.3782-1.1652 2.2869-2.816 3.6495-3.9995 0.73056-0.63451 1.6471-1.0303 2.3802-1.6619 0.74223-0.63946 1.3488-1.4212 2.0233-2.1318 0.55731-0.94756 0.8525-2.1099 1.6719-2.8427 0.7183-0.64235 1.8842-0.53009 2.6902-1.0582 2.2436-1.4702 5.7663-5.3347 6.9404-7.7549 0.49192-0.58325 0.98383-1.1665 1.4757-1.7498 0.62308-0.26918 1.4147-0.30345 1.8692-0.80754 0.59972-0.66517 0.50298-1.7744 1.0778-2.4611 0.71965-0.85972 4.5491-2.6939 4.8441-4.5714 2.2214-5.792-0.30979-0.3888 2.9593-4.6949 0.58972-0.77679 0.79578-1.8186 1.4518-2.5402 0.5475-0.6023 1.5044-0.71913 2.0555-1.3181 1.0758-1.1692 1.7694-3.555 2.282-4.979 4.7342-3.5585-2.3736 2.2441 1.9888-3.3552 0.32185-0.41311 1.2468 0.0474 1.5193-0.39979 1.6687-2.7381-1.0292-2.0146 2.4563-4.1727 0.19742-1.3572 0.27396-3.0434 1.092-4.2449 0.34708-0.50972 1.0531-0.69535 1.4087-1.1992 1.2176-1.7254 2.4346-4.472 2.9703-6.4872 2.9253-2.7721 0.51992 0.0892 2.1107-4.6247 1.0084-2.9882 3.3009-5.5784 4.0444-8.7034 1.6544-2.8249 0.97515-1.1822 1.7251-5.0463 0.3398-0.64565 1.253-0.78401 1.7416-1.3258 1.8268-2.0258 2.476-4.9908 4.8303-6.604 0.46216-0.8497 0.84383-1.7484 1.3865-2.5491 0.43326-0.6393 1.1856-1.0509 1.5238-1.7452 0.40743-0.83638 0.17776-1.9122 0.64867-2.7146 0.83418-1.4213 2.5686-0.0294 2.1991-2.3718 1.1405 1.794 2.2479 3.6094 3.4215 5.3819 5.4689 8.2602 7.479 6.588 2.6752 8.0103 40.345-22.985 80.815-45.752 121.04-68.956 0.35086-0.20242-0.8273-0.32998-1.2023-0.17676-0.40135 0.164-0.41847 0.85549-0.82534 1.0053-0.8973 0.33035-1.7862-0.86437-2.4451 0.44389-0.32911 0.65348-0.26343 1.4394-0.39515 2.1592-3.4416-0.86203-1.7679-0.40234-3.3846 1.5255-1.1796 1.4067-2.8936-0.42248-3.2689 1.9918-2.6946 4.7303 0.92501-0.80799-2.3338 2.0937-0.94577 0.84211-0.99894 2.362-1.79 3.351-0.3504 0.43805-1.0115 0.5668-1.3342 1.0257-0.41005 0.58323-0.52373 1.3262-0.7856 1.9894-1.9891 1.5222-0.85347 1.0062-3.4425 1.4669-1.4208 0.92291-1.735 3.0136-3.0811 4.0424-0.69691 0.53265-1.6654 0.5681-2.4498 0.96066-0.79423 0.39748-1.5113 0.93329-2.267 1.3999-0.66736 0.66431-1.3347 1.3286-2.0021 1.9929-0.76386 0.3762-1.657 0.56091-2.2916 1.1286-0.69437 0.62113-0.83038 1.7406-1.5615 2.3181-0.62116 0.4906-1.6164 0.25542-2.2672 0.70592-0.65105 0.45065-2.4095 3.226-2.8514 3.8918-0.34818 0.72137-0.35546 1.7557-1.0445 2.1641-1.0093 0.59816-326.12 188.53-7.5296 4.6804l-132.33 51.052z"/>
	</g>
	<g id="layer11" transform="translate(0 -252.36)">
		<path id="path5716" d="m327.18 455.42c-4.1053 0.59192-8.2854 1.056-11.806 3.3899-1.4832 1.3016-3.7168 0.68492-5.3341 1.4433-0.63898 0.29965-1.1216 0.8695-1.7477 1.1951-12.489 3.4326 33.457-19.115 19.511-11.027-8.4831 4.9198-17.017 9.7521-25.525 14.628 7.7432-4.4189 15.433-8.9325 23.23-13.257 0.47639-0.26423-0.7714 0.78806-1.2425 1.0616-8.5163 4.9459-17.054 9.8588-25.695 14.583-7.73 4.2257 15.268-8.794 22.961-13.088 0.0992-0.0554-1.9788 1.58-2.0183 1.6112-29.595 17.324-36.714 21.423-2.1853 1.4663 0.33267-0.19227-0.67734 0.36386-1.005 0.56451-0.8313 0.50902-1.2492 1.0563-1.8524 1.7881-78.856 49.12 17.03-13.611-4.7067 3.8388-1.1392 1.926-2.9277 3.0692-4.3202 4.8008-1.6115 1.3219-2.749 3.0623-3.7914 4.8433-1.2625 1.5784-3.0285 2.9782-4.1025 4.6704-0.8689 1.9207-2.9025 3.1082-3.7268 5.0246-0.78847 2.1043-2.4405 3.6512-3.1626 5.8014-1.3528 1.7509-2.4197 3.1551-3.1925 5.2908-1.391 1.5553-2.1914 3.4659-2.6102 5.4943-0.36476 2.2365-0.63828 4.4059-1.4988 6.5168-1.6578 1.9978-1.5699 4.7477-1.9534 7.1929-0.73987 2.4617-1.5838 4.8708-2.1615 7.3755-0.42885 2.1874-0.42298 4.4386-0.9792 6.5981-0.26903 2.0626-0.14498 4.1596-0.059 6.2324 0.08 2.109 0.0844 4.2186 0.13716 6.3281 0.01 2.0383 0.005 4.0764 0.0389 6.1146-0.0159 2.1452-0.0178 4.2905-0.0117 6.4358-0.0401 2.8758-0.0331 5.7526-0.008 8.6286-0.009 2.4665-0.0159 4.9334 0.0194 7.3998-0.009 2.0418-0.0207 4.0838 0.008 6.1256-0.0246 2.1 0.004 4.1995-0.0296 6.2996 0.009 2.0725 0.0438 4.1458 0.007 6.2182 0.25783 1.4955-0.48234 3.3248 0.28512 4.6893 0.93688 1.4216 2.0051 2.6507 3.0394 4.0128 1.0948 1.7322 2.2117 3.4368 3.2959 5.1779 0.87356 1.7952 1.7675 3.4368 3.0185 4.9656 0.90604 1.9403 2.3062 3.5932 3.92 5.0232 1.0836 2.1758 2.7844 3.8792 4.2417 5.8025 0.90919 1.8275 1.4102 4.1564 2.96 5.5718 1.2933 1.4286 1.5 3.3971 1.9638 5.1926 0.78386 1.2477 1.9333 1.9278 2.7146 3.1255 1.4882 0.8412 2.1317 2.4655 3.248 3.6877 1.3187 1.1355 2.5976 3.1303 3.6465 4.6789 1.0331 1.4938 2.4687 2.0646 3.4285 3.6747 1.0423 1.1293 2.065 2.0546 2.9443 3.4728 1.7316 0.0541 2.2113 1.6736 3.4164 2.6497 1.6274 0.41871 2.5817 1.7735 3.8475 2.7773 1.4599 0.43451 0.97977 3.5055 2.381 3.279 1.536 0.53828 2.2853 2.215 3.8366 2.6932 2.0074 0.0434 2.6173 2.8603 4.3166 3.1309 1.6879 0.22617 2.6914 1.2485 4.2053 1.9845 1.8174 0.70196 3.0988 1.4447 5.1016 1.4511 2.0323-0.49504 3.0428 1.3174 4.833 1.7341 1.2412 0.77202 2.636 0.81323 4.0632 0.8945 1.8962-0.1249 3.1408 0.24676 4.7085 1.2756 1.3662 0.98017 3.1666 1.1114 4.7991 1.397 1.6 0.90197 3.0119 2.925 4.9274 2.8674 2.3589-0.50334 3.6971 1.7155 5.5988 2.1158 1.6362 0.76443 3.4323 0.84312 5.208 0.94214 1.9025 0.0889 3.8063 0.11398 5.7106 0.13348 1.8302 0.0136 3.6604 0.027 5.4907 0.0104 1.7161 0.01 3.4322 0.019 5.1483 0.004 1.852 0.0111 3.7042 0.0184 5.5563 0.002 1.8948 0.0101 3.7897 0.0173 5.6845 0.00045 1.6562-0.23171 4.2844 0.73173 5.4453-0.59512-0.51452 0.87115 3.9693-1.8891 2.7553-1.1949-7.8366 4.4809-31.933 16.696-23.517 13.429 18.704-7.2608 18.898-7.5817 26.266-14.925 1.7695-0.99173 3.5935-1.7447 5.6156-1.9073 1.5806-0.42882 3.2629-0.46631 4.9025-0.42607 1.3187-1.3569 3.3204-2.1062 5.2189-2.2177 1.0983-0.76096 2.7804 0.048 3.8711-0.51429 0.66884-0.34483 1.1452-0.99512 1.8071-1.3531 1.5994-1.2381 3.2449-1.2163 5.1107-1.5683 1.4909-1.3965 3.6152-1.9612 5.5364-2.662 19.058-13.898-77.679 47.489 3.4004-2.0054 7.6445-4.6665-31.25 17.504-23.295 13.389 8.7382-4.5196 17.097-9.737 25.646-14.606 10.072-6.4088-30.056 16.653-22.361 12.828 8.7004-4.3245 16.807-9.7563 25.311-14.455 0.37223-0.20567 1.623-0.43859 1.256-0.22377-44.751 26.194-30.406 17.456-22.615 12.702 80.594-48.675-14.844 11.488 5.3062-3.4618 13.849-8.6899 53.23-31.116 2.8872-2.1193-0.58235 0.33542 1.0597-0.86267 1.4234-1.4278 66.36-38.534 1.9908-1.0766 1.5008-0.79346-0.21092 0.12191 0.40819-0.27057 0.58482-0.43836 0.84959-0.80708 1.2142-1.6535 2.2713-2.2183 1.3475-0.52572 1.2097-1.9336 1.9612-2.8593 0.32293-0.3978 0.91997-0.46487 1.3262-0.77713 1.0522-1.3824 2.1705-2.6885 3.2303-4.1097 0.84652-1.4717 2.2877-2.5798 3.36-3.9016 0.57578-1.828 2.0225-2.8753 3.0956-4.4372 1.2737-1.4363 2.5612-2.8196 3.7599-4.3381 1.6408-0.85226 2.0104-2.276 2.8937-3.721 1.2478-1.2326 2.266-2.3182 2.7291-4.0338 0.84948-1.5032 1.7656-2.8526 2.4352-4.4604 1.5066-1.5509 2.1506-3.8325 3.5875-5.3846 1.602-1.1981 1.5474-3.4393 3.357-4.353 1.3042-1.1389 1.5774-2.6655 3.0157-3.6838 1.2307-0.99562 1.624-2.5733 2.8661-3.5403 1.4178-1.007 1.6623-2.6666 2.7663-3.9717 1.3189-0.9891 1.8076-2.3084 2.0905-3.8672 0.78167-1.7392 2.041-3.0448 2.5588-4.8899 0.29538-1.9525 1.0796-3.712 2.2658-5.2832 0.97691-1.6606 0.90689-3.6224 1.4926-5.4174 0.75789-1.8305 1.8463-3.3803 2.2188-5.3479 0.25381-1.6184 0.28196-3.2557 0.3336-4.889 0.0305-1.8142 0.0179-3.6287 0.0358-5.443-0.009-2.0923 1.0769-3.8879 1.6804-5.8359 0.5893-1.7609 0.7886-3.6316 0.92275-5.4766 0.15473-1.8783 0.19811-3.7664 0.20247-5.651 0.0396-1.9003 0.0563-3.8017 0.035-5.7026 0.12498-1.6539-0.78224-3.1228-1.3712-4.6264-0.54213-1.6263-0.82677-3.1794-1.9585-4.5174-1.2429-1.8684-1.8548-4.1055-3.215-5.9024-0.87535-2.1337-1.8717-4.2042-2.8672-6.2884-1.2905-1.4181-1.5522-3.4417-1.9514-5.2502-0.76497-1.935-1.836-3.7018-2.3736-5.7142-0.30514-2.0265-1.5101-3.7098-2.2525-5.5655-0.65196-1.665-1.6314-3.1303-2.4034-4.7696-1.1812-0.97758-1.37-2.8371-1.9257-4.241-0.97677-1.7988-1.7269-3.6887-2.5642-5.5539-1.1404-1.6204-2.2282-3.0759-3.608-4.4778-0.84922-1.5468-1.8943-2.8916-3.1691-4.101-0.73704-1.3925-2.1154-2.1032-3.2214-3.1284-1.2913-1.2567-1.9455-2.9327-3.3336-4.0658-1.0261-1.5695-1.5301-2.853-3.256-3.6265-1.3218-0.8432-1.5732-2.2016-3.0592-2.9006-1.7541-0.47095-2.9001-2.0983-4.6788-2.7584-2.1669-0.35474-3.213-0.32147-4.6231-2.2463-1.7961-0.32174-2.5385-1.912-3.9192-2.8603-1.97-0.51874-3.204-1.1678-4.7668-2.5573-2.001-0.24509-2.8204-2.2522-4.4677-2.9718-2.133-0.65873-3.2222-2.6804-5.1858-3.5707-2.0463 0.1817-2.3127-2.2842-4.0687-2.6828-1.7571-0.49054-2.9061-2.0361-4.4883-2.8959-2.0159-0.25312-3.668-0.64309-5.4278-1.6568-1.8361-0.98439-3.9719-0.96765-5.6873-2.0957-2.1256 0.31529-3.7751-0.51208-5.6613-1.3567-1.7929-0.61953-3.6467-0.85991-5.5191-1.0779-1.9575 0.40031-3.9073-0.7761-5.714-0.69158-1.556-0.1261-2.9158-1.3861-4.559-1.7039-1.5852-0.40339-3.2238-0.47449-4.8488-0.59682-2.2243-0.14905-4.1078-0.53679-6.3559-0.42964-2.1451 0.19171-4.2985 0.16563-6.4491 0.23454-2.0687 0.0602-4.1389 0.0376-6.2082 0.0657-2.1431-0.002-4.2864-0.005-6.4295 0.0166-2.226-0.0341-4.4521 0.01-6.6781-0.0145 0.37728-1.3551-2.1603 0.87087-1.65 0.58721 7.9541-4.4217 30.935-19.045 23.759-13.448-8.2629 6.4444-17.114 14.452-27.573 15.1-2.0306 0.59525-3.7194 2.1681-5.9561 2.4409-2.0495 0.87753-4.6866 0.0911-6.4992 1.3721-1.9578 0.31976-4.2936-0.77831-6.0063 0.34155-0.36554 0.25567-0.70362 0.55596-1.0966 0.767-0.13259 0.0712-1.8118 0.67603-2.0523 0.76136-0.53131 0.18852-2.1454 0.61815-1.6578 0.33518 7.8318-4.545 15.793-8.8634 23.69-13.295-84.526 49.568 53.585-31.392-29.157 17.763 7.743-4.4718 15.43-9.0413 23.229-13.415 0.67055-0.37609-0.88596 1.3173-1.5459 1.7117-8.392 5.0154-16.902 9.8306-25.363 14.729-0.28649 0.16587-1.1647 0.62957-0.87849 0.46324 7.8548-4.5645 15.723-9.1054 23.585-13.658-15.467 10.465-54.894 31.901-5.1865 3.5352-80.842 49.29 15.504-12.015-4.5368 2.8604-0.88621 2.1048-3.12 3.3127-4.6918 4.949-1.4612 1.6782-3.0071 3.3619-4.7978 4.699-8.3096 7.7416-18.832 14.167-29.466 17.973 32.123-35.873 28.998-15.883 20.03-10.605-1.2881 1.2174-3.2621 1.8155-4.3449 3.1204-0.96703 1.6242-2.715 2.5325-4.1103 3.7826-1.0328 1.5091-2.7516 2.8163-3.769 4.3964-0.0873 0.14199-0.17451 0.28398-0.26176 0.42597l-26.48 10.565c0.14245-0.0344 0.2849-0.0688 0.42735-0.10319 0.14988-0.0901 3.3849-3.0007 3.4557-3.1359 0.22078-0.42187 0.18766-0.93363 0.28149-1.4004 1.3503-1.2164 2.4994-2.8965 4.3833-3.1917 0.32898-0.55975 0.41467-1.2433 0.7587-1.794 0.62769-1.0047 2.6952-1.1178 3.1765-2.321 0.71359-0.52361 1.6962-0.68823 2.3538-1.2172 0.0951-0.0765 1.1183-1.416 1.2457-1.5814 8.3728-4.8719 16.746-9.7438 25.118-14.616 7.5174-4.2587-14.705 9.0828-22.222 13.342-0.67031 0.37983 0.78819-1.412 1.4572-1.7941 0.33261-0.18998 0.71799-0.26716 1.077-0.40074l0.69125-0.42825c1.1714-1.8546 3.2097-3.0963 4.8662-4.511 1.0948-1.7119 3.0057-4.1653 4.9271-4.3764 0.30116-1.7913 0.53106-1.983 2.0074-2.8557 8.4-4.9654 17.209-9.2972 25.195-14.905 7.3371-5.1524-15.495 9.0229-23.243 13.534 8.3773-4.8406 16.751-9.6882 25.132-14.522 0.26868-0.15496 1.0837-0.60359 0.81772-0.44401-7.707 4.624-15.32 9.4091-23.141 13.838-0.34436 0.19499 2.4231-3.0324 2.505-2.0939 8.313-4.9526 16.615-9.9235 24.939-14.858 9.9177-5.8789-30.526 19.808-21.354 12.684 0.30364-0.23584 0.44675-0.65221 0.77237-0.85664 8.2982-5.2098 16.707-10.241 25.06-15.362-60.935 36.416 1.8501-1.3415 2.5129-2.0699 6.1143-6.719-15.692 9.1588-23.572 13.68-0.57092 0.32758 2.3332-1.8231 1.7434-0.92728 5.8934-3.4018 19.67-13.49 30.113-16.397 1.9482 0.11119 4.0021 0.25826 5.828-0.55258 2.2192-0.15023 4.4107-0.59187 6.5116-1.3269 1.9149-1.0647 3.909-1.9531 6.0758-2.2767 0.63966-0.2903 2.5173-1.2419 1.9134-0.88299-7.74 4.5999-31.326 17.734-23.265 13.724 30.6-15.223 15.279-14.821 27.211-14.552 2.2398-0.0245 4.4798 0.0173 6.7196-0.0201 2.1346 0.0164 4.2695 0.005 6.4039-0.0167 2.055 0.00069 4.1096-0.0543 6.1639-0.0975 2.1576-0.0381 4.3104-0.20765 6.4687-0.18572 2.2173 0.0658 4.3523 0.67542 6.5884 0.6365 1.7536 0.21899 3.505 0.48427 5.1714 1.1015 1.4361 0.60557 2.7481 1.3385 4.2908 1.317 1.8445 0.54911 3.8256 0.27487 5.7145 0.69228 2.0221 0.3535 4.0132 0.85687 5.9086 1.661 1.8966 0.7102 3.932 0.5711 5.7608 1.5136 1.9767 0.47306 3.8692 1.1981 5.6915 2.0993 1.8463 0.72675 3.9851 0.68413 5.6317 1.9682 1.3707 1.0594 2.7964 1.9205 4.3509 2.6729 1.4493 1.0648 2.3381 2.2819 4.1313 2.771 1.7547 1.2395 3.237 2.8319 5.2431 3.7209 1.5075 1.2428 3.0202 2.1747 4.6704 3.229 1.3945 1.1201 3.4837 1.0877 4.7322 2.5224 1.3446 1.2485 2.8184 2.1288 4.2154 3.3146 1.2974 0.21177 2.7675 0.50803 3.9732 1.2254 1.6568 0.9716 3.076 2.287 4.8763 2.9995 1.1635 0.87783 1.793 2.1502 3.0078 2.8326 1.6007 1.1254 2.5397 2.581 3.5784 4.1806 1.1923 1.2454 2.0131 2.7225 3.2667 3.9207 1.2463 0.94591 2.3331 2.0591 3.2973 3.2933 1.2693 1.2325 2.27 2.6832 3.2191 4.17 1.5961 1.6353 2.7551 3.4967 4.0721 5.3556 0.88535 1.9156 1.625 3.8115 2.6414 5.6601 0.61211 1.5063 0.83424 2.8965 1.8884 4.116 0.7545 1.7252 1.8903 3.2106 2.4629 4.9911 0.5896 2.0201 2.2806 3.7242 2.4527 5.9047 0.23013 1.9878 1.662 3.6112 2.2693 5.5085 0.59614 1.6736 0.47399 3.5049 1.7607 4.8788 0.88598 1.9446 1.9299 3.8091 2.5778 5.8443 1.2592 1.8155 2.1071 3.8638 3.1589 5.7879 1.2222 1.6188 2.0155 3.2677 2.4227 5.2468 0.6708 1.8151 1.7745 3.6088 1.8712 5.5405-0.0299 1.9113-0.0231 3.8227-0.0193 5.734-0.0521 1.9402-0.0687 3.8793-0.11915 5.8191-0.18071 2.0398-0.32662 4.0618-0.63397 6.0864-0.61471 1.7664-0.84354 3.5627-2.095 5.0361 0.0143 1.8239-0.00077 3.648-0.0106 5.4719 0.005 1.7376-0.0144 3.4798-0.18384 5.2102-0.21665 2.2335-0.48498 4.1997-1.9179 5.9971-0.94066 1.818-1.0946 3.5484-1.414 5.5759-0.55104 1.7296-2.1581 2.901-2.5264 4.6794-0.38795 2.1755-0.76318 3.9148-2.2514 5.5251-1.3013 0.87201-0.48229 3.4919-1.7721 4.6922-1.6924 1.4365-2.0529 1.748-2.7532 3.9315-0.92849 1.2297-2.5193 1.6787-2.9086 3.4556-1.008 1.6191-2.6317 1.4394-3.0099 3.7168-0.86963 1.6726-3.0038 1.2129-3.3618 4.3567-0.45095 0.48567-1.2108 0.6061-1.6616 1.0919-0.95359 1.0275-0.26983 3.2748-2.1928 3.6764-1.0591 1.3692-1.0472 3.2431-2.4537 4.3768-1.2176 1.1528-0.61563 3.7533-2.4521 4.6413-1.688 1.2997-1.3106 2.6185-2.7597 4.1563-1.7913 0.86475-2.2183 2.8537-3.9923 3.7366-0.55413 0.65647-1.3438 2.6731-2.034 3.0353-0.29971 0.15728-0.75903-0.27757-1.0139-0.0549-0.27866 0.24348-0.11831 0.73057-0.17747 1.0959-0.76425 1.8968-2.2528 2.7532-3.1297 4.3999-0.64619 0.65862-1.0399 1.7648-1.611 2.3266-0.88782 0.87339-1.5213 0.0319-1.5976 1.8703-0.3438 0.51477-0.44581 1.3372-1.0285 1.5463-0.33306 0.11948-0.68631-0.34251-1.0298-0.25757-0.82227 0.20333-0.28433 2.2435-1.169 2.5669-1.5761 2.2905 0.45072-0.17893-1.7247 1.104-0.30085 0.17742-0.42142 0.55708-0.63213 0.83563-0.15361 0.25455-0.20792 0.60737-0.46083 0.76366-16.098 9.9484-48.768 28.751-1.3516 1.2496-3.5385 0.16766 1.1974-0.41014-1.4578 1.2346-8.2052 5.0826-16.696 9.6889-25.04 14.54-0.23695 0.13775-0.9375 0.56835-0.70296 0.42653 7.7353-4.6773 15.354-9.553 23.205-14.033 0.32334-0.1845-0.28221 0.68898-0.42332 1.0335-12.139 11.103-56.536 31.656-5.1972 3.8224-9.0943 5.8331-1.3282 0.87587-26.308 14.992-0.33919 0.19168-1.3766 0.72956-1.0398 0.53382 48.125-27.965 13.359-7.4525-2.8887 1.6098 60.535-34.985-1.3361 0.78858-2.3702 1.3155-8.0767 4.1154 31.186-18.489 23.513-13.662-11.217 7.0564-17.187 11.694-27.126 15.422-1.9331 0.79498-3.7542 2.0292-5.8325 2.3166-1.6661 0.39787-3.0187 1.3494-4.5881 2.0442-1.9334 0.8569-4.0642 0.73031-6.0958 1.4199-1.749 0.83665-3.6031 1.8822-5.5604 1.7897-1.5609 0.19154-3.0859 0.39291-4.6033 0.82165-1.777 0.71017-3.4664 1.5768-5.1149 2.5558-8.3826 2.1635 29.937-17.398 22.348-13.233-13.274 7.2849-17.509 12.309-28.229 15.485-1.9837-0.20502-3.982-0.0769-5.9739-0.1-1.8952-0.0173-3.7905-0.009-5.6857 0.00025-1.854-0.0169-3.7081-0.009-5.5621 0.00066-1.7205-0.0165-3.4408-0.008-5.1613-0.006-1.8284-0.0307-3.6568-0.0274-5.4852-0.064-1.9556-0.0492-3.9128-0.11696-5.8577-0.34111-1.9841-0.308-3.9167-0.73014-5.6912-1.7204-1.739-1.0806-3.4337-1.2691-5.403-1.7924-1.5921-0.81419-3.0454-2.2038-4.7836-2.6141-1.8527-0.40485-3.6161-1.1061-5.26-2.0518-1.3187-0.40833-2.809-0.10555-4.1604-0.46743-1.553-0.31105-3.0172-0.74242-4.4317-1.4697-1.6054-0.81596-2.5983-1.2114-4.4576-1.1746-2.0233-0.49781-3.8464-1.4718-5.7228-2.3579-1.3329-0.86377-2.8569-1.0799-4.1845-1.991-1.4256-1.1377-2.5334-2.479-4.3208-3.0904-1.2769-0.92152-2.4131-2.0179-3.8469-2.7087-1.3219-1.1336-1.6395-2.4075-2.6127-3.6401-1.3242-1.0303-2.5426-2.1539-3.9905-3.0178-1.2082-1.2922-2.5771-2.0449-3.8268-3.3035-0.77117-1.3712-2.3118-1.9642-2.9152-3.4797-0.7877-1.3124-2.8734-1.8166-3.2866-3.5129-1.111-1.5253-2.1907-3.1328-3.5569-4.4095-1.0963-1.3412-2.0078-2.8102-3.3678-3.9211-1.1411-1.1874-2.448-2.3019-3.1115-3.848-0.5556-1.3939-0.48198-2.9858-1.3806-4.1952-1.3897-1.7034-2.4304-3.7216-3.1152-5.8055-1.2984-1.8087-2.9155-3.362-3.9486-5.3508-1.5712-1.5081-3.2401-3.4392-4.1746-5.3788-1.2534-1.627-2.3097-3.3151-3.0981-5.2204-1.1137-1.6044-2.135-3.2518-3.1548-4.914-1.2654-1.4106-2.2625-2.9122-3.3599-4.4311-1.0476-1.9296-1.0378-3.812-0.90991-5.9741-0.0373-2.0747-0.001-4.1505 0.007-6.2255-0.0336-2.09-0.005-4.1795-0.0296-6.2694 0.0283-2.0445 0.0175-4.0892 0.008-6.1337 0.0349-2.4729 0.0282-4.9463 0.0192-7.4194 0.0246-2.8727 0.032-5.7463-0.01-8.6188 0.005-2.1373 0.002-4.2746-0.0215-6.4118 0.0233-2.0324 0.008-4.0651-0.016-6.0974 0.004-2.0957-0.0384-4.1907-0.0941-6.2857-0.0495-2.2274-0.18809-4.4544-0.16411-6.6824 0.14362-2.1972 0.93246-4.3891 1.0039-6.6632 0.28172-2.689 1.1072-5.1484 1.9757-7.6921 1.2614-2.4466 0.38232-5.523 1.5463-8.0626 1.8847-1.321 1.6882-3.3318 1.9954-5.4042 0.45129-2.2686 0.75999-4.761 2.0791-6.6992 2.0858-0.96424 0.66545-4.3865 3.3654-4.8698 1.3696-1.4956 1.1071-4.347 3.3162-5.4301 0.37265-1.1146 0.28782-2.4305 1.2291-3.2547 0.28713-0.25143 0.73535-0.30437 0.97363-0.60251 1.619-2.0258-0.4906-0.77549 1.2985-1.6577 0.41166-0.68895 0.51003-1.5389 0.93997-2.2166 0.96777-1.5254 1.1445 0.58583 2.277-2.1999 0.14983-0.36856 0.38425-0.69679 0.57637-1.0452 1.865-0.61195 2.5802-3.3511 3.7956-4.8756 1.5569-0.83937 1.1507-1.2905 2.2128-2.572 0.97263-1.1736 0.78248-0.15048 1.7823-0.86432 0.25349-0.18097 0.38769-0.48757 0.58154-0.73136 1.374-3.1444 1.3252-1.3559 2.4589-2.3138 0.3217-0.27181 0.0528-0.97321 0.41091-1.1948 0.49572-0.30666 63.924-37.255 1.6423-0.60058 0.9559-0.96891 1.4649-2.5151 2.629-3.2025 0.73101-0.43167 63.693-36.876 2.2854-1.124 8.6849-6.4756 18.328-10 27.618-16.716 7.1598-5.1758-15.341 8.7682-22.941 13.274-0.43659 0.25886 0.95394-0.34713 1.4309-0.52069l25.277-15.112c-55.069 32.271-1.8072 0.27885 5.9822-3.6885 2.2402-1.0231 4.8932-1.0943 6.979-2.5994 4.0014-1.4601 8.1748-2.0685 12.366-2.7478l-22.664 17.045z"/>
		<path id="path5718" d="m254.7 693.89c-2.9734 2.7063-5.5756 5.7406-8.2093 8.7616-1.9813 1.6981-3.632 3.7129-5.5155 5.5136-1.7343 1.6035-3.241 3.2439-4.765 5.0272-1.9904 0.80807-2.5157 3.089-4.3499 4.0366-1.2171 2.0428-2.8119 3.7089-4.7307 5.1486-1.1748 1.7927-2.5956 3.3089-3.7549 5.1133-1.0338 1.8745-2.5755 3.4235-3.5802 5.2818-1.6136 1.2026-2.4471 3.1542-3.8926 4.442-1.0179 1.6468-2.43 3.0799-4.0214 4.1837-1.2048 1.2898-2.137 2.8853-3.3701 4.2302-1.2405 1.4205-1.7068 3.491-3.0532 4.8039-1.0117 1.5916-1.9702 3.3827-2.7413 5.1766-1.1104 1.4199-1.9049 3.2118-2.6285 4.9086-1.295 1.4314-1.4084 3.315-1.6387 5.1498-0.38793 1.9104-1.745 3.4207-2.36 5.2178-0.27044 1.8548-1.5143 3.249-2.5759 4.7051-0.45921 1.8889-1.3686 3.5957-2.2106 5.343-0.43205 1.7518-1.2985 3.3049-1.5206 5.0822 0.0829 2.1817-0.38116 4.1489-1.0993 6.1918-0.90821 1.7226-0.83113 3.7846-1.5855 5.5458-0.4492 1.7368-0.33385 3.5748-0.26938 5.3553 0.0491 1.7018 0.067 3.404 0.0979 5.1062 0.11997 2.093 0.008 4.0654-0.69629 6.0482-0.85814 1.801-1.29 3.7452-1.6811 5.6876-0.5135 1.8877-1.1244 3.742-1.7048 5.6282-0.66421 1.759-1.0582 3.6033-1.2389 5.4737-0.1895 1.8677-0.28449 3.7462-0.30261 5.6235-0.0189 1.6788-0.0446 3.3575-0.0506 5.0364-0.002 1.8191-0.0142 3.6381-0.0129 5.4572 0.006 1.8874-0.005 3.7747-0.002 5.6621 0.007 1.9018-0.003 3.8037-0.00037 5.7055 0.21854 1.457-0.45715 3.1949 0.2763 4.5272 0.62275 0.77871 1.9901 0.72422 3.107 0.68849 1.7634 0.18698 3.541 0.18963 5.313 0.21278 1.8847 0.0274 3.7697 0.0111 5.6543 0.0356 1.9019 0.00031 3.804-0.0194 5.7058 0.005 1.9043-0.004 3.8089-0.0239 5.7131 0.00071 1.9416-0.0173 3.883-0.002 5.8248-0.006 1.6838-1.354 4.0259-1.6337 6.0734-2.1663 1.7334-0.39011 3.5539-0.60202 5.3349-0.56427 1.8722-0.092 3.7497-0.12449 5.6245-0.10059 2.0236-0.0118 3.9985-0.27489 5.8893 0.4828 1.7754 0.89449 3.6898 1.6746 5.6926 1.8172 1.7689 0.32965 3.5761 0.39944 5.373 0.44666 1.7975 1.3024 3.3024 2.0065 5.4084 2.6154 1.7742 0.22697 4.0007 1.6148 5.3351 2.8856 1.5768 0.2751 3.1708 0.2666 4.7649 0.29245 1.8634 0.004 3.7271 0.0226 5.5904 0.009 2.2444-0.21586 4.0108 0.0567 6.0334 1.0059 1.7119 0.93434 3.6894 1.1626 5.5895 1.4717 1.8519 0.24053 3.7333 0.26455 5.6012 0.31211 1.7812 0.0403 3.563 0.0448 5.3446 0.05 1.7412 0.002 3.4823 0.0108 5.2235 0.0107 2.2694 0.0202 4.5389 0.003 6.8084 0.0109 2.074-0.00089 4.148-0.0141 6.222-0.005 1.8627-0.005 3.7252 0.001 5.5879-0.0117 1.9326 0.0119 3.8654 0.0186 5.7981 0.001 1.9208 0.01 3.8418 0.0166 5.7626-0.00047 1.7975-0.32414 3.6035-1.2527 5.3999-2.0486 1.8643-0.2428 3.6987-0.51491 5.5796-0.6775 1.9489 0.20604 2.921-1.1721 4.6715-1.8725 1.7313-0.65713 3.646-0.75163 5.4828-0.89693 1.7759-0.10199 3.5591-0.18257 5.3391-0.18356 1.6709-0.0368 3.3412-0.0129 5.0122-0.0328 1.8896 0.01 3.7794 0.0156 5.6692-0.002 2.054 0.0259 4.1081-0.007 6.1622 0.0184 1.8741-0.0119 3.7483-0.0225 5.6224-0.012 2.0587 0.21681 3.4997-0.57523 5.5066-0.39355 1.8323-0.11132 3.5206-1.3252 5.4586-1.6681 1.9259-0.42686 3.903-0.59222 5.8726-0.64889 1.7761-0.69626 3.5456-0.53532 5.5718-0.38209 1.9229 0.10387 3.8474 0.14851 5.7725 0.18384 1.7907 0.0268 3.5817 0.037 5.3726 0.0368 1.7724 0.008 3.5449 0.0157 5.3174 0.009 1.8741 0.004 3.7482 0.0104 5.6222 0.002 2.0423 0.15485 3.8428-0.89911 5.5027-2.0978 2.1711-0.56082 4.4262-0.6623 6.6595-0.69239 2.0863-0.0661 4.1736-0.0446 6.2605-0.0521 2.201-0.0119 4.402 0.003 6.603-0.007 2.0812 0.00045 4.1625 0.005 6.2438-0.005 1.9434 0.002 3.8869 0.008 5.8303-0.001 1.7004-0.008 3.4009 0.002 5.1014 0.00082 1.8378-0.004 3.6756 0.004 5.5135 0.002 1.8916-0.005 3.7832 0.003 5.6748 0.00054 1.9026-0.005 3.8052 0.002 5.7078 0.0001 1.9044-0.005 3.8089 0.002 5.7133 0.00001 1.9047-0.005 3.8094 0.002 5.7142 0 1.6734-0.00013 3.3465-0.0161 5.0199-0.003 1.8234 0.004 3.6468-0.006 5.4701 0.004 1.8934 0.001 3.7868-0.009 5.6802 0.00055 1.9032 0.001 3.8065-0.01 5.7098 0.00007 1.9046 0.001 3.8092-0.01 5.7137 0.00001 1.9047 0.00099 3.8095-0.01 5.7142 0 1.7817 0.002 3.5631-0.0165 5.3447-0.00087 1.6928-0.0105 3.3855-0.003 5.0784-0.007 1.8956 0.006 3.7912 0.0115 5.6868 0.003 1.9144 0.003 3.8289 0.009 5.7434-0.00019 1.9073 0.003 3.8146 0.009 5.7218-0.00009 2.4785-0.45853 4.0167 1.3712 6.0927 2.2266 1.6718 0.3172 3.3633 0.50819 5.0632 0.55686 1.6368 0.0325 3.2736 0.0629 4.9109 0.0587 1.6625 0.0162 3.325 0.004 4.9876 0.0163 1.8812 0.004 3.7624-0.006 5.6435 0.004 1.9077 0.001 3.8154-0.01 5.723 0.00017 1.9058 0.00099 3.8117-0.01 5.7175-0.00002 1.905 0.00099 3.81-0.01 5.7149 0 1.6937-0.0124 3.3876-0.0135 5.0814 0.001 1.759-0.0106 3.5179-0.004 5.277-0.008 1.6952 0.006 3.3903-0.006 5.0855-0.00027 1.8383 0.001 3.6766 0.008 5.515 0.006 1.7162 0.001 3.4323-0.00003 5.1484-0.0144 0.64578-0.81091 0.27199-0.44837 1.129-1.0797-7.8712 4.5347-15.706 9.1326-23.614 13.604-1.5645 0.88475 1.3649-1.0904 1.8566-1.6366 1.6042-1.7971 2.4513-4.0348 4.0063-5.8644 1.0453-1.3456 1.9782-2.565 2.4658-4.2232 0.46552-1.7191 0.57198-3.5132 0.65216-5.2853 0.084-1.7547 0.1014-3.5126 0.11572-5.2692 0.15823-1.6539-0.79966-3.0316-1.3694-4.514-0.66236-2.0167-1.7878-3.813-2.5744-5.7838-0.47881-1.7152-1.381-3.1956-2.3709-4.6543-0.76499-1.488-1.5775-2.9059-2.4409-4.3516-1.0975-1.7495-1.6386-3.7618-2.0212-5.7706-0.34646-1.8078-0.23109-3.647-0.87569-5.3834-0.98856-1.8702-1.4826-3.9253-1.8879-5.9881-0.117-1.9465-0.67254-3.6287-1.3304-5.4309-0.87126-1.9126-1.3756-3.9605-1.686-6.0324-0.67362-2.0999-1.4839-4.1464-2.1619-6.2462-0.58634-1.9484-0.31078-4.4435-1.7904-5.9942-1.144-2.0652-1.6249-4.288-1.9796-6.5902-0.0278-2.015-1.2843-3.5981-2.0411-5.4574-0.24589-2.1134-1.1308-3.7451-2.2796-5.466-0.76874-1.6325-0.90234-3.4713-1.7949-5.0376-1.5285-1.5244-2.0543-3.3042-2.4007-5.4486-0.0826-2.0278-1.4136-3.4848-2.1289-5.3106-0.27532-1.6872-1.3546-2.6709-2.2765-4.0473-1.2296-1.4646-0.70896-3.7286-1.9223-5.14-1.1766-1.1388-1.4736-2.8239-2.434-4.0754-1.6723-0.81091-1.6966-3.3654-3.0167-4.5918-1.2625-1.9803-2.7046-3.6366-3.8237-5.7551-2.1371-0.92784-2.3756-3.6434-3.8384-5.1525-1.4275-0.9191-1.3684-2.9407-2.3329-4.119-0.10033-0.12257-0.30206-0.0955-0.45309-0.14323-0.28698-0.45356-0.57395-0.90711-0.86092-1.3607-1.331-1.0893-1.2352-3.4307-2.73-4.1727-1.3097-1.1595-2.0461-2.479-3.4005-3.5477-1.0062-1.9597-2.3102-3.3342-3.5466-5.2082-1.1292-1.2857-2.2972-3.0093-3.824-3.835-1.6159-1.3336-3.003-2.6093-4.6588-3.8729-1.3663-1.1046-2.9861-2.0262-4.3906-3.1442-1.2964-0.8693-2.7562-3.1731-4.2292-3.5611-1.6524 0.054-2.7269-3.9548-3.7011-3.4846-1.8063-0.33999-1.4743-2.8736-3.2933-2.8404-1.2836-0.21106-1.3405-1.4933-2.0471-2.2964-0.14989-0.17035-1.3201-0.54921-1.6377-0.72525-1.6288 0.19629-1.9961-1.7452-3.1683-2.3283-0.45045-0.22407-0.99587-0.18033-1.4656-0.3604-1.884-1.4352-3.8978-2.2409-6.1597-3.0213-2.2963 1.1085-3.0732-2.6526-4.7248-2.4967-1.7986-0.74049-3.1167-2.2135-4.6653-3.3618-2.0609 0.12316-2.8357-0.39176-4.1013-1.9861-1.0032-0.75726-2.1452-0.94675-3.3732-0.93749-1.0722-1.9075-2.2605-2.0108-4.0098-2.7133-1.9336 0.15397-2.6322-1.7284-4.2894-2.4771-1.5948 0.0923-1.8307-1.3267-2.7977-2.1988-0.35857-0.32341-0.88053-0.4067-1.2808-0.67685-1.5662-0.39701-3.1702-0.44435-4.7748-0.58444-2.1637 0.17905-3.6974-1.0515-5.0986-2.5513-1.4407-0.68697-3.1064-1.6355-4.5624-2.5714-1.312-1.2424-3.0463-0.39744-4.5439-1.4092l23.666-15.815c1.753-0.21873 3.4151 0.88861 4.8074 1.7966 1.6467 0.98645 3.3029 1.9395 4.851 3.0777 1.2263 0.98005 2.5571 0.85751 4.077 0.99155 1.9531 0.24538 3.9331 0.62898 5.5795 1.7738 1.3955 1.0126 2.2406 2.1921 3.9388 2.6495 1.4488 0.96295 2.27 1.8877 4.0723 2.1207 1.3443 0.50302 2.6276 1.6062 3.6361 2.2222 1.6899 0.47223 3.2329 1.2376 4.431 2.5606 0.85539 0.73434 3.0266 0.29948 3.9335 1.6779 1.2215 1.1828 2.6989 2.043 4.2396 2.7536 1.6597 1.2493 2.4354 1.9928 4.6133 2.2846 2.1546 0.91503 4.1126 2.1395 6.218 3.1307 1.7636 0.85707 3.002 2.3819 4.8864 3.0185 1.2485 0.856 2.0563 2.163 3.4209 2.6786 1.4157 0.94436 1.9898 2.3689 3.4675 3.1045 1.3413 1.2139 1.9925 2.8416 3.731 3.6058 1.4808 1.2224 2.9158 2.4649 4.3722 3.708 1.5718 1.004 2.896 2.2475 4.4502 3.2745 1.5312 1.291 3.058 2.5779 4.6386 3.7996 1.5661 1.4422 3.1235 2.9305 4.3436 4.6828 0.96903 1.567 2.2191 2.8499 3.0878 4.4449 1.2925 1.1111 2.1193 2.5114 3.4039 3.6054 1.4168 1.4715 1.9678 3.2086 3.1185 4.876 1.2646 1.7958 2.3075 3.5421 3.4953 5.3843 1.416 1.9036 2.2165 4.1245 4.1692 5.6479 0.9328 1.9006 2.3698 3.383 3.4593 5.1592 1.2389 1.57 1.6934 3.5111 3.2097 4.8371 0.8677 1.3196 1.3833 2.7816 2.3634 4.0338 1.1564 1.6873 1.4709 3.3729 2.0257 5.2545 0.97371 1.5249 2.4354 2.703 2.5923 4.6289 0.6589 2.033 2.3808 3.601 2.4105 5.8478 0.20989 1.9677 0.51086 2.9826 1.8961 4.4733 0.90048 1.5639 1.3714 3.1338 1.7078 4.9098 1.1748 1.8806 2.4711 3.6778 2.5849 5.9752 0.74874 2.0892 2.2294 3.8274 2.3674 6.0497 0.18685 1.8098 0.38011 3.5881 1.1821 5.2543 1.5271 2.0766 2.1002 4.3714 2.3368 6.9159 0.66413 2.2742 1.4718 4.4973 2.374 6.6877 0.18493 1.8896 0.61046 3.7507 1.3822 5.4896 0.68641 1.9471 1.6294 3.7009 1.5828 5.8377 0.30479 1.9059 0.67484 3.7904 1.6157 5.4979 0.7979 1.9464 1.095 3.7904 1.1661 5.8921 0.24778 1.6851 0.58193 3.389 1.5092 4.8503 0.84166 1.4068 1.7032 2.76 2.3959 4.231 1.0569 1.6443 2.1532 3.286 2.64 5.203 0.7477 2.0073 1.9337 3.7943 2.6227 5.8151 0.61074 1.7918 1.8687 3.4744 1.8523 5.4116-0.0117 1.7884-0.037 3.576-0.0694 5.3642-0.0849 1.9357-0.15761 3.8691-0.39614 5.7941-0.38402 1.8197-0.55405 3.9312-2.0864 5.1747-1.1818 2.087-3.1002 3.6705-3.9232 6.012-6.0916 8.9648-17.438 17.241-28.538 17.048-1.7029-0.0146-3.4058-0.0158-5.1087-0.0144-1.8439-0.002-3.6878 0.005-5.5317 0.006-1.6949 0.006-3.3898-0.006-5.0847-0.00027-1.7517-0.004-3.5033 0.003-5.255-0.008-1.6948 0.0143-3.3897 0.0138-5.0844 0.001-1.905 0.01-3.81-0.00087-5.7149-0.00001-1.9058 0.01-3.8116-0.0009-5.7174-0.00009-1.9077 0.01-3.8155-0.001-5.7233-0.00043-1.884 0.009-3.7682-0.002-5.6522-0.001-1.6787 0.008-3.3571-0.009-5.0357-0.0225-1.6743-0.0486-3.351-0.0616-5.0194-0.23043-1.9447-0.26296-3.9075-0.55783-5.6659-1.4894-1.7531-1.0554-3.3004-1.321-5.3386-1.108-1.9072-0.009-3.8144-0.003-5.7216-0.00009-1.9143-0.009-3.8286-0.003-5.7428-0.00019-1.8982-0.009-3.7965-0.003-5.6948 0.003-1.6866-0.004-3.373 0.004-5.0596-0.007-1.7808 0.0153-3.5614-0.002-5.3423-0.00087-1.9047 0.01-3.8095-0.00087-5.7142 0-1.9046 0.01-3.8092-0.00086-5.7137 0.00001-1.9033 0.01-3.8067-0.00084-5.71 0.00008-1.8939 0.01-3.7878-0.0007-5.6817 0.00054-1.8268 0.01-3.6537 0.00033-5.4806 0.004-1.6703 0.0125-3.3404-0.003-5.0107-0.003-1.9047-0.002-3.8094 0.005-5.7142 0-1.9045-0.002-3.8089 0.005-5.7134 0.00002-1.9027-0.002-3.8054 0.005-5.708 0.00009-1.8921-0.002-3.7842 0.005-5.6762 0.00054-1.8399-0.002-3.6798 0.006-5.5197 0.002-1.7012-0.0008-3.4024 0.009-5.1036 0.0008-1.942-0.009-3.8841-0.003-5.8261-0.001-2.0764-0.0103-4.1529-0.005-6.2293-0.004-2.1958-0.009-4.3914 0.006-6.5871 0.0121-2.0604 0.0133-4.1221 0.0436-6.1788 0.17727-2.0575 0.21378-4.1225 0.46516-5.8912 1.6418-2.1443 0.80562-4.0742 1.3084-6.3893 1.0315-1.8756-0.009-3.7513-0.003-5.6269-0.002-1.7785-0.0101-3.5571-0.006-5.3356-0.0152-1.8016-0.0236-3.6029-0.0496-5.4043-0.0881-1.9304-0.0716-3.8606-0.14984-5.7915-0.20018-1.8648 0.0131-3.5012 0.63746-5.3591 0.6138-1.8736 0.22671-3.7392 0.4908-5.5402 1.0831-1.9299 0.7326-3.7943 1.3497-5.8815 1.115-1.8476 0.27973-3.6434 0.4968-5.5463 0.34804-1.8631 0.0102-3.7264 0.00033-5.5895-0.0117-2.071 0.0253-4.1422-0.006-6.2132 0.0207-1.8887-0.0156-3.7775-0.006-5.666 0.0137-1.6557-0.005-3.3105 0.0298-4.9657 0.0686-1.7282 0.0838-3.4609 0.126-5.1745 0.389-1.7367 0.27429-3.4149 0.73409-4.9675 1.5772-1.7541 0.85621-3.2345 1.2096-5.2206 1.1883-1.7347 0.23068-3.5054 0.57467-5.111 1.2731-2.0351 0.70309-3.8253 1.544-6.0493 1.202-1.9204-0.0175-3.8409-0.01-5.7613-0.00046-1.934-0.0175-3.8681-0.01-5.8021 0.001-1.8519-0.013-3.7038-0.006-5.5557-0.0118-2.0693 0.009-4.1387-0.004-6.208-0.006-2.2789 0.007-4.5579-0.0102-6.8369 0.007-1.7479-0.004-3.4958 0.002-5.2436-0.0185-1.7952-0.0214-3.5912-0.0487-5.3848-0.13049-1.9533-0.10163-3.9141-0.22843-5.8313-0.64003-2.0192-0.40465-3.9572-1.0973-5.8597-1.8775-1.7794-0.41677-3.6536-0.0701-5.47-0.18681-1.8958-0.0194-3.7948 0.0132-5.6876-0.11461-2.0541-0.17598-4.0681-0.482-5.7494-1.7846-1.5423-0.89463-3.0122-1.7388-4.7984-2.0068-1.7167-0.63358-3.1284-1.9596-4.9627-2.014-1.8674-0.15442-3.7329-0.34522-5.5606-0.77695-1.9421-0.55498-3.8041-1.3196-5.7357-1.8805-1.84 0.0429-3.6813 0.0189-5.5217 0.042-1.8502 0.0608-3.7005 0.0814-5.5476 0.22105-1.6894 0.24884-3.3786 0.47499-5.013 0.99237-2.1545 0.53465-4.237 1.8062-6.5054 1.6057-1.9362-0.004-3.8721 0.0114-5.8083-0.006-1.9044 0.0235-3.8093 0.005-5.7139-0.002-1.9034 0.022-3.8073 0.002-5.7108-0.0115-1.8958 0.0113-3.7922-0.0198-5.6871-0.0769-1.8468-0.0555-3.697-0.15223-5.5194-0.47725-1.8464-0.49605-3.6074-1.1004-4.5679-2.9085-1.0087-1.8748-1.0455-3.6861-0.91868-5.7859 0.003-1.9018-0.008-3.8037-0.0001-5.7055 0.003-1.8874-0.008-3.7747-0.00034-5.662 0.003-1.8201-0.008-3.6403 0.00086-5.4604 0.005-1.6936-0.008-3.3879 0.0378-5.081 0.0563-1.9436 0.0308-3.8936 0.19985-5.8309 0.21384-2.0267 0.29032-4.1336 0.96389-6.0632 0.75222-1.9888 1.568-3.7074 1.5965-5.8403 1.2963-1.3957 0.75347-3.9621 1.6898-5.6625 0.874-1.7062 1.525-2.9836 1.1942-4.9791-0.005-1.6871-0.0331-3.3742-0.0787-5.0607-0.0403-2.0277-0.0958-4.0532-0.0858-6.0812 0.29657-1.9386 1.3477-3.8147 1.416-5.9233 0.90769-1.785 1.738-3.3526 1.4862-5.3643 0.1056-2.3841 0.43304-3.6156 1.2363-5.7463 0.47381-1.939 1.6726-3.5356 2.1983-5.3329 0.27345-1.858 1.3114-3.2121 2.6952-4.4369 0.14223-0.93768 0.12332-2.1575 0.72031-2.9542 0.19855-0.26499 0.59569-0.3548 0.75579-0.64465 1.7558-3.1789-0.78825 0.0277 0.79105-1.8533 1.1777-1.6306 0.13918-4.2124 1.2955-5.9452 0.0261-0.0201 2.1269-2.8853 2.1471-2.9526 1.2431-4.1326-0.85631 0.49114 0.39288-2.1098 1.3134-0.72486 0.88686-1.3238 1.5046-2.5874 0.57479-1.1756 1.7209-0.6239 1.2417-2.5069 1.1873-1.9718-0.47899 0.51755 1.2372-1.1368 0.97299-0.93795 1.0237-2.5785 1.9304-3.5408 0.88651-1.7287 2.6881-2.7814 3.1357-4.6844 1.1136-1.5408 2.793-2.537 4.2946-3.6325 1.1004-2.979-0.28492-0.17619 1.1746-1.4988 1.0551-0.95613 0.72412-2.9547 2.5583-3.2938 1.836-1.3153-0.24759 0.41826 1.2311-1.9334 0.68718-1.0929 2.3405-1.4903 2.3969-3.1493 1.3872-1.6883 2.2-3.6798 3.8372-5.0988 1.1778-2.9315 1.4516-1.2356 2.7323-2.6381 0.33885-0.37109 0.16662-1.0583 0.52091-1.4147 2.5484-2.5633-0.24094 2.3914 1.4781-1.0325 0.13929-0.48219 0.0984-1.0595 0.41787-1.4466 0.41222-0.49942 1.3228-0.36801 1.7406-0.86271 0.7367-0.87214 0.72408-2.0917 1.8187-2.6445 2.5076-0.95948 1.052-0.95373 2.3759-2.5943 0.641-0.79432 2.4392-0.51572 2.4431-2.1652 2.073-1.7015 3.9029-3.5571 5.6701-5.5324 3.2329-2.2874 4.9903-6.239 8.2385-8.6324l26.168-10.839z"/>
	</g>
</svg>
